<svg xmlns="http://www.w3.org/2000/svg" xmlns:xlink="http://www.w3.org/1999/xlink" width="1024" height="1024"><path fill="#1e1d1d" d="M77.9 36.795c22.522-1.326 40.061 3.599 48.386 26.658 4.583-11.923 11.484-28.442 23.842-11.199-9.451 16.133-14.355 17.512-14.985 38.58 11.197-1.464 23.985-7.09 35.121-2.477 52.839 21.885 26.157 109.623-14.136 128.415-16.773 4.93-13.886-2.029-28.814-2.666-4.703-.201-13.322 6.825-21.898 4.221-15.31-5.021-25.894-18.686-33.839-32.19-16.693-28.374-22.4-75.255 9.732-95.468 12.586-7.917 27.339-2.917 40.772.736l.833-13.566c-8.19 1.234-13.892 1.306-23.094-1.342-14.577-4.194-25.906-22.513-24.834-37.46.083-1.164 1.91-1.759 2.914-2.242"/><path fill="#dd3839" d="M85.275 101.168c14.23-.495 22.158 4.497 35.688 4.771 11.147.154 22.671-5.663 33.8-4.682 24.934 2.196 34.595 30.988 32.419 52.544-2.768 27.429-14.057 48.318-34.925 65.997-17.772 9.825-17.142-1.045-32.98-.32-12.545 3.046-14.333 8.828-27.463 1.581-36.107-19.928-58.813-105.201-6.54-119.891" style="fill:url(#a)" transform="translate(8 -10)"/><path fill="#faf9fa" d="M94.01 99.473c1.854.392 2.637.961 3.438 2.564-.584 4.487-10.277 8.165-12.833 11.17-1.063 1.251-4.936 9.867-5.853 11.857-1.899-.916-2.107-1.108-3.544-2.657-3.735-9.455 11.891-19.272 18.792-22.934M73.265 127.98c2.762.53 3.947.759 5.197 3.369.363 2.595-.412 4.132-1.295 6.603-5.974-1.231-4.766-5.275-3.902-9.972"/><path fill="#36a14e" d="M79.22 41.196q4.657-.114 9.316.006c9.812.292 19.532 3.334 26.342 10.698a30.74 30.74 0 0 1 8.179 21.645c-25.881 4.058-39.132-7.734-43.838-32.35"/><path fill="#70482b" d="M138.794 48.737c9.979 1.616 2.205 9.629-.886 14.302-5.41 8.18-6.335 18.404-7.609 27.9l-1.538.753-1.207-.784c-5.327-10.313 4.868-33.235 11.24-42.17"/><path fill="#1e1d1d" d="M668.69 38.083c9.62-1.248 19.178.729 28.125 4.17-6.341 21.678-17.621 37-42.8 35.778-3.691-.179-7.67-2.203-11.337-1.812l-.24 1.012c2.454 3.014 5.045 2.574 8.733 3.113 55.424 8.096 76.064 77.437 37.226 116.395-13.758 13.8-31.43 19.762-50.712 19.62-14.37-1.158-27.346-4.429-39.05-13.263a69.33 69.33 0 0 1-26.937-45.643c-5.457-38.988 20.129-71.838 58.887-77.212-3.676-10.207-7.555-17.012-13.746-25.827-3.321-4.727 6.672-11.312 11.457-8.877 5.509 2.804 7.839 10.089 10.203 15.303 7.93-13.572 14.492-19.743 30.19-22.757"/><path fill="#ef8b45" d="M636.55 83.295c1.765-1.034 4.506-1.971 6.05-.035 12.512 2.342 21.716 3.646 32.492 10.808a63.96 63.96 0 0 1 27.653 41.07 65.14 65.14 0 0 1-9.63 48.757 62.84 62.84 0 0 1-40.617 26.927c-16.95 3.26-35.01-.023-49.33-9.799a64.1 64.1 0 0 1-26.885-41.508 64.44 64.44 0 0 1 10.082-48.138c12.845-18.576 29.17-24.253 50.185-28.082"/><path fill="#1e1d1d" d="M636.55 83.295c1.765-1.034 4.506-1.971 6.05-.035-.55 2.723-.67 6.972-.841 9.853 3.386-.64 7.348-2.034 10.003.581-.808 3.392-6.582 3.685-11.001 6.952l-.585.44c-2.065-1.626-4.347-3.272-6.463-4.858-2.06.363-3.43.551-5.53.741-1.597-1.168-1.59-.782-2.181-2.327l.769-1.073c5.644-2.373 14.707 1.077 9.779-10.274"/><path fill="#5d351a" d="M617.512 193.195a3.094 3.094 0 0 1 .989 6.111 3.094 3.094 0 1 1-.99-6.11M602.616 157.11a2.916 2.916 0 1 1 .822 5.768 2.915 2.915 0 0 1-.822-5.768"/><path fill="#70482b" d="M615.648 181.976a2.85 2.85 0 0 1 3.306 4.638 2.847 2.847 0 0 1-4.565-2.024 2.85 2.85 0 0 1 1.259-2.614"/><path fill="#36a14e" d="M672.964 42.059c7.877.01 11.147.858 18.599 2.834-6 17.732-12.747 25.24-31.381 29.148-7.882.06-13.568-2.164-20.607-5.097 7.516-16.542 14.753-24.46 33.389-26.885"/><path fill="#70482b" d="M625.578 48.275c5.634 1.976 13.134 23.136 11.64 29.12-.443 1.78-1.25 1.824-2.681 2.636-4.047-12.588-6.463-16.782-14.192-27.65z"/><defs><linearGradient id="d"><stop offset="0" style="stop-color:#dd8938;stop-opacity:1"/><stop offset="1" style="stop-color:#dd3839;stop-opacity:1"/></linearGradient><linearGradient id="c"><stop offset="0" style="stop-color:#f56d31;stop-opacity:1"/><stop offset="1" style="stop-color:#f5c231;stop-opacity:1"/></linearGradient><linearGradient id="b"><stop offset="0" style="stop-color:#efae45;stop-opacity:1"/><stop offset="1" style="stop-color:#ef8b45;stop-opacity:1"/></linearGradient><linearGradient id="e" x1="808.138" x2="744.54" y1="271.893" y2="461.996" gradientUnits="userSpaceOnUse"><stop offset="0" stop-color="#1b1e1f"/><stop offset="1" stop-color="#33291d"/></linearGradient><linearGradient xlink:href="#b" id="f" x1="530.415" x2="657.914" y1="651.825" y2="651.825" gradientUnits="userSpaceOnUse"/><linearGradient xlink:href="#c" id="g" x1="186.776" x2="78.426" y1="643.616" y2="658.844" gradientUnits="userSpaceOnUse"/><radialGradient xlink:href="#d" id="a" cx="86.229" cy="150.002" r="66.476" fx="86.229" fy="150.002" gradientTransform="matrix(1 0 0 .92832 0 11.673)" gradientUnits="userSpaceOnUse"/></defs><path fill="url(#e)" d="M776.407 259.034c6.333 5.145 9.757 25.058 10.759 32.998 3.273-2.549 23.316-18.623 27.106-13.711-.424 4.394-10.883 15.739-14.83 22.721 5.351-2.456 22.596-9.492 26.908-4.937-.717 3.86-9.591 8.105-12.691 11.145-2.246 2.201-3.518 3.679-5.518 6.106 3.415-.424 15.254-2.598 16.7.871-1.807 3.631-13.094 8.321-16.57 12.225-4.208 4.727-6.206 8.808-9.106 14.318 24.897 13.065 30.678 28.777 32.424 55.607 2.67 41-10.038 73.32-57.075 74.44a75.6 75.6 0 0 1-15.675-2.579c-31.123-8.878-39.237-34.399-39.103-63.602.136-29.599 6.257-49.017 33.528-64.02a48 48 0 0 0-10.045-15.382c-3.352-3.455-13.537-6.987-14.659-11.26l.737-.873c4.117-1.45 11.565-.223 15.973.376-3.808-4.677-18.231-13.96-18.36-17.64 4.439-3.533 21.263 3.076 26.109 4.916-2.668-6.895-14.79-18.73-14.437-22.573l1.122-.643c8.723.208 19.422 8.987 25.788 14.463 1.54-9.081 5.289-25.634 10.915-32.966" style="fill:url(#e)" transform="matrix(1 0 0 .9437 -136.291 39.62)"/><path fill="#36a14e" d="M640.158 291.602c5.182 8.811 6.46 24.105 7.069 33.852 7.69-7.565 11.88-12.118 21.502-17.368-10.316 13.802-12.976 22.348-18.283 38.186-2.06-7.389-3.941-16.982-9.622-22.32-7.01 5.127-8.425 14.533-10.601 22.603-5.248-17.07-7.596-23.916-18.116-38.345 10.089 5.584 13.01 10.058 21.167 17.456-.271-13.153 2.372-21.783 6.884-34.064"/><path fill="#36a14e" d="M640.233 329.954c3.746 4.702 6.507 20.928 7.63 27.104 9.768-12.702 14.103-14.858 29.648-19.13-9.345 7.404-13.163 11.727-18.315 22.194-6.991-1.963-10.91-2.6-18.192-2.79-9.22-.232-11.101.298-20.061 2.48-5.058-10.422-8.523-14.204-17.93-21.223 15.69 3.12 19.586 6.867 29.268 18.23 2.444-9.436 4.487-17.703 7.952-26.865"/><path fill="#f5cb31" d="M642.576 387.592c5.82 3.157 12.577 9.85 17.504 14.473-5.2 4.833-11.232 9.727-16.71 14.347-6.312-3.345-12.57-9.772-17.823-14.703a821 821 0 0 1 17.029-14.117M662.979 404.89c6.177 3.087 12.154 9.277 17.212 14.032-4.97 4.6-11.407 9.786-16.66 14.253-5.702-2.66-12.8-9.722-17.582-14.132zM622.87 404.364q8.82 7.363 17.46 14.914c-5.255 4.373-10.522 8.978-15.727 13.426-6.477-3.508-12.675-9.71-18.084-14.72a594 594 0 0 1 16.35-13.62M643.2 421.68c5.7 4.396 11.463 9.517 16.942 14.213-4.906 4.533-11 9.487-16.15 13.889-5.962-3.165-11.902-9.532-16.778-14.304 4.668-4.444 10.979-9.536 15.986-13.798M603.282 420.962c6.575 3.057 12.733 9.544 18.023 14.539l-14.628 12.559c-4.706-1.491-14.26-10.768-18.243-14.412 4.897-3.945 10.05-8.565 14.848-12.686M624.24 371.54c5.12 4.156 10.37 8.848 15.382 13.17-4.688 4.604-11.704 10.205-16.865 14.566-4.923-2.397-11.448-9.006-15.584-12.928zM623.526 438.395c4.456 1.33 13.757 10.475 17.564 13.984-4.86 4.349-9.91 8.674-14.832 12.974-5.695-2.922-12.496-9.91-17.254-14.461 4.666-4.426 9.553-8.39 14.522-12.497M686.007 418.459c2.043-1.537 2.015-2.024 4.318-2.308 1.385 1.896.997 4.533.905 6.98l-.654 3.658c1.192 3.913.413 8.798-.116 12.819-2.612 2.541-7.072 6.072-10.012 8.527a630 630 0 0 1-14.313-12.298c3.172-2.531 10.87-8.486 12.83-11.671 1.276-2.953 4.105-4.429 7.042-5.707"/><path fill="#414041" d="M686.007 418.459c2.043-1.537 2.015-2.024 4.318-2.308 1.385 1.896.997 4.533.905 6.98l-.654 3.658c-5.178-4.12-5.605-5.594-11.61-2.623 1.275-2.953 4.104-4.429 7.04-5.707"/><path fill="#f5cb31" d="M686.007 418.459c2.043-1.537 2.015-2.024 4.318-2.308 1.385 1.896.997 4.533.905 6.98zM659.632 372.738c5.759 3.688 12.643 10.077 17.867 14.699l-14.136 12.036c-4.438-2.936-13.563-11.038-17.816-14.766 4.45-3.997 9.476-8.083 14.085-11.97M604.2 389.15c4.992 3.383 10.804 8.583 15.477 12.55l-16.023 13.8c-4.888-2.724-11.263-8.984-15.518-12.935 5.282-4.855 10.45-8.942 16.065-13.415M663.198 438.657c5.1 3.653 9.615 7.77 14.288 11.89L660.81 464.34c-4.697-2.891-9.904-7.98-14.003-11.788a1065 1065 0 0 1 16.39-13.895M680.032 390.096l9.484 6.628c.529 4.156 1.226 8.132 1.943 12.258-2.825 2.824-6.367 7.76-10.484 5.391l-14.788-12.108c4.419-4.1 9.27-8.192 13.845-12.169M643.948 455.172c4.82 3.666 9.402 7.936 13.895 11.98-4.655 4.19-9.806 8.294-14.674 12.294-4.035-1.43-10.902-8.284-14.292-11.448zM637.209 361.208l9.61.602c3.24 2.656 6.498 5.64 9.64 8.423-3.797 3.442-7.897 6.913-11.777 10.3-1.547.979-.91.703-2.911.802-5.043-1.84-10.468-8.003-14.312-11.892 2.834-2.709 6.659-5.692 9.75-8.235M606.069 453.476c5.49 3.965 11.853 9.875 16.936 14.452-2.386 2.558-4.78 4.597-7.412 6.902-7.264-3.528-12.65-8.361-18.22-13.847 2.988-2.837 5.504-4.919 8.696-7.507M680.082 453.222c2.089.76 3.404 2.109 5.096 3.531-4.532 6.19-9.077 10.98-15.561 15.4l-6.11-4.704c5.348-5.147 10.785-9.578 16.575-14.227M616.273 365.937c2.184.703 3.319 1.935 5.043 3.41l-16.947 14.537c-1.638-1.19-3.598-2.839-5.218-4.123 6.327-6.702 9.19-8.75 17.122-13.824M588.293 408.26c2.956 1.056 9.86 7.421 12.59 9.807l-6.09 5.343c-2.224 1.996-4.136 3.45-6.542 5.257-.845-7.847-.865-12.584.042-20.407"/><path fill="#36a14e" d="m677.253 322.843.439.82c-7.857 7.906-9.99 12.614-19.866 17.64l-.392-.677c-.756-10.225 11.206-15.41 19.819-17.783M602.916 323.745c6.402.736 10.217 2.607 15.92 5.18 2.56 3.86 4.06 8.75 5.312 13.119-7.478-2.633-15.36-12.52-21.232-18.3"/><path fill="#f5cb31" d="M665.557 367.464c4.628.844 14.133 9.029 15.845 13.205.848 2.067.088 2.868-.714 4.656-4.254-3.721-16.15-11.128-16.916-15.694zM589.082 439.653c5.796 3.185 9.517 6.465 13.5 11.48l-3.872 3.882c-1.771 1.601-1.304 1.723-3.16 1.813-3.842-3.159-5.785-12.469-6.468-17.175M625.945 470.822c2.443 1.338 7.932 5.145 8.923 7.63l-.603.788-2.331.049c-4.505-.623-8.01-1.731-12.342-2.976zM660.548 470.023c1.643.63 4.103 2.885 5.54 4.08l-8.696 3.403c-1.793.485-2.805.983-4.51.385l-.005-1.164c2.055-2.789 4.844-4.61 7.67-6.704M597.032 382.765c1.016.725 3.408 2.863 4.46 3.755l-7.046 5.682c-1.291 1.102-.811 1.032-2.2 1.085-.395-3.117 2.99-7.826 4.786-10.522M653.913 362.908c4.13.64 5.904.409 8.1 3.92l-2.555.172c-2.612-.728-3.693-2.19-5.545-4.092M687.442 446.998l.802.758c.26 2.086-1.005 3.53-2.19 5.313-.676-.72-.961-1.35-1.425-2.193.459-2.122 1.02-2.092 2.813-3.878"/><path fill="#1e1d1d" d="M416.81 550.907c9.884-1.307 17.329.643 26.492 3.599q-.161.667-.331 1.333c-7.347 28.709-26.093 40.93-54.996 33.122l1.435 8.06c49.178-11.84 71.365 33.156 58.836 73.958-6.425 21.28-21.312 37.583-43.08 44.899-8.48 1.423-17.91 2.755-25.196.312-5.288-1.773-7.889 1.865-20.554 1.065-18.274-3.394-24.168-13.155-32.296-26.287-11.281-22.161-13.792-33.747-11-52.418 2.968-18.92 13.943-36.186 33.218-41.442 9.859-2.69 18.018-1.415 27.753.204-5.713-17.928-9.504-16.34-16.543-28.976 11.279-15.222 16.425-4.977 23.334 6.61 9.127-14.284 15.257-21.474 32.929-24.04"/><path fill="#ef8b45" d="M612.736 595.505c4.067-.578 9.917.197 13.865 1.224 28.612 7.44 35.751 40.75 28.893 65.824-8.495 31.057-41.779 53.129-66.111 43.516-34.167 8.952-45.517-11.767-57.212-44.748-4.219-20.17-1.61-44.45 16.401-57.752 12.863-9.502 26.23-7.99 41-5.64-14.246 11.744-23.283 21.626-27.027 40.467-1.21 6.088-1.867 32.94 5.165 34.002 1.995-2.506-.717-14.407-1.1-18.48a55.84 55.84 0 0 1 10.56-38.501c9.362-12.662 20.552-17.681 35.566-19.912" style="fill:url(#f)" transform="translate(-210.642 3.974)"/><path fill="#faf9fa" d="M347.31 611.485c2 .62 2.45.67 3.73 2.286.27 2.599-1.494 3.639-3.54 5.535-6.531 6.052-9.131 10.805-11.87 19.16-2.007-.31-2.232-.411-3.907-1.563-4.97-8.056 9.729-20.967 15.588-25.418M330.873 642.088c6.21 1.198 5.657 4.789 3.544 9.408-5.965.019-4.93-5.605-3.544-9.408"/><path fill="#36a14e" d="M415.92 555.387c7.69-.938 14.479.41 22.069 1.53-4.595 16.503-11.48 25.43-28.15 30.13-39.21 5.32-20.063-25.632 6.08-31.66"/><path fill="#70482b" d="m365.528 568.168 5.427-4.335c4.042 4.072 5.93 7.535 8.572 12.453-1.377 3.445-1.016 3.42-5.172 3.468zM382.437 583.675c1.1 4.69 2.372 8.228 1.122 12.93l-.84.499c-2.782-1.907-4.05-6.988-5.114-10.245 1.43-1.358 3.114-2.194 4.832-3.184"/><path fill="#5d351a" d="m379.527 576.286 2.91 7.389c-1.718.99-3.401 1.826-4.832 3.184l-3.25-7.105c4.156-.048 3.795-.023 5.172-3.468"/><path fill="#faf9fa" d="M796.377 82.866c2.807 1.096 10.712 3.86 12.39 5.802l-.491.894c-4.278 1.187-8.009 2.972-11.513-.27-1.092-2.286-.674-3.895-.386-6.426"/><path fill="#1e1d1d" d="M394.476 291.286c4.637.925 13.185 4.507 10.251 9.604-8.65 15.031-10.776 22.347-12.864 39.784 9.404 2.28 12.313 4.742 17.984 12.131 6.696-8.85 15.36-13.786 26.655-10.99a23.6 23.6 0 0 1 14.81 11.304 25.1 25.1 0 0 1 2.418 19.391c-2.334 7.987-7.486 11.977-14.374 15.732 5.588 13.846-1.588 24.675-13.778 31.216 2.16 16.196-.818 24.924-16.725 31.777.84 6.564 1.215 11.308-1.963 17.488-5.706 11.095-20.406 16.354-31.534 10.185-6.755-3.745-9.538-9.009-11.586-16.206-.817-4.499-.487-7.069.207-11.537-14.28-5.77-21.37-15.785-16.66-31.383-12.967-8.566-18.344-16.108-12.978-32.035-10.86-8.855-13.072-12.75-13.224-26.988-2.454-.58-4.922-.918-6.882-2.45-1.699-2.497-.212-6.335-1.165-6.886-10.587-6.126-16.455-13.314-24.327-22.503 9.48-8.93 16.93-13.19 28.3-19.072 2.613-1.147 1.727-2.978 2.49-4.486 3.704-7.32 25.237-2.798 31.253-.736 14.87 5.097 15.735 13.207 21.226 24.793 9.183-.489 10.462-30.509 21.902-37.78zm-22.852 45.45c-.899 2.756-4.916 13.57-4.675 15.541l.611.054c4.227-4.555 6.398-7.07 12.013-10.047-.35-2.664-.432-8.927-1.324-10.303z"/><path fill="#36a14e" d="M294.628 329.21c9.825-8.11 16.621-11.439 27.981-16.853.748-.357 1.081-3.047 1.171-3.988l.052-.576c2.442-2.202 9.214-2.48 12.486-2.276 18.665 1.17 27.244 10.806 31.795 27.818-17.338.098-33.6-1.918-50.792-3.587-1.827-.178-5.39.125-6.825 1.307 3.93 4.327 48.5 6.817 56.753 6.863-1.342 3.385-2.706 7.024-4.179 10.332-13.57-8.903-29.019-10.167-38.636 5.274-.948 2.298-1.676 3.028-4.022 3.171-2.52-1.944-1.855-3.74-1.283-6.469-11.113-8.698-15.02-8.739-24.5-21.017"/><path fill="#32954d" d="M319.13 350.226c2.17 1.99 2.512 2.372 5.304 3.298-.948 2.298-1.676 3.028-4.022 3.171-2.52-1.944-1.855-3.74-1.283-6.469"/><path fill="#8ec04b" d="M386.961 345.384c10.872-.988 20.515 6.954 21.633 17.816s-6.707 20.601-17.55 21.85a19.93 19.93 0 0 1-18.384-8.06 19.94 19.94 0 0 1-2.055-19.97 19.94 19.94 0 0 1 16.356-11.636"/><path fill="#faf9fa" d="M378.536 351.223c2.965.354 3.666.414 4.807 3.006-.195 2.457-1.678 4.04-3.149 6.046l-2.61-.276c-1.865-1.356-1.369-.612-1.926-2.76.44-2.819 1.243-3.686 2.878-6.016"/><path fill="#8ec04b" d="M342.478 346.063c10.903-1.723 21.123 5.768 22.765 16.687s-5.924 21.085-16.852 22.645c-10.813 1.544-20.847-5.926-22.47-16.73-1.626-10.805 5.768-20.896 16.557-22.602"/><path fill="#faf9fa" d="M336.016 351.468c2.826.712 4.04.633 4.678 3.71-.565 2.432-2.27 3.925-3.969 5.79-2.697-.288-3.32-.779-4.18-3.113.365-2.745 1.781-4.178 3.471-6.387"/><path fill="#8ec04b" d="M425.856 345.826c9.616-.85 18.313 1.698 22.723 11.041a19.87 19.87 0 0 1 .621 15.556c-2.43 6.436-6.959 9.517-12.897 12.252-12 1.816-18.524-1.652-24.048-12.282.58-6.087.533-8.567.014-14.53 4.28-7.226 6.004-8.669 13.587-12.037"/><path fill="#faf9fa" d="M420.381 350.704c.82.07 2.301.367 3.17.516 3.828 3.136 1.051 5.827-1.287 9.185-3.615-.55-4.61-.449-5.328-4.082.68-2.787 1.53-3.49 3.445-5.619"/><path fill="#8ec04b" d="M383.657 439.213c10.361-1.427 19.93 5.781 21.421 16.136 1.49 10.354-5.658 19.97-16 21.524-10.433 1.567-20.148-5.658-21.65-16.103-1.505-10.444 5.778-20.117 16.23-21.557"/><path fill="#faf9fa" d="M377.693 443.951c2.831 1.008 3.486 1.34 3.927 4.15-.58 2.483-2.278 4.057-3.966 6-2.997-1.21-3.72-1.512-4-4.584.804-2.533 2.186-3.656 4.04-5.566"/><path fill="#8ec04b" d="M363.56 408.797c11.015-.888 26.013 5.301 25.52 18.978-.28 7.727-12.302 8.39-19.127 13.175l-4.899 6.02c-5.625-2.382-10.259-5.327-13.206-10.888a18.3 18.3 0 0 1-1.243-14.05c2.241-7.06 6.905-10.065 12.955-13.235"/><path fill="#faf9fa" d="M360.196 413.66c2.774.914 3.613 1.203 4.322 3.895-.417 2.238-2.338 4.013-3.878 5.765-2.735-.83-3.34-1.077-3.95-3.707.432-2.426 1.973-4.003 3.506-5.954"/><path fill="#8ec04b" d="M390.836 417.853c-1.194-2.652-1.169-1.68-.747-4.072 5.71-6.77 18.436-6.654 25.18-.848a20.07 20.07 0 0 1 6.79 13.668 20 20 0 0 1-5.063 14.685c-2.803 3.187-5.442 4.425-9.132 6.343-5.638-6.967-7.657-9.415-16.214-12.836.326-3.137 1-8.166.97-11.169z"/><path fill="#faf9fa" d="M390.836 417.853c1.587-2.128 2.074-3.1 4.506-4.164 2.408-.04 1.508-.335 3.401 1.063 1.3 5.368-2.123 6.486-6.123 8.872z"/><path fill="#8ec04b" d="M410.022 378.515c3.325 3.89 3.75 4.68 8.185 7.324 8.824 5.262 19.141.332 19.286 12.088-2.5 9.308-5.05 12.691-13.386 17.935-7.372-7.792-8.832-8.762-19.043-11.896.02-3.259.141-7.1-.025-10.308l-3.316-7.786c2.402-2.189 5.795-5.472 8.3-7.357"/><path fill="#faf9fa" d="M405.04 393.658c0-4.574-.71-9.414 5.434-9.39q1.001.01 2 .087c-.749 5.712-.929 8.46-7.435 9.303"/><path fill="#8ec04b" d="M370.526 382.246c2.41 1.715 5.837 4.075 8.685 4.766 15.087 3.66 22.67-3.37 21.274 17.308-4.312 1.141-6.044 1.574-10.132 3.607l-3.589 2.286c-2.804.068-5.295-2.84-7.654-3.528-4.934-1.436-11.47-1.1-15.979-3.704-5.242-5.607 3.666-16.493 7.395-20.735"/><path fill="#faf9fa" d="M371.011 385.424c2.816.6 3.74.907 5.172 3.001.224 2.304-.787 3.5-1.975 5.462-3.09-.21-4.25.145-5.644-2.759.056-2.162 1.323-3.845 2.447-5.704"/><path fill="#8ec04b" d="M348.014 389.85c7.244-.99 9.77-2.879 15.387-7.079-5.408 9.843-6.173 12.655-4.534 23.307-4.79 3.318-6.485 5.151-10.458 9.285-8.787-5.502-21.213-25.914-4.52-25.8z"/><path fill="#faf9fa" d="m343.888 389.563 4.126.286c1.717 1.791 1.636 2.288 1.262 4.432-1.242 1.744-1.492 1.838-3.562 2.435-2.2-.403-1.428.043-2.888-1.702-.465-2.049.321-3.497 1.062-5.45"/><path fill="#70482b" d="M395.436 295.57c1.997 1.077 3.24 1.517 4.574 3.347.315 5.18-6.944 13.57-8.618 19.158-2.324 7.765-2.369 15.267-3.858 23.183l-2.777-.69c-8.624-6.526 4.988-37.479 10.68-44.999"/><path fill="#1e1d1d" d="M114.976 291.497a27 27 0 0 1 2.254-.18c10.482-.354 14.06 23.054 18.597 29.97 1.827 2.786 4 4.645 6.406 6.891 1.582-24.447 24.4-37.572 48.032-33.523 2.166.371 1.564 5.028 3.594 6 11.331 5.424 21.271 7.548 31.078 15.984-6.93 11.286-13.572 18.965-23.938 26.728-.498.373.38 4.542.07 6.183-1.895 3.466-7.404 4.898-11.15 6.301 1.663 16.11-.795 18.966-11.958 30.406 2.988 15.883.472 21.204-11.934 31.441.966 16.123.063 25.152-16.567 31.718 1.456 9.63.921 17.404-6.918 24.315a23.1 23.1 0 0 1-17.215 5.782 23.02 23.02 0 0 1-15.919-8.225c-5.64-6.894-5.645-13.402-4.81-21.557-17.453-7.714-17.04-14.58-17.845-31.973-12.834-8.708-18.037-15.124-12.963-31.3-8.069-7.5-14.43-14.45-12.337-26.499A23.65 23.65 0 0 1 71.54 344.36a24.77 24.77 0 0 1 18.94-3.634c7.77 1.648 11.634 5.888 15.763 12.114 4.61-8.063 7.754-9.97 15.967-13.046-.98-19.095-6.17-25.602-13.398-42.31-.815-1.882 4.636-5.056 6.164-5.987m20.222 48.984c5.057 2.484 10.856 8.068 14.227 8.568-.973-5.055-4.29-11.012-6.605-15.815l-7.777-4.493c.054 3.867.163 7.885.155 11.74"/><path fill="#8ec04b" d="M181.945 298.32c2.918-.087 2.625-.5 4.901.741.297 1.961.477 4 2.47 4.775 11.407 4.443 19.548 6.956 29.922 13.731-7.65 11.51-13.649 16.787-24.904 24.508l2.663 6.618c-12.989 5.253-27.917 8.823-39.755-1.007-3.178-2.639-12.079-10.204-7.967-14.68 17.624-1.564 40-3.814 55.556-12.052-17.712-.293-40.479 6.823-58.676 8.174 3.112-22.856 14.337-28.552 35.79-30.809"/><path fill="#73408e" d="M81.086 344.988c10.673-2.142 21.068 4.753 23.247 15.422 2.18 10.668-4.677 21.09-15.334 23.308-10.712 2.23-21.196-4.67-23.387-15.393s4.746-21.184 15.474-23.337"/><path fill="#faf9fa" d="M75.388 350.125c3.028.48 3.947.358 4.6 3.36-.715 2.735-2.01 3.8-3.94 5.872-2.678.404-3.318-.285-4.047-2.514.526-3.23 1.386-4.076 3.387-6.718"/><path fill="#73408e" d="M123.217 344.33c10.621-2.559 21.3 4.005 23.815 14.64 2.516 10.633-4.088 21.288-14.729 23.764-10.583 2.462-21.165-4.099-23.667-14.676s4.016-21.186 14.581-23.729"/><path fill="#faf9fa" d="M119.376 348.898c2.874 1.15 3.246 1.401 3.47 4.268-.74 2.425-2.436 3.935-4.162 5.81-2.904-.888-3.483-1.25-3.765-4.086.92-2.686 2.472-3.959 4.457-5.992"/><path fill="#73408e" d="M124.062 437.516c10.271-1.674 19.978 5.225 21.776 15.477 1.8 10.252-4.98 20.045-15.207 21.968a19 19 0 0 1-18.032-6.416 19.02 19.02 0 0 1-3.308-18.856 19.01 19.01 0 0 1 14.771-12.173"/><path fill="#faf9fa" d="M118.274 442.22c2.58 1.061 3.09 1.622 3.574 4.158-.783 2.532-2.592 3.925-4.51 5.78-2.418-1.073-2.902-1.77-3.336-4.152.707-2.438 2.496-3.938 4.272-5.786"/><path fill="#73408e" d="M105.19 407.077c10.46-.903 24.476 5.575 24.555 18.218.055 8.752-12.336 9.272-19.36 14.667l-4.599 5.594c-6.055-3.006-10.648-5.748-13.539-12.39a18.67 18.67 0 0 1-.176-14.75c2.61-6.147 7.25-8.948 13.12-11.339"/><path fill="#faf9fa" d="M101.747 412.05c2.211 1.132 2.683 1.972 3.15 4.14-.486 2.333-2.232 4.028-3.784 5.9-2.962-.99-3.582-1.25-3.909-4.184.912-2.69 2.493-3.883 4.543-5.857"/><path fill="#73408e" d="M130.826 415.51c-.97-2.677-1.01-1.696-.347-3.996 8.614-7.196 19.988-6.997 27.294 1.941a20.3 20.3 0 0 1 4.581 15.132c-.986 8.948-6.729 13.385-14.088 17.383-5.614-6.992-7.426-8.886-15.86-12.459.602-4.81 1.056-7.822.472-12.748z"/><path fill="#faf9fa" d="M130.826 415.51c1.89-1.9 2.731-3.045 5.322-3.69 2.407.404 1.62-.055 3.11 1.577.578 4.64-2.227 6.326-6.38 7.366z"/><path fill="#73408e" d="M149.821 373.974c1.307-5.694-.229-20.534 3.17-23.037l1.847.486 6.502 3.931c10.174 2.975 13.921 2.901 24.387 1.692.488 8.1.66 15.104-5.574 21.372a17.6 17.6 0 0 1-12.857 5.227c-7.964-.127-12.453-4.377-17.475-9.67"/><path fill="#faf9fa" d="M161.34 355.354c-2.815 2.596-5.754 3.71-8.06-.057.11-2.076.205-2.294 1.558-3.874z"/><path fill="#73408e" d="M103.147 403.094c-.318-5.985-.329-17.727 5.92-20.936 2.928-.033 1.754-.309 4.493 1.401l3.934 2.275c8.326 2.248 12.332 1.905 20.49.258 3.565 6.066 3.35 9.377 2.802 16.048-6.08 2.051-9.197 3.714-14.513 7.06-8.468-6.587-12.818-6.895-23.126-6.106"/><path fill="#faf9fa" d="M117.494 385.834c-1.2 3.965-2.685 7.223-7.299 5.845-2.738-4.06.077-5.74 3.365-8.12z"/><path fill="#73408e" d="M142.624 385.914c-.029-3.027 1.427-6.314 4.901-6.265 3.592 2.32 7.687 5.128 11.276 6.991 3.938 2.043 16.192-1.108 17.222 5.171 1.347 8.21-6.4 17.494-12.14 22.031-7.16-7.233-9.094-8.558-18.845-11.343l.045-10.053c-.566-2.097-1.63-4.487-2.459-6.532"/><path fill="#faf9fa" d="M142.624 385.914c1.83-1.618 2.526-2.495 4.997-2.827 1.901.718 1.287.192 2.29 1.991.181 4.154-1.587 5.315-4.828 7.368-.566-2.097-1.63-4.487-2.459-6.532"/><path fill="#73408e" d="M78.066 387.41c6.567 1.144 11.881.676 18.18-1.134.884.21 3.314.715 4.036.985-2.328 6.891-1.894 10.534-.944 17.464-4.238 2.746-7.046 5.645-10.267 9.397-13.004-7.794-14.22-12.424-11.005-26.713"/><path fill="#faf9fa" d="M83.352 388.478q.605-.011 1.211-.007c2.508.02 3.317.027 4.856 1.61.256 2.09-.743 3.342-1.792 5.262-2.112.588-3.127.187-4.672-1.017-.892-2.228-.252-3.565.397-5.848"/><path fill="#70482b" d="M116.12 295.198c9.601.643 19.84 38.474 12.571 45.387-4.947-1.914-3.386-8.856-4.235-13.502-.623-3.412-.148-5.642-1.47-9.177-2.49-6.649-8.472-12.375-9.486-19.389-.145-1.399 1.458-2.318 2.62-3.319"/><path fill="#602f76" d="M96.246 386.276c3.901-3.04 7.944-6.787 11.65-9.564l-7.614 10.55c-.722-.27-3.152-.777-4.036-.986"/><path fill="#1e1d1d" d="M150.475 563.94c-.013-16.602 7.334-22.123 14.706-21.642 4.258 2.618 5.791 7.551 1.926 11.701-5.365 6.325-5.268 5.913-6.196 13.891 16.757 9.485 27.36 18.011 33.199 38.05 5.682 20.067.88 43.77-9.686 61.488-15.579 26.127-43.238 51.685-72.594 60.528-17.837 5.374-36.67-1.17-41.271-20.299-3.064-12.741 1.645-24.959 1.857-37.729-.252-29.029-11.579-49.872 5.339-77.719 9.245-15.22 24.043-24.568 41.193-28.623 2.368-.56 15.963-2.772 27.141-.703z"/><path fill="#f5cb31" d="M88.245 600.57c29.247-37.116 92.455-25.289 98.627 24.31 3.38 27.154-13.376 53.714-32.874 71.522-16.309 15.96-65.22 48.195-74.773 7.47-2.364-10.079 2.498-20.792 2.297-30.2-.64-29.903-11.1-45.157 6.723-73.103" style="fill:url(#g);fill-opacity:1" transform="matrix(1.08411 0 0 1.09264 -11.145 -65.474)"/><path fill="#dd3839" d="M84.523 590.73c31.707-40.554 100.232-27.631 106.923 26.563 3.663 29.67-14.501 58.69-35.64 78.147-7.976-3.192-11.057-6.421-9.617-15.709 1.499-9.677 6.28-19.135 7.449-28.95 2.773-23.307-5.662-49.7-27.84-60.587-14.516-7.124-26.854-4.453-41.275.536"/><path fill="#70482b" d="M164.482 546.43c.347 1.226 1.82 3.054.707 3.986-5.123 5.205-6.067 7.22-7.861 13.421l-1.228 1.941-1.197-.228c-1.747-9.743.35-12.385 5.362-18.286 1.138-1.284 2.11-2.687 4.217-.833"/><path fill="#1e1d1d" d="M858.58 65.65c18.69-1.2 29.98 5.826 37.94 22.29 12.89-18.793 36.01-25.239 54.31-9.827a34.57 34.57 0 0 1 12.39 24.417c.83 11.481-3.5 20.593-10.89 28.996 3.55 3.594 6.86 7.204 9.04 11.826 10.23 21.688-.79 45.411-23.92 51.52-20.56 4.611-34.66-6.535-42.27-24.774-6.44 7.807-12.49 13.527-22.85 15.553a36.83 36.83 0 0 1-27.99-5.92 34.9 34.9 0 0 1-14.57-22.96c-2.06-12.287 1.81-20.522 8.61-30.048-5.21-6.305-8.95-11.489-10.19-19.879-3.06-20.854 9.74-38.066 30.39-41.194m31.49 59.131c3.99 4.747 6.7 9.672 9.77 15.047.26-.033.8-.047.96-.172l4.85-5.955c-4.37-4.83-7.87-10.448-11.55-14.49z"/><path fill="#36609c" d="M928.16 128.813c17.31-.893 32.07 12.418 32.97 29.732.89 17.315-12.42 32.077-29.73 32.975-17.31.897-32.07-12.415-32.97-29.732-.89-17.317 12.42-32.08 29.73-32.975"/><path fill="#1e1d1d" d="M937.14 133.625c3.46 1.512 3.77 4.424 4.75 7.811l8.51 6.593c-2.34 2.034-5.3 4.185-7.8 6.097-.83 2.463-1.56 5.454-3.39 7.185-2.07.605-1.17.607-3.6-.494-7.62-6.32-11.15-1.877-14.9-6.189-.35-1.775.52-3.737 1.28-5.477 1.53-3.5-1.51-5.939-.79-9.418.63-3.046 8.34-1.468 10.89-2.745 1.86-.934 3.51-2.209 5.05-3.363"/><path fill="#36609c" d="M1248.25 395.869c1.03.243 3.01 4.665 6.96 7.598-2.08 2.357-4.19 6.01-6.41 7.803l-.89-.581c-4.03-2.563-4.78-1.414-8.28-3.322-1.2-2.374-.23-5.723.08-8.897 2.63-.57 5.92-1.745 8.54-2.601" style="fill:#244169;fill-opacity:1" transform="translate(-312.52 -255.507)"/><path fill="#36609c" d="M861.6 119.653c17.21-1.79 32.62 10.7 34.44 27.912 1.82 17.213-10.65 32.646-27.85 34.492-17.25 1.85-32.72-10.649-34.54-27.9-1.82-17.253 10.7-32.71 27.95-34.504"/><path fill="#1e1d1d" d="M859.73 123.456c3.95.64 5.87 2.886 8.69 5.596 2.73.312 4.65.391 7.19 1.468 2.27 2.596-2.42 17.195-2.99 17.793-2.36.814-5.71.027-8.29-.359-3.13 1.738-5.41 3.823-8.84 2.51-1.55-1.77-1.51-4.58-1.75-7.01-2.6-2.996-6-4.898-5.06-8.962 1.73-2.06 4.7-2.754 7.31-3.65z"/><path fill="#36609c" d="M1174.35 384.771c3.58 2.607 5.7 3.696 9.59 5.717-1 2.914-.86 5.876-2.27 8.062-2.4 1.29-2 .818-5.26.372l-5.05 2.387-3.36-8.241c2.84-3.176 4-4.804 6.35-8.297" style="fill:#244169;fill-opacity:1" transform="translate(-312.52 -255.507)"/><path fill="#36609c" d="M923.96 74.088c9.21-.552 17.72 1.644 24.71 7.887a30.9 30.9 0 0 1 10.24 21.411c.58 10.826-3.85 17.954-10.77 25.528-6.61-3.03-10.12-3.957-17.32-4.5-8.91.37-13.7 2.376-21.41 6.171-5.71-4.81-9.77-9.448-11.79-16.84a31.8 31.8 0 0 1 3.07-23.93c5.47-9.492 13.27-13.034 23.27-15.727"/><path fill="#1e1d1d" d="M922.86 80.176c4.02.816 5.73 1.603 9.46 3.17 3.73-1.698 5.59-3.295 9.27-1.29 1.56 2.037 1.57 4.713 1.89 7.334.84.766 1.66 1.544 2.47 2.336 1.99 1.954 2.23 2.366 2.25 4.76-1.76 2.535-5.3 3.536-7.88 5.972l-4.37 7.718c-2.18-2.299-4.74-5.606-6.81-8.112-2.83-.476-6.14-.669-8.28-2.422-1.07-3.465 1.98-7.49 1.88-10.407-.17-4.838-1.46-3.822.12-9.059"/><path fill="#36609c" d="M1249.23 342.396c.27-.124 1.08-.108 1.44-.122 3.95 8.058 6.09 10.238-3.71 14.598-3.01-3.33-4.66-3.647-8.84-4.895.8-3.114 1.83-6.311 2.77-9.398 2.77.078 5.56-.072 8.34-.183" style="fill:#244169;fill-opacity:1" transform="translate(-312.52 -255.507)"/><path fill="#36609c" d="M857.59 70.143c9.1-.492 16.24-.059 24.1 5.505a27.12 27.12 0 0 1 11.28 18.385c1.59 10.557-.64 19.283-6.8 27.771a47.9 47.9 0 0 0-19.3-6.534c-11.29 1.007-15.49 2.275-25.1 8.305-4.03-3.95-7.02-8.518-8.66-13.937a30.7 30.7 0 0 1 2.61-23.527c5.2-9.513 12.06-13.147 21.87-15.968"/><path fill="#1e1d1d" d="M852.25 73.523c3.57.957 6.56 3.12 9.66 5.115 2.56-.47 4.79-1.126 7.26-.373 4.67 4.171-1.71 6.434 1.35 11.974.93 1.692 1.31 3.57.51 5.471-2.16 1.488-6.45.992-9.47 1.832-.9.808-1.82 1.601-2.74 2.38-2.13 1.76-2.73 2.112-5.14 1.883-2.09-2.788-10.44-11.083-10.28-13.964 1.15-2.393 3.47-3.35 5.82-4.705z"/><path fill="#36609c" d="M1167.36 334.824c2.71 1.765 5.88 3.093 9.1 3.479l.54.061c.48 2.763 1.52 6.444 1.27 9.084-1.9 1.533-2.87 1.045-5.78 1.187-1.74 1.453-2.3 1.977-4.41 3.012a689 689 0 0 1-5.48-7.445c2.5-3.804 3.25-4.922 4.76-9.378" style="fill:#244169;fill-opacity:1" transform="translate(-312.52 -255.507)"/><path fill="#1e1d1d" d="M638.473 545.277c6.033 2.247 8.917 5.237 11.132 26.915l-.052 6.945c26.21 9.011 19.96 24.309 28.13 44.393 5.77 14.174 17.94 25.353 20.67 41.876 2.68 16.21.28 27.191-8.55 40.755a47.45 47.45 0 0 1-27.67 18.015c-10.91 2.493-32.85 2.286-43.37-.388-36.84-9.356-45.64-52.159-25.86-81.06 2.9-4.243 10.58-15.567 11.87-20.113 6.31-22.39 5.42-38.972 32.84-44.369-1.02-7.71-2.76-11.616-5.81-18.679-3.67-8.487-1.88-12.001 6.67-14.29z"/><path fill="#8ec04b" d="M634.293 583.448c12.21-.71 24.35.352 30.2 12.763 5.48 10.615 5.28 27.171 12.67 36.909 15.33 20.224 26.42 44.554 10.1 68.991a43.91 43.91 0 0 1-28.74 18.955c-7.9 1.506-5.57-2.891-10.9-6.154-5.8-1.354-11.3-1.853-15.5 2.351-.81.545-3.31 2.919-4.25 3.07-15.19 2.465-33.52-14.198-37.73-26.865-5.68-17.079-3.7-30.996 4.72-45.957 3.67-6.109 10.1-13.253 12.76-19.839 8.54-21.189 1.7-34.216 26.67-44.224"/><path fill="#faf9fa" d="M608.803 643.447c1.97.745 2.22.853 3.66 2.387.95 4.844-5.09 8.08-6.56 11.683-2.13 5.233-2.38 10.908-4.5 16.673-12.59-5.116 2-24.905 7.4-30.743"/><path fill="#70482b" d="M638.603 549.743c4.85 2.035 8.82 22.814 6.51 27.622-.73 1.525-1.54 1.439-3 1.972-.73-9.142-4.71-17.873-8.11-26.353.74-1.608 2.87-2.353 4.6-3.241"/><path fill="#1e1d1d" d="M406.091 30.393c.78-.066 2.773-.184 3.54-.149 9.205.42 6.384 17.023 11.091 26.328 6.035 11.933 13.71 8.89 22.457 19.318 10.975 13.086 12.878 34.317 11.636 50.57a99.91 99.91 0 0 1-34.704 68.59c-22.509 19.265-49.197 27.699-78.575 25.373-10.148-1.69-31.035-8.082-36.499-18.712-1.413-2.747.774-8.11 3.272-10.191 19.277-16.037 46.513-19.37 66.472-34.273 12.682-9 20.995-24.272 22.683-39.8 2.07-19.04 1.121-28.158 9.245-45.92-1.919-4.557-4.435-10.484-6.782-14.71-8.518-15.336-13.526-19.664 6.164-26.424"/><path fill="#f5cb31" d="M401.406 49.52c3.082-1.301 7.731-2.81 10.99-3.972 2.71 7.86 4.996 13.768 8.903 21.082 17.257 7.91 19.672 10.288 26.814 27.995 1.752 6.989 5.124 27.189 2.597 34.022l-3.219 16.002c-1.984 7.662-5.737 17.232-10.316 23.7-7.007 10.43-10.142 14.102-18.916 22.9-7.838 6.83-20.51 14.889-30.373 18.307a152 152 0 0 1-20.13 5.317c-19.799 3.644-36.962 1.452-53.662-10.013.805-2.348 2.471-6.001 2.323-8.517-.082-1.403-1.524-2.646-.586-4.062 8.461-12.771 57.318-18.082 75.634-45.895 12.06-18.314 9.157-35.073 12.923-55.226 1.32-7.056 3.966-13.377 6.802-19.944z"/><path fill="#70482b" d="m387.886 209.556-.027-2.215c-.078-11.051 9.865-21.191 21.07-21.581 4.23-.147 6.632 2.603 9.33 5.49-7.838 6.83-20.51 14.888-30.373 18.306M448.113 94.625c1.752 6.989 5.124 27.189 2.597 34.022-2.495-8.025-15.148 1.762-11.148-18.921-4.273-10.911-2.769-13.087 8.551-15.101M437.175 168.35c-2.91-1.136-5.202-2.225-7.016-4.827a10.39 10.39 0 0 1-1.683-7.742c1.658-9.29 10.463-12.74 19.015-11.132-1.984 7.662-5.737 17.232-10.316 23.7"/><path fill="#1e1d1d" d="M415.235 67.84c3.976 1.375 5.096 7.06 5.648 10.805 4.141 28.125 3.371 58.012-14.353 81.72-19.937 26.668-53.189 34.24-84.269 38.95-1.325-.172-1.868-.603-3.013-1.261l-.193-1.04c.83-.978 2.202-1.905 3.462-2.12 24.153-4.111 45.274-8.167 65.661-22.87 25.112-18.108 32.862-48.275 30.014-77.98-.749-7.817-4.238-18.036-3.076-25.465z"/><path fill="#70482b" d="M351.961 203.038c4.474.19 13.36 2.71 12.022 8.52-1.675 1.498-2.646 1.525-4.8 1.944-5.103.095-8.294.573-12.488-2.418-1.087-1.964-.925-1.051-.42-3.498 1.718-2.398 3.155-3.041 5.686-4.548"/><path fill="#8b5e1a" d="M367.405 196.734a3.445 3.445 0 1 1-1.269 5.924 3.444 3.444 0 0 1 1.27-5.924"/><path fill="#70482b" d="M408.14 34.271c1.93.016 1.183-.145 2.872.837 1.216 2.558 1.105 1.498.674 4.044-2.719 3.59-7.558 4.73-11.838 6.255l-1.01-.082c-1.955-1.222-2.665-3.36-3.739-5.523 4.954-2.428 7.845-3.735 13.041-5.53"/><path fill="#1e1d1d" d="M847.5 299.409c3.757-.723 12.534.499 16.084 1.69 13.5 4.53 20.323 13.377 26.514 25.299 3.146-4.601 10.013-16.18 16.19-14.994l.458 1.202c-1.66 4.387-9.464 9.724-11.905 15.818-6.864 17.146 16.41 35.554 25.294 48.664 6.505 9.598 7.832 11.9 12.145 22.734 9.616-5.58 19.815-8.426 29.456-.824 13.987 10.273 16.571 40.268 4.846 52.799-24.055 25.71-62.935 11.937-66.324-23.096-.702-7.257 1.216-14.122 5.821-19.464 6.102-7.076 13.108-7.638 21.701-8.133-7.184-18.54-17.57-28.586-29.958-43.623-3.84-5.252-6.114-10.373-8.752-16.262-2.725 7.852-5.64 16.574-8.874 24.164-4.948 11.619-10.811 22.598-14.254 34.856 10.317-.461 23.956 1.969 27.7 12.334 11.658 32.29-15.778 61.985-47.955 50.655A34.03 34.03 0 0 1 825.9 445.38c-8.063-17.637-3.905-48.2 20.6-48.801 5.4-.133 9.65 1.726 14.53 3.727 3.354-12.277 11.317-28.17 16.191-40.198 3.494-8.62 5.63-14.744 8.307-23.592-5.587 1.717-8.362 2.823-14.283 3.344-18.38 1.616-32.75-8.933-40.757-24.77-1.547-3.06-3.835-7.152-2.739-10.737 3.668-3.966 14.317-4.436 19.75-4.945"/><path fill="#dd3839" d="M844.288 400.884c5.79-.127 13.333 3.475 18.126 3.473 21.215-.01 34.277 6.24 28.955 30.1-2.305 10.335-8.66 18.766-18.231 24.48a18 18 0 0 1-1.215.503c-42.443 15.4-63.52-46.574-27.635-58.556"/><path fill="#faf9fa" d="M841.854 407.159c8.028 1.544-1.12 12.827-3.606 17.023-1.305-.608-1.953-1.154-3.116-2.011-3.244-5.602 3.03-11.256 6.722-15.012"/><path fill="#dd3839" d="M944.41 398.858a48 48 0 0 1 3.797-.118c26.344.275 37.834 63.29-17.356 61.747-18.817-4.87-38.065-35.305-18.562-51 1.844-1.485 15.333-3.605 18.665-4.683 5.03-1.627 8.594-3.45 13.455-5.946"/><path fill="#faf9fa" d="M914.75 414.508c1.058.394 1.84.867 2.82 1.41 2.658 4.177.915 13.569-1.644 17.41-7.428-5.1-4.694-12.258-1.176-18.82"/><path fill="#36a14e" d="M846.208 303.973c20.501-3.063 32.908 9.865 40.887 26.804-4.339 2.178-8.283 3.277-12.97 4.305-23.803 2.444-33.698-8.305-42.26-28.645 5.392-1.21 8.856-1.826 14.343-2.464"/><path fill="#1c1b1b" d="M890.37 553.413c3.57-.234 10.57-1.36 12.08 2.63 2.55 7.04-6.395 18.719 5.87 20.344 10.17 1.503 19.94 3.54 28.47 9.618 9.91 7.055-.54 8.146 8.52 14.68 23.99 17.312 10.19 52.713-1.24 73.254-9.01 16.184-26.91 42.393-45.64 47.96q-.398.056-.8.098c-30.908 3.16-90.94-92.414-55.827-119.175 10.735-8.182 3.463-7.9 8.29-13.887 6.3-7.81 24.215-13.626 34.208-12.494 8.138.188-.79-14.276 6.069-23.028"/><path fill="#d2353b" d="M906.03 606.92c5.82 3.502 16.95 9.71 23.69 7.292 3.18-3.395-.08-6.438.07-12.225.71-1.177.8-1.797 2.31-1.994 9.75-1.279 19.07 11.911 20.94 19.668 5.08 21.056-7.19 42.053-17.02 59.601-7.01 10.86-27.48 41.766-43.745 38.498-13.784-2.768-29.9-24.192-37.08-35.719-10.605-17.024-23.153-40.566-18.714-61.569 2.345-10.397 7.922-15.247 16.29-20.55 2.169-.077 3.875-.298 5.898.541 2.856 6.328-4.91 21.401 14.714 11.637 3.28-1.63 6.316-3.5 9.44-5.405 9.539 14.487 13.946 15.293 23.207.225"/><path fill="#f7d14a" d="M938.19 626.96c7.3 2.06 5.99 6.501 3.23 11.875-7.19.351-5.14-7.909-3.23-11.875M862.636 651.703c6.963 2.756 5.696 6.323 2.638 11.732-7.346-2.014-5.421-6.82-2.638-11.732M893.512 696.936c6.89 3.063 5.328 6.704 2.93 12.312-7.073-2.84-5.982-6.375-2.93-12.312M878.546 627.652c7.485 1.35 6.27 5.563 3.722 11.124-7.16.123-5.43-6.872-3.722-11.124M847.94 627.741c7.572 1.321 6.25 5.72 3.926 11.231-7.227-1.453-5.897-5.909-3.925-11.23M877.865 676.295c7.394 1.445 6.458 5.243 3.775 10.901-7.166.1-5.497-6.568-3.775-10.9M908.16 676.177c7.2 1.676 5.79 5.998 3.75 11.28-7.3-1.318-5.84-6.074-3.75-11.28M907.67 627.645c7.32 1.25 5.55 5.941 4.09 11.371l-.59-.157c-6.48-1.756-5.47-6.14-3.5-11.214M923.92 651.906c6.62 2.39 5.65 6.241 3.05 11.64-7.02-2.218-5.45-6.369-3.05-11.64M893.076 651.89c6.696 2.504 5.653 5.888 3.36 11.522-7.001-1.68-5.338-6.475-3.36-11.523"/><path fill="#78b949" d="M892.055 557.572c3.21.234 3.017-.288 5.14 1.391 2.283 5.16.913 15.72.726 22.044 8.809-.23 35.889 2.498 38.629 11.967-2.46 3.406-11.89 3.013-15.97 2.973 2.5 3.737 6.54 8.173 4.34 12.63-5.42 2.874-16.66-5.84-21.08-9.027-2.35 5.583-4.333 9.125-7.936 13.896-5.062 1.608-9.031-10.25-10.567-13.934-4.081 2.721-18.901 14.041-22.052 7.367.287-4.471 3.233-7.692 5.859-11.347-4.27.314-12.648.878-15.663-2.47.22-1.438.463-2.089 1.795-3.14 10.874-8.579 24.18-9.08 36.799-8.898.352-7.422.066-15.946-.02-23.452"/><path fill="#1c1b1b" d="M143.307 828.225c13.819.328 17.818 3.995 30.588 6.314 10.858 1.971 27.859-4.77 30.996 14.798.84 5.21-3.358 14.17-2.982 18.224 2.364 25.653-1.47 47.888-19.343 67.556-16.128 18.176-36.862 29.99-62.004 31.686-10.14 1.064-22.182-3.146-32.2-4.297-7.347-.843-19.564.057-25.386-4.998-9.522-7.675-1.79-20.284-2.496-26.693-3.193-28.606.497-51.426 20.745-73.975 16.084-17.909 36.354-27.429 62.082-28.615"/><path fill="#f7d14a" d="M133.63 833.847c16.117-.906 23.374 1.89 39.005 4.91 6.573 1.067 17.3.04 23.11 3.761 9.091 6.34.552 18.043.872 23.838 1.127 20.332 2.563 32.798-8.174 51.466-13.676 23.783-33.04 35.755-58.89 43.086-14.625 1.776-25.616-.753-40.02-3.438-8.739-1.63-23.563 2.168-26.325-9.773-1.347-5.85 3.259-14.303 2.718-18.22-3.071-21.97-1.326-40.847 11.51-59.518 13.19-19.87 32.444-31.349 56.194-36.112"/><path fill="#1c1b1b" d="M121.755 845.956c1.79 1.208 1.933 1.851 2.176 3.69-1.679 2.98-13.896 9.33-17.719 12.026a61 61 0 0 0-9.39 8.263c-10.184 11.063-8.505 18.435-16.138 27.817l-2.198-2.165c-2.486-6.281 4.882-16.606 8.406-21.705 8.904-12.887 21.121-20.97 34.863-27.926M381.798 821.902c27.458-2.463 53.772 19.053 61.878 44.155 14.584 45.145-1.421 99.485-53.3 107.122-89.392 2.55-92.62-142.7-8.578-151.277"/><path fill="#845f33" d="M382.98 826.244c11.034-1.64 25.975 4.142 34.966 10.846 31.84 23.75 34.881 78.066 12.239 108.905-9.98 13.583-23.829 20.568-40.316 22.853-36.234.531-59.79-23.671-63.71-58.877-4.487-40.282 13.039-79.28 56.822-83.727"/><path fill="#78b949" d="M379.52 831.755c70.492-6.67 84.774 115.949 12.564 131.414-13.581.532-24.12-.452-35.465-8.879-41.668-30.945-32.976-113.09 22.9-122.535"/><path fill="#f5eeba" d="M382.184 875.38c20.651-1.11 24.05 27.116 12.573 39.21-1.901 1.997-4.293 3.298-6.655 4.648-1.57-.119-3.942-.219-5.389-.602-16.244-4.3-17.856-27.842-7.183-38.495 2.071-2.067 4.2-3.312 6.654-4.76"/><path fill="#72af4c" d="M415.112 896.626c2.58-2.008 5.611-3.403 8.304-.566-.076 1.876-.33 2.43-1.92 3.774l-1.96 1.182-3.407 1.906-.283.96c-.602 2.461-.282 2.678-2.447 4.399l-.095.381-1.365 1.972 1.318.567c-.32 2.705.113 2.635-1.384 4.416-3.747 1.013-5.338-.85-6.185-4.316.216-4.78.292-9.565.216-14.35 2.27-3.995 5.772-2.39 8.709-.505z"/><path fill="#1c1b1b" d="M405.688 911.301c2.438-1.55 3.53-1.595 6.251-.667l1.318.567c-.32 2.705.113 2.635-1.384 4.416-3.747 1.013-5.338-.85-6.185-4.316M413.399 908.28c-3.041-.653-4.482-.516-5.207-3.73 2.11-3.15 4.773-2.314 7.654-.668-.602 2.461-.282 2.678-2.447 4.399M405.904 896.951c2.27-3.995 5.772-2.39 8.709-.505-.527 1.725-.734 1.885-2.109 3.074-3.088.984-4.585-.445-6.6-2.569M415.112 896.626c2.58-2.008 5.611-3.403 8.304-.566-.076 1.876-.33 2.43-1.92 3.774-3.465-.344-4.228-.78-6.384-3.208"/><path fill="#72af4c" d="m364.621 871.579-.237-.457c-1.339-2.633-3.02-4.666-1.395-7.548 2.326-.491 1.741-.294 4.268.669l.92 1.747 1.785-2.5 1.84-.354c.45.31 1.432.941 1.784 1.274 1.784 2.35 3.406 4.471 2.981 7.634-1.805 1.684-2.95.777-4.937-.47-1.623 1.963-1.158 1.275-1.482 4.059.18 1.01.06 1.948 0 2.976l-1.156.88c-2.819.143-3.914-1.224-5.276-3.493-.264-2.424-.333-1.454.803-4.004z"/><path fill="#1c1b1b" d="M364.52 871.992c2.802 1.18 3.282 1.653 5.628 3.64.18 1.012.06 1.95 0 2.977l-1.156.88c-2.819.143-3.914-1.224-5.276-3.493-.264-2.424-.333-1.454.803-4.004M364.621 871.579l-.237-.457c-1.339-2.633-3.02-4.666-1.395-7.548 2.326-.491 1.741-.294 4.268.669l.92 1.747c-.196 3.567-.583 3.665-3.556 5.589M373.586 864.41c1.784 2.35 3.406 4.471 2.981 7.634-1.805 1.684-2.95.777-4.937-.47-.938-4.344-1.387-4.32 1.956-7.164"/><path fill="#72af4c" d="M406.31 932.262c1.43 2.355 3.247 4.735 2.899 7.38l-.923.408c-5.253-1.851-8.642-14.342-4.396-16.962l1.186.6c1.657 1.172 3.04 1.91 3.907 3.77-.16 2.56-.433 2.776-2.674 4.804"/><path fill="#1c1b1b" d="M405.076 923.689c1.657 1.171 3.04 1.91 3.907 3.77-.16 2.56-.433 2.775-2.674 4.803-1.676-1.665-3.107-3.473-3.351-5.851.734-2.039.226-1.302 2.118-2.722"/><path fill="#72af4c" d="M362.526 919.812c1.347 1.255 1.542 1.426 3.245 2.11l.675.884 2.45 3.336c-1.633 2.026-2.99 3.646-4.357 5.872-1.756-1.268-2.272-2.077-3.557-3.75l-.664-.53-1.056-2.585c-.15-.907-.788-2.316-1.156-3.234 1.07-.672 2.413-1.333 3.548-1.933z"/><path fill="#1c1b1b" d="M360.982 928.264c1.745-2.039 3.088-4.482 5.464-5.458l2.45 3.336c-1.633 2.026-2.99 3.646-4.357 5.872-1.756-1.268-2.272-2.077-3.557-3.75M350.995 889.492c1.977.568 2.166.793 3.56 2.327.497 1.784.602 1.169-.012 2.642.41 2.438.71 2.97-.795 4.768-4.312 1.495-7.289-.325-6.114-5.114l.63-1.217c.87-.921 1.924-2.371 2.731-3.406"/><path fill="#72af4c" d="M350.995 889.492c1.977.568 2.166.793 3.56 2.327.497 1.784.602 1.169-.012 2.642-3.178-.635-3.685-.664-6.909-.346l.63-1.217c.87-.921 1.924-2.371 2.731-3.406"/><path fill="#1c1b1b" d="M402.007 869.561c2.74.857 1.657.926 4.105-.08l.423 1.337 1.365 2.75.848.808-.735.92-.546.023c-1.732 2.312-3.587 4.429-6.665 3.503-.998-2.123-.706-1.507-.311-4.142.047-3.159-.122-2.993 1.516-5.119"/><path fill="#72af4c" d="M402.007 869.561c2.74.857 1.657.926 4.105-.08l.423 1.337 1.365 2.75.848.808-.735.92-.546.023c-.555-1.382-.678-1.389-2.005-2.2-2.118-.241-3.06.54-4.971 1.56.047-3.158-.122-2.992 1.516-5.118"/><path fill="#b5d679" d="M408.748 874.376c3.991-2.74 6.044-4.441 10.949-5.07l.659.59c-1.704 4.473-5.649 5.547-8.953 8.284l-2.505-.21-.885-2.673zM359.266 916.336l2.116-.235.272 3.881c-1.135.6-2.478 1.261-3.548 1.933-2.585 1.767-6.228 4.236-9.298 2.1l.245-1.028c2.92-3.013 6.5-4.653 10.213-6.65M348.518 868.532c5.58.363 10.867 2.213 12.235 7.996-5.294.1-10.922-2.49-12.235-7.996M368.895 926.142c.593.584 1.431 1.066 1.326 1.907-.484 3.845-4.3 10.153-7.978 11.563l-.648-.52c-.125-2.987 1.603-4.137 2.944-7.078 1.366-2.226 2.724-3.846 4.356-5.872M384.2 863.193c-.987-4.397-2.831-11.888 2.361-14.152 1.35 4.488 2.475 11.327-2.361 14.152M406.535 870.818l.48-.475c3.578-3.585 4.915-7.774 9.311-9.01.791 3.777-5.573 10.232-8.426 12.235zM378.699 863.77l-.558 1.305-1.053.333c-3.34-1.788-4.67-7.335-2.202-10.506 3.662-.194 3.887 5.293 4.114 7.994zM413.304 908.662c4.18.122 7.786-.356 10.761 2.659l-.216 1.079c-3.474 1.617-6.873-.058-10.592-1.199l-1.318-.567zM384.033 932.61c5.124 2.755 3.524 9.559 1.555 14.056-3.613-3.61-2.279-9.52-1.555-14.057M410.508 917.414c3.39.482 6.92 1.15 9.217 3.791.556 1.924.622 1.088-.508 3.173-3.23-.53-8.445-2.254-9.688-5.568zM352.614 860.901c6.385.193 8.073 6.126 9.865 11.187-5.055-1.9-8-6.35-9.865-11.187M393.835 854.527c2.41.758 1.61.204 3.182 1.986.998 3.238-.518 5.379-2.052 8.301-.424.322-.933.412-1.488.594l-.828-1.052c-.744-3.784-.509-6.405 1.186-9.83M344.665 881.146c3.695-.374 9.62.257 12.234 3.181l-.174 1.733c-3.883.743-10.568-.677-12.06-4.914M420.751 881.1c1.996-.07 2.505-.24 4.218.727l-.094.93c-2.194 2.04-4.133 2.522-6.967 3.553-2.071.09-2.4.246-4.086-.766l.047-1.165c1.902-2.08 4.162-2.463 6.882-3.278"/><path fill="#1c1b1b" d="M393.863 920.103c4.84.612 6.242 4.335 6.054 8.747-6.186.05-6.704-3.684-6.054-8.747"/><path fill="#b5d679" d="M367.257 864.243c-1.173-3.054-7.287-7.53-4.978-10.907l.972.17c2.537 2.353 4.45 6.682 6.711 9.984l-1.785 2.5z"/><path fill="#1c1b1b" d="M359.266 916.336c-1.42-1.133-1.618-1.285-2.245-2.979.798-3.766 5.011-4.525 7.467-2.046-.167 2.03-.56 2.65-2.4 4.214q-.347.295-.706.576zM411.403 878.18c1.59 1.638 1.158.841 1.704 3.005-1.638 3.12-6.073 4.164-7.504.904.546-2.047 1.704-2.761 3.295-4.12z"/><path fill="#b5d679" d="M350.312 908.982c2.163-.237 3.504-.603 5.463.28l.32.953c-1.162 1.811-3.415 2.348-5.478 3.12-2.001.266-2.496.496-4.253-.392l-.2-1.03c.985-1.823 2.264-2.127 4.148-2.93"/><path fill="#1c1b1b" d="M374.17 920.076c5.38 1.502 1.886 6.151-.122 8.906-2.465-1.309-2.43-.919-3.079-3.425.507-2.338 1.729-3.593 3.2-5.481M357.251 902.558c2.707-.092 3.928-.429 5.636 1.841-.537 2.235-.511 1.69-2.287 3.54-2.604.199-3.73.523-5.435-1.66.404-2.424.253-1.69 2.086-3.721M406.403 861.835c1.846 2.19 2.062 1.754 2.335 4.159-.988 1.692-1.28 2.059-2.626 3.487-2.448 1.006-1.366.937-4.105.08.254-1.456.762-3.125 1.148-4.576zM359.29 877.637c2.691.603 3.684 1.19 5.376 3.308.514 2.273.647 1.445-.233 3.26-3.158-.059-4.71.273-6.594-2.46-.062-2.05.278-2.38 1.451-4.108M357.304 894.468c2.974-.156 6.207-.208 7.042 3.045l-1.116 1.725c-2.625.794-3.9.947-6.126-.546-.72-2.248-.486-1.646.2-4.224M395.859 865.079c1.93.07 2.796.744 3.596 2.336-.14 2.184-1.29 3.46-2.542 5.33-2.146.19-1.497.428-3.2-.45l-.415-1.405c.527-2.663 1.168-3.502 2.56-5.811M362.526 919.812c1.357-3.029 3.043-6.138 6.809-4.046.743 3.322-1.082 4.123-3.564 6.157-1.703-.685-1.898-.856-3.245-2.111M357.744 885.564c1.989.561 3.93.881 5.293 2.424.332 2.186.418 1.284-.96 3.667-2.57-.016-4.348.242-6.021-1.936-.07-2.02.522-2.562 1.688-4.155M400.698 914.644c4.293.173 7.146 2.432 6.364 6.9-2.626-.538-4.255-.785-6.166-2.648-.923-2.612-.848-1.49-.198-4.252"/><path fill="#b5d679" d="m391.98 930.4 1.252-1.392.989-.005c1.732 2.25 3.05 8.459.904 10.446-3.06-1.558-2.43-5.507-3.135-8.337zM342.373 901.612c2.777-.531 10.404-1.566 10.873 2.217-4.407 1.42-8.538 2.446-10.873-2.217"/><path fill="#1c1b1b" d="M387.223 861.451c2.7.354 3.13.416 4.578 2.234.301 2.07-.461 3.251-1.3 5.205-2.183-.039-2.58-.291-3.876-1.774-.523-2.256-.004-3.467.598-5.665M379 862.896c2.578-1.071 2.58-1.119 5.2.297-.484 3.404.054 3.16-1.807 5.54l-1.424.474c-2.282-1.511-2.162-2.868-2.27-5.437z"/><path fill="#b5d679" d="M376.304 930.645c4.737 1.38 1.139 7.007-.46 9.353l-.919-.195c-2.945-2.739-.404-6.384 1.379-9.158"/><path fill="#1c1b1b" d="M380.453 924.346c2.265.295 2.689 1.187 3.632 2.952.132 2.29-.155 2.71-1.144 4.717-2.624-.082-3.048-.33-4.223-2.468-.053-2.332.628-3.203 1.735-5.2"/><path fill="#b5d679" d="M403.155 864.985c-.226-.485-.442-1.362-.602-1.905.8-3.33 2.42-6.991 6.1-7.852l.565.843c-.348 2.361-1.497 3.766-2.815 5.764zM419.537 901.016c2.485-.24 4.566-.707 6.76.428l.612.99c-2.646 3.145-7.485 2.104-10.78.488zM421.401 889.665c1.911.156 3.04.365 4.237 1.652-.5 2.034-.66 1.63-2.627 3.108-2.599-.326-4.52-.179-5.743-2.744 1.62-1.81 1.403-1.31 4.133-2.016"/><path fill="#1c1b1b" d="M391.99 931.112c-2.018 1.036-2.401.968-4.208.523-1.881-2.685-.923-5 1.608-6.759l1.253.477c1.205 2.063 1.158 2.75 1.337 5.048zM410.97 886.4c2.692.106 3.332.197 4.236 2.597-.866 2.076-.395 1.34-2.805 2.815-2.392-.177-3.616.05-4.576-2.37 1.102-2.166.885-1.583 3.145-3.043"/><path fill="#b5d679" d="M408.4 923.31c4.584 1.32 6.994 4.463 8.265 8.881-4.745.632-6.58-5.326-8.266-8.88M360.318 927.734c-.84 2.54-2.271 4.591-5.06 4.67l-.908-1.079.261-1.903c1.332-2.212 2.52-2.822 4.651-4.273zM348.265 892.898c-2.6-.11-2.87.336-4.559-1.051l.573-.956c2.483-1.56 3.74-1.369 6.716-1.399-.807 1.035-1.86 2.485-2.73 3.406"/><path fill="#1c1b1b" d="M615.392 811c5.8 1.175 9.3 6.359 12.8 10.788 19.59-12.964 41.2-12.288 58.78 4.269 3.65 3.443-9.72 10.233-12.21 11.456-11.6 5.709-22.16 4.832-33.95.617 11.73 12.092 19.89 18.909 32.51 29.685 5.77-3.421 18.79-6.632 25.44-6.658 5.02-.068 9.85 1.93 13.36 5.528 7.22 7.334 3.62 15.684-2.76 21.994 5.73 12.003 3.14 19.099-7.68 26.301.53 3.347.31 6.773-.67 10.02-2.02 6.608-6.89 9.221-12.52 12.14-5.95 12.807-17.46 17.109-27.58 5.73-2.84-3.743-4.93-5.501-8.56-8.297-2.21 10.726-3.22 12.842-12.87 18.246 1 13.589-1.61 16.483-12.82 22.898-2.01 4.929-3.76 8.023-8.69 10.734a15.82 15.82 0 0 1-12.16 1.313c-6.83-2.01-9.7-6.708-12.79-12.446-11.61-5.609-12.01-10.219-13.27-22.29-12.45-7.542-13.21-13.097-9.43-26.444-7.83-13.191-7.87-20.752 5.64-29.289-2.5-4.115-7.09-10.998-6.02-15.745 6.07-6.939 32.45 5.656 38.89 9.929 3.55-21.197 12.91-48.473 12.92-67.526-3.71-4.894-5.36-6.741-6.36-12.953m-1.8 78.884c6.38-3.712 10.29-5.421 17.34-7.848-.96-3.918-1.24-5.616-.78-9.649 7.23-19.661 22.44-7.999 27.41-10.677-1.11-2.126-12.95-12.979-15.93-15.719-4.66-4.282-10.46-12.134-14.42-15.804-3.97 20.893-10.04 40.268-13.62 59.697"/><path fill="#78b949" d="M650.512 817.344c13.53-.754 20.91 3.099 31.56 10.345-6.62 4.832-10.76 6.732-18.53 8.931-13.63 1.299-21.93-2.478-31.85-11.292 6.12-4.42 11.72-6.183 18.82-7.984"/><path fill="#d2353b" d="M609.182 927.454c2.65-.177 10.52 4.534 11.41 7.793 2.32 8.495-1.77 13.179-9.51 16.428-6.84-.994-14.89-5.761-12.58-13.915 1.65-5.824 5.83-7.541 10.68-10.306M594.492 904.566c6.33-.336 8.39.801 13.24 4.751.2 9.044 1.64 14.364-7.85 18.345-15.14-.407-18.56-15.111-5.39-23.096M619.742 905.075c5.97-1.277 11.88 2.428 13.32 8.36 1.45 5.932-2.09 11.938-7.97 13.554a11.3 11.3 0 0 1-11.07-3.008 11.3 11.3 0 0 1-2.71-11.142 11.28 11.28 0 0 1 8.43-7.764M633.762 927.503c5.53.216 15.33.31 13.93 9.708-.69 4.68-5.17 8.829-9.13 11.288-12.99.26-12.63-5.017-13.99-16.095 3.56-1.581 5.87-2.944 9.19-4.901M623.622 948.603c4.41 2.385 9.26 3.356 11.74 8.235 3.44 6.766-5.92 12.397-10.95 14.462-10.17-1.524-11.48-5.572-12.7-14.767 5.78-2.458 7.43-3.669 11.91-7.93M657.142 868.516c9.43-.694 15.65 3.606 13.61 14.41-.74 3.941-3.77 6.254-7.26 8.04-10.44-.34-11.91-4.782-13.56-13.873 2.13-4.368 3.28-5.741 7.21-8.577M672.832 890.954c4.27 2.163 8.62 3.769 10.26 8.665 2.59 7.67-4.02 12.049-10.18 14.211-6.22-1.368-13.19-6.116-10.99-13.449 1.66-5.533 6.2-7.108 10.91-9.427M577.852 928.433l8.49-.498 8.43 4.852c-.34 6.471.11 11.634-6.19 15.066-14.16 3.554-22.68-14.846-10.73-19.42M595.742 949.213l.74-.015c3.53 2.044 8.95 4.627 10.32 8.728 2.55 7.661-4 11.058-9.87 13.11-10.71-1.95-11.99-7.217-12.73-16.903 4.96-1.689 6.93-2.384 11.54-4.92" style="fill:#ce2e4a;fill-opacity:1"/><path fill="#d2353b" d="M681.532 868.429c13.88-.332 18.36 14.252 5.59 22.237-15.06.608-17.83-15.851-5.59-22.237M685.812 911.017c2.97 2.055 14.68 5.18 12.54 11.874-1.05 3.28-7.59 7.868-10.7 9.433-10.56-.026-11.92-5.051-13.08-13.92 5.01-2.244 7.27-3.629 11.24-7.387M695.642 890.368c4.67 1.401 14.44-.528 12.4 8.927-1.15 5.332-3.74 8.243-8.29 11.062-12.35.627-12.05-4.652-12.76-14.983 2.99-1.419 5.83-3.262 8.65-5.006" style="fill:#ce2e4a;fill-opacity:1"/><path fill="#78b949" d="M574.252 884.516c11.69 1.185 21.32 2.998 30.87 10.256 1.28 1.882 2.34 3.096 2.49 5.392l-.74 1.237c-2.76.354-2.33.031-5.26-1.222-14.65.119-21.38-1.913-27.36-15.663"/><path fill="#72af4c" d="M605.122 894.772c1.28 1.882 2.34 3.096 2.49 5.392l-.74 1.237c-2.76.354-2.33.031-5.26-1.222 1.03-1.88 2.3-3.634 3.51-5.407"/><path fill="#78b949" d="M641.702 885.067c2.11-.239 1.42-.451 3.13.418.28 3.617-2.96 7.143-5.19 10.167a897 897 0 0 0-12.05 4.952c-3.77-.728-6.33-.703-10.07-.117-2.05.891-3.08 1.663-4.82.106.62-9.858 21.2-14.266 29-15.526"/><path fill="#d2353b" d="M659.222 911.05c7.18 6.51 21.2 11.247 3.39 21.088-17.31.236-12.06-13.075-3.39-21.088M579.222 901.337c2.66.033 5.41-.499 6.38 2.247-2.15 5.239-3.34 13.233-3.2 18.942l.02.754c-2.36 1.241-2.55.742-5.64.583-12.35-5.499-8.66-17.322 2.44-22.526M635.872 901.19c13.19.135 19.39 10.246 10.03 20.954-10.42 5.678-8.73-5.288-8.55-11.832-1.83-2.676-3.52-4.25-3.58-7.19zM694.162 865.33c13.26-1.322 22.15 6.617 13.61 19.112-2.32 1.52-5.58 2.955-8.33 2.026-1.18-2.53.09-7.583-.55-10.229-.89-3.733-5.03-7.11-4.73-10.909M609.742 968.818c4.28 3.743 6.79 4.995 12.14 6.868-3.26 5.288-5.23 6.663-11.18 8.258-6.43-1.082-8.57-3.161-12.84-7.851 5.2-2.153 7.72-3.495 11.88-7.275M643.302 864.514c3.1-.135 4.93-.38 7.32 1.403-.96 3.138-4.49 8.587-5.47 12.433-.43 1.718-1.25 1.663-2.74 2.197-13.99 1.959-8.63-11.138.89-16.033M672.282 931.415c.8-.024 10.01 5.092 11.94 5.936-3.12 3.897-4.85 5.008-9.26 7.317-3.22.2-8.81-1.055-10.94-3.676-1.09-5.723 3.97-7.314 8.26-9.577M648.402 889.766a798 798 0 0 0 9.46 5.46c.04 3.978.74 10.989-2.87 13.518-3.94-6.528-4.78-7.414-11.11-11.422z" style="fill:#ce2e4a;fill-opacity:1"/><path fill="#1c1b1b" d="M797.733 847.306c13.063-.543 28.427-.206 41.689-.17l68.839.09 51.88-.112c10.019-.019 22.979-.35 32.726.482.549 3.174.78 7.833.789 11.095a100.64 100.64 0 0 1-30.1 71.542 142 142 0 0 1-3.381 3.256c-18.308 17.01-43.101 24.982-67.732 24.527-57.283-1.058-98.833-50.31-96.336-106.348.108-2.412-.1-2.824 1.626-4.362"/><path fill="#d2353b" d="m800.839 851.795 9.775-.01 7.083.043 154.142-.035 7.286.005 9.58.024q.129 1.425.148 2.855c.39 26.677-7.94 51.052-26.576 70.396a93.64 93.64 0 0 1-65.934 28.412 94.35 94.35 0 0 1-67-26.53c-22.288-21.653-28-45.205-28.504-75.16"/><path fill="#78b949" d="m800.839 851.795 9.775-.01 7.083.043c.194 6.225.459 11.916 1.112 18.092 4.276 40.5 39.733 68.507 79.525 67.163a75.9 75.9 0 0 0 52.605-24.022c16.528-17.698 21.626-37.649 20.9-61.268l7.286.005 9.58.024q.129 1.425.148 2.855c.39 26.677-7.94 51.052-26.576 70.396a93.64 93.64 0 0 1-65.934 28.412 94.35 94.35 0 0 1-67-26.53c-22.288-21.653-28-45.205-28.504-75.16"/><path fill="#f5eeba" d="m971.839 851.793 7.286.005c2.826 25.484-8.166 53.082-26.79 70.471a84.66 84.66 0 0 1-60.35 22.41 85.23 85.23 0 0 1-59.473-27.44c-17.646-19.066-22.872-40.045-21.898-65.455l7.083.044c.194 6.225.459 11.916 1.112 18.092 4.276 40.5 39.733 68.507 79.525 67.163a75.9 75.9 0 0 0 52.605-24.022c16.528-17.698 21.626-37.649 20.9-61.268"/><path fill="#1c1b1b" d="M844.945 866.98c3.58-.213 5.222-.943 7.532 1.936.374 4.522-5.2 8.133-8.453 10.342-4.11.001-5.994-1.197-7.09-4.97.746-5.125 3.48-6.423 8.01-7.308M865.599 886.362l1.005.334c5.222 5.29-.068 14.341-7.326 15.514-7.507-8.229-.605-11.736 6.32-15.848M936.523 866.784c8.285-.124 18.234-.146 15.046 10.975-9.051 3.043-12.731-3.449-15.046-10.975M893.647 896.64c.92.435 1.733 1.237 2.387 2.02 4.765 5.695 5.143 10.833-.404 15.92a56 56 0 0 1-2.255-1.013c-8.297-3.985-2.961-11.628.272-16.928M921.623 886.375c7.48 2.65 13.533 5.215 10.308 14.234-10.814 3.851-11.115-6.946-10.308-14.234"/></svg>