<svg xmlns="http://www.w3.org/2000/svg" width="1024" height="1024"><defs><linearGradient id="a" x1="716.032" x2="688.561" y1="161.009" y2="121.278" gradientTransform="translate(72.233 -21.832)scale(.90417)" gradientUnits="userSpaceOnUse"><stop offset="0" stop-color="#f70d04"/><stop offset="1" stop-color="#ad0100"/></linearGradient></defs><path fill="#e10802" d="M574.418 84.614a23 23 0 0 1-.479-4.043c-.28-8.456 4.652-25.099 10.698-30.918 15.241-14.67 39.51 10.257 48.82 20.349.782.17 1.62.393 2.406.463 2.73-1.289 7.16-1.655 10.126-1.204 2.916.757 2.71.708 4.796-1.176 9.303-10.305 30.591-31.531 45.496-18.04 7.036 6.368 12.271 21.816 12.51 31.269q.047 1.381.012 2.762c7.573 3.092 12.13 2.917 19.271 7.714.68 9.347 1.185 18.018.553 27.41l-6.24 2.913c.267 3.814.47 6.189.053 9.993-.183 5.897-1.446 57.234-3.18 58.761-5.241 4.614-20.42 7.957-27.569 10.972a445 445 0 0 1-17.54 5.77c-8.568 1.995-21.301 6.138-30.111 8.677l-33.502-9.773-18.466-5.43c-10.387-2.932-20.023-5.48-30.093-9.43-1.14-6.627-1.251-17.67-1.545-24.734l-1.827-41.11c-.104-.85-.025-2.848-.012-3.8-1.893-.595-3.727-1.843-5.457-2.88-.888-5.715-2.49-23.95 2.364-27.94 5.424-2.815 12.958-4.808 18.916-6.575" style="stroke-width:.904169"/><path fill="#feb700" d="M574.418 84.614a23 23 0 0 1-.479-4.043c-.28-8.456 4.652-25.099 10.698-30.918 15.241-14.67 39.51 10.257 48.82 20.349.782.17 1.62.393 2.406.463 2.73-1.289 7.16-1.655 10.126-1.204-.237 4.003 5.217 10.149 5.75 15.154.53 4.973-2.85 8.092-1.831 11.864-13.375 7.337-17.779-6.408-35.6 10.912-3.888 6.69-3.698 12.073-3.714 19.675-.37 3.401-.371 6.06-.39 9.493-4.922-1.463-15.171-4.292-19.495-6.074l-.218-.435c-7.267-2.442-24.931-8.142-31.896-7.84-1.893-.596-3.727-1.844-5.457-2.881-.888-5.715-2.49-23.95 2.364-27.94 5.424-2.815 12.958-4.808 18.916-6.575" style="stroke-width:.904169"/><path fill="#e10802" d="M553.138 119.129c-.888-5.715-2.49-23.95 2.364-27.94 7.957 7.646 27.24 8.589 35.513 12.681-1.871 7.76-1.299 17.958-.524 25.98-7.267-2.442-24.931-8.142-31.896-7.84-1.893-.596-3.727-1.844-5.457-2.881" style="stroke-width:.904169"/><path fill="#d88103" d="M633.457 70.002c.782.17 1.62.393 2.406.463-.723 1.721-3.884 5.5-5.04 8.165-2.626 6.053-.384 10.553 1.555 16.19-12.173-4.44-24.937-2.077-37.124-6.165-3.992-1.34-13.064-4.188-11.059-9.844 11.676-10.444 30.297 5.212 40.428 5.606 1.013-.885-.026-10.565 8.834-14.415" style="stroke-width:.904169"/><path fill="#a00" d="M555.502 91.188c5.424-2.814 12.958-4.807 18.916-6.574 4.388 2.485 9 5.42 13.62 7.297 4.86 1.975 10.289 3.307 15.25 5.014-4.14 2.013-8.674 4.092-12.273 6.945-8.273-4.092-27.556-5.035-35.513-12.682" style="stroke-width:.904169"/><path fill="#feb700" d="M650.785 68.085c9.303-10.305 30.591-31.531 45.496-18.04 7.036 6.368 12.271 21.816 12.51 31.269q.047 1.381.012 2.762c7.573 3.092 12.13 2.917 19.271 7.714.68 9.347 1.185 18.018.553 27.41l-6.24 2.913c-8.805 2.324-20.433 5.414-28.913 8.9l.07 5.622-.16.37c-4.264.431-15.192 3.843-19.531 5.511l.01-4.967.082-.362c.011-8.015 1.305-23.358-4.985-28.915-5.891-4.788-11.123-8.098-17.509-12.083l-1.543.09c-1.018-3.772 2.36-6.891 1.83-11.864-.532-5.005-5.986-11.151-5.749-15.154 2.916.757 2.71.708 4.796-1.176" style="stroke-width:.904169"/><path fill="url(#a)" d="M708.803 84.076c7.573 3.092 12.13 2.917 19.271 7.714.68 9.347 1.185 18.018.553 27.41l-6.24 2.913c-8.805 2.324-20.433 5.414-28.913 8.9.334-9.791.52-16.679-.155-26.375-4.032-3.57-8.16-5.287-12.962-7.606 11.932-5.31 16.993-4.215 28.446-12.956" style="fill:url(#a);stroke-width:.904169"/><path fill="#d88103" d="M650.785 68.085c0 7.752 5.313 10.51 6.582 19.132 7.721-4.719 23.835-13.51 34.432-11.356 2.913.591 5.75 3.196 6.343 6.266-1.73 2.93-5.566 4.27-8.672 5.289-10.663 3.5-21.89 5.846-33.051 3.606-1.641 2.194-2.72 3.587-4.968 5.167l-1.543.09c-1.018-3.772 2.692-5.4 1.83-11.864.462-6.661-5.986-11.151-5.749-15.154 2.916.757 2.71.708 4.796-1.176M693.474 131.013l.07 5.622-.16.37c-4.264.431-15.192 3.843-19.531 5.511l.01-4.967.082-.362q9.792-3 19.53-6.174" style="stroke-width:.904169"/><path fill="#e10802" d="M558.595 122.01c6.965-.302 24.63 5.398 31.896 7.84l.218.435c4.324 1.782 14.573 4.61 19.496 6.074.018-3.433.02-6.092.389-9.493.041 3.135.129 6.251-.047 9.381l-.047 1.05-.218 4.288c-.033 21.204.585 44.005.256 64.928l-18.466-5.43c-10.387-2.932-20.023-5.48-30.093-9.43-1.14-6.627-1.251-17.671-1.545-24.734l-1.827-41.11c-.103-.85-.025-2.848-.012-3.8" style="stroke-width:.904169"/><path fill="#feb700" d="M610.594 126.866c.041 3.135.129 6.251-.047 9.381l-.047 1.05-.218 4.288c-.033 21.204.585 44.005.256 64.928l-18.466-5.43c-.115-16.995-.817-33.985-.924-51.055-.459-4.278-.326-9.85-.341-14.245l-.098-5.498c4.324 1.782 14.573 4.61 19.496 6.074.018-3.433.02-6.092.389-9.493" style="stroke-width:.904169"/><path fill="#d88103" d="M610.594 126.866c.041 3.135.129 6.251-.047 9.381l-.047 1.05-.218 4.288c-6.365-1.981-12.782-3.256-19.06-5.366.012 3.785.233 10.234-.074 13.809-.459-4.278-.326-9.85-.341-14.245l-.098-5.498c4.324 1.782 14.574 4.61 19.496 6.074.018-3.433.02-6.092.389-9.493" style="stroke-width:.904169"/><path fill="#a00" d="M558.595 122.01c6.965-.302 24.63 5.398 31.896 7.84l.218.435.098 5.498c-1.675-.624-4.572-1.387-6.409-1.784-8.8-1.904-17.166-5.949-25.79-8.19-.104-.85-.026-2.848-.013-3.8" style="stroke-width:.904169"/><path fill="#e10802" d="m649.908 96.279 1.543-.09c6.386 3.985 11.618 7.295 17.509 12.083 6.29 5.557 4.996 20.9 4.985 28.915l-.082.362c-3.495-.425-23.871 6.43-29.155 7.772-11.272-3.54-22.697-6.245-34.161-9.074.176-3.13.088-6.246.047-9.381.016-7.602-.174-12.986 3.715-19.675 17.82-17.32 22.224-3.575 35.599-10.912" style="stroke-width:.904169"/><path fill="#a00" d="m649.908 96.279 1.543-.09c6.386 3.985 11.618 7.295 17.509 12.083-3.532 2.766-18.505 4.317-24.796 6.083-10.835-3.308-18.761-5.097-29.855-7.164 17.82-17.32 22.224-3.575 35.599-10.912" style="stroke-width:.904169"/><path fill="#e10802" d="M693.474 131.013c8.48-3.486 20.108-6.576 28.913-8.9.268 3.814.471 6.189.053 9.993-.183 5.897-1.446 57.234-3.18 58.761-5.241 4.614-20.42 7.957-27.569 10.972q.554-32.425 1.694-64.834l.159-.37z" style="stroke-width:.904169"/><path fill="#a00" d="M693.474 131.013c8.48-3.486 20.108-6.576 28.913-8.9.268 3.814.471 6.189.053 9.993-.066-1.077-.02-3.18-.498-3.935-10.065 1.813-18.16 6.375-28.398 8.464z" style="stroke-width:.904169"/><path fill="#feb700" d="M673.853 142.516c4.339-1.668 15.267-5.08 19.532-5.51a3588 3588 0 0 0-1.694 64.833 445 445 0 0 1-17.54 5.77c-1.194-18.922-.401-45.614-.298-65.093" style="stroke-width:.904169"/><path fill="#a00" d="M610.547 136.247c11.464 2.829 22.889 5.533 34.16 9.074 5.285-1.342 25.661-8.197 29.156-7.772l-.01 4.967c-6.564 1.28-17.21 5.695-24.86 7.27l-.886.177c-6.257 1.29-30.995-5.965-37.117-8.414-.75-1.27-.513-2.708-.49-4.253z" style="stroke-width:.904169"/><defs><linearGradient id="b" x1="878.999" x2="881.265" y1="784.262" y2="834.961" gradientTransform="translate(16 50)" gradientUnits="userSpaceOnUse"><stop offset="0" stop-color="#011a02"/><stop offset="1" stop-color="#226803"/></linearGradient></defs><defs><linearGradient id="c" x1="925.93" x2="926.606" y1="830.261" y2="847.056" gradientTransform="translate(16 50)" gradientUnits="userSpaceOnUse"><stop offset="0" stop-color="#206602"/><stop offset="1" stop-color="#2b7f02"/></linearGradient></defs><path fill="#feb700" d="M830.872 859.559c-6.772-2.833-11.79-5.426-13.367-13.267-2.317-11.522 3.401-36.465 17.579-37.52 17.438-1.297 33.829 12.074 47.048 21.672 6.901-2.307 11.573-3.396 18.728-.281 26.184-23.102 64.667-37.792 65.478 12.389.095 5.873-1.125 9.067-5.145 13.126-7.116 5.553-12.898 5.899-21.47 5.762 8.705 4.074 19.924 8.781 27.062 14.844 2.266 2.006 3.006 3.309 4.658 5.775-2.254.374-4.533.862-6.801.823q-4.093.42-8.197.73l3.232 3.253c3.753 3.764 6.26 6.492 9.713 10.515 2.241 2.587 3.317 3.446 5.942 5.608 5.92 1.917 12.058 3.737 15.123 9.667 7.129 13.794-13.621 32.821-23.787 38.827-7.944 6.136-18.112 11.421-27.55 14.809a124.9 124.9 0 0 1-54.932 6.462c-29.749-3.125-63.27-19.089-82.941-42.288-3.841-4.53-7.373-11.694-6.531-17.715.939-6.719 6.473-10.025 11.536-13.799l1.629-1.104c3.147-2.99 12.785-12.878 14.652-16.228-1.732-.192-1.716-.169-3.324-.816-3.056-5.85 18.668-15.498 22.853-18.553-4.08-.831-7.193-1.549-11.188-2.691"/><path fill="#165f01" d="M830.872 859.559c-6.772-2.833-11.79-5.426-13.367-13.267-2.317-11.522 3.401-36.465 17.579-37.52 17.438-1.297 33.829 12.074 47.048 21.672 6.901-2.307 11.573-3.396 18.728-.281 26.184-23.102 64.667-37.792 65.478 12.389.095 5.873-1.125 9.067-5.145 13.126-7.116 5.553-12.898 5.899-21.47 5.762 8.705 4.074 19.924 8.781 27.062 14.844 2.266 2.006 3.006 3.309 4.658 5.775-2.254.374-4.533.862-6.801.823q-4.093.42-8.197.73l-1.363-.457c-4.586-5.02-20.403-3.204-26.087-.442-7.092-7.209-15.013-14.39-23.996-19.057-4.477 3.455-7.244 7.178-10.179 11.906-.431-2.211-.801-3.565-.706-5.856-5.074-4.527-10.795-5.041-14.12-7.872.361-3.515-2.341-4.798-4.916-6.321-8.457-.204-26.885.389-33.018 6.737-4.08-.831-7.193-1.549-11.188-2.691"/><path fill="url(#b)" d="M871.588 847.174c2.289-5.46 4.644-9.637 8.777-13.848-1.512 7.542-2.741 11.617 1.306 18.4 5.207 3.419 8.388 2.943 14.412 2.722 8.477-5.626 7.909-11.494 8.004-20.751 1.598 2.668 6.598 13.919 9.839 13.574 11.503-1.225 21.426-9.354 33.81-6.678 9.858 2.13 9.085 8.575 13.457 15.085-7.116 5.553-12.898 5.899-21.47 5.762 8.705 4.074 19.924 8.781 27.062 14.844 2.266 2.006 3.006 3.309 4.658 5.775-2.254.374-4.533.862-6.801.823q-4.093.42-8.197.73l-1.363-.457c-4.586-5.02-20.403-3.204-26.087-.442-7.092-7.209-15.013-14.39-23.996-19.057-4.477 3.455-7.244 7.178-10.179 11.906-.431-2.211-.801-3.565-.706-5.856-5.074-4.527-10.795-5.041-14.12-7.872.361-3.515-2.341-4.798-4.916-6.321-8.457-.204-26.885.389-33.018 6.737-4.08-.831-7.193-1.549-11.188-2.691.264-5.036-2.988-7.612-5.892-12.347 8.607-15.289 33.952-4.549 46.608-.038" style="fill:url(#b)"/><path fill="#165f01" d="M966.785 876.284c2.266 2.006 3.006 3.309 4.658 5.775-2.254.374-4.533.862-6.801.823l.264-.922 1.679-.228c-.414-2.231-.023-3.257.2-5.448"/><path fill="#feb700" d="M842.06 862.25c6.133-6.348 24.561-6.941 33.018-6.737 2.575 1.523 5.277 2.806 4.916 6.321 3.325 2.831 9.046 3.345 14.12 7.872-1.984 4.96-7.03 8.344-9.418 12.818-5.929 11.103-7.073 24.213-10.015 36.282-19.397-10.096-37.952-20.471-60.334-20.726-2.025-.023-4.506-.033-6.468-.233 3.147-2.99 12.785-12.878 14.652-16.228-1.732-.192-1.716-.169-3.324-.816-3.056-5.85 18.668-15.498 22.853-18.553"/><path fill="#165f01" d="M842.06 862.25c6.133-6.348 24.561-6.941 33.018-6.737 2.575 1.523 5.277 2.806 4.916 6.321-11.813 2.821-28.229 23.204-37.258 31.42-1.327 1.208-1.925 1.754-3.398.772-2.574-1.716-4.217-6.811-5.377-9.746-3.027-1.814-8.162-5.571-11.43-2.661-1.732-.192-1.716-.169-3.324-.816-3.056-5.85 18.668-15.498 22.853-18.553"/><path fill="#fefefe" d="M878.425 865.058c1.87.483 2.078.604 3.842 1.461 3.998 5.961-16.233 31.975-21.468 36.224-2.839-1.554-3.517-2.182-5.862-4.244l.187-.35.321-.578c2.563-4.716 6.871-10.168 10.134-14.619a1483 1483 0 0 0 12.846-17.894"/><path fill="#feb700" d="M904.999 863.656c8.983 4.667 16.904 11.848 23.996 19.057 5.684-2.762 21.501-4.578 26.087.442l1.363.457 3.232 3.253c-1.629 4.831-1.485 9.263-3.941 13.209-4.527 1.456-11.905 3.66-16.131 5.477-15.995 6.878-33.676 17.756-47.073 28.884-1.13-3.372-1.482-4.651-3.304-7.719-.994-2.793-1.063-7.724-1.434-10.848-2.075-17.44-.17-24.881 7.026-40.306 2.935-4.728 5.702-8.451 10.179-11.906"/><path fill="url(#c)" d="M928.995 882.713c5.684-2.762 21.501-4.578 26.087.442-5.774 3.261-8.03 10.333-10.727 16.364a377 377 0 0 0-15.36-16.806" style="fill:url(#c)"/><path fill="#fefefe" d="M903.071 879.628q2.998.391 5.992.817c3.681 5.332 10.73 17.808 11.695 24.341.217 1.468-.719 2.235-1.541 3.202l-4.938 2.074c-4.652-8.465-11.645-20.965-11.208-30.434"/><path fill="#854402" d="M926.088 962.103c-6.412 1.591-24.417 4.776-30.558 1.872-4.707-3.042 1.635-11.055 4.031-13.375 19.162-18.555 46.5-31.68 73.124-34.531 3.469-.371 10.476.955 8.931 5.812-2.794 8.778-14.15 17.285-21.286 22.413 1.395 4.476 1.786 5.797 6.338 7.188-7.944 6.136-18.112 11.421-27.55 14.809-4.242-3.033-8.336-.665-13.03-4.188"/><path fill="#feb700" d="M932.953 931.567c12.393-5.625 24.181 1.092 23.473 14.972 1.64-.492 2.444-1.256 3.904-2.245 1.395 4.476 1.786 5.797 6.338 7.188-7.944 6.136-18.112 11.421-27.55 14.809-4.242-3.033-8.336-.665-13.03-4.188 3.426-.609 7.239-1.218 10.373-2.686-10.713-4.186-15.439-14.322-8.217-24.127.918-1.55 3.149-2.762 4.709-3.723"/><path fill="#d88103" d="M956.426 946.539c1.64-.492 2.444-1.256 3.904-2.245 1.395 4.476 1.786 5.797 6.338 7.188-7.944 6.136-18.112 11.421-27.55 14.809-4.242-3.033-8.336-.665-13.03-4.188 3.426-.609 7.239-1.218 10.373-2.686 10.302 1.383 18.265-3.332 19.965-12.878"/><path fill="#fef0a3" d="M932.953 931.567c1.559.145 3.286.374 4.824.311 13.618 9.222-2.616 16.449-8.774 11.132-.222-.549-.542-1.181-.614-1.726.183-2.536.118-3.452-.145-5.994.918-1.55 3.149-2.762 4.709-3.723"/><path fill="#fef0a3" d="M932.953 931.567c1.559.145 3.286.374 4.824.311-2.011 1.142-8.818 7.269-9.388 9.406.183-2.536.118-3.452-.145-5.994.918-1.55 3.149-2.762 4.709-3.723"/><path fill="#d88103" d="M894.114 869.706c-.095 2.291.275 3.645.706 5.856-7.196 15.425-9.101 22.866-7.026 40.306.371 3.124.44 8.055 1.434 10.848 1.822 3.068 2.174 4.347 3.304 7.719 13.397-11.128 31.078-22.006 47.073-28.884 4.226-1.817 11.604-4.021 16.131-5.477 2.456-3.946 2.312-8.378 3.941-13.209 3.753 3.764 6.26 6.492 9.713 10.515 2.241 2.587 3.317 3.446 5.942 5.608-5.484 2.552-13.618 1.849-19.527 3.48-23.757 6.557-59.04 25.186-71.14 44.796-10.146 8.91-4.835-4.336-14.514-13.863 3.449-1.229 7.478 4.435 10.016-1.705 3.898-13.168-48.796-33.373-59.689-33.333-2.738.01-12.371-2.113-14.228-3.412l1.629-1.104c1.962.2 4.443.21 6.468.233 22.382.255 40.937 10.63 60.334 20.726 2.942-12.069 4.086-25.179 10.015-36.282 2.388-4.474 7.434-7.858 9.418-12.818"/><path fill="#e99c0e" d="M959.677 886.865c3.753 3.764 6.26 6.492 9.713 10.515-2.402 2.045-10.054 2.292-13.654 2.694 2.456-3.946 2.312-8.378 3.941-13.209M889.228 926.716c1.822 3.068 2.174 4.347 3.304 7.719l-3.52 2.499c-.013-3.423-.097-6.81.216-10.218"/><path fill="#854402" d="M845.69 924.46c-10.67 1.152-16.409 6.904-14.64 16.043.382 1.976 1.656 2.806 1.728 5.303l-.6.485c-5.384-1.092-25.902-20.406-26.546-27.17-.837-8.794 17.635-5.16 22.128-4.025 15.927 4.022 29.776 12.077 42.391 22.305 7.141 5.575 9.81 7.858 14.48 14.09.402.538-3.65 3.624-1.393 13.478-14.25-2.384-20.538-3.062-33.825-9.978 7.261-3.386 13.79-8.952 10.785-17.949-2.282-6.83-4.788-11.162-14.508-12.582"/><path fill="#fef0a3" d="M845.501 925.381c5.364 1.476 9.585 13.613-.223 14.736-10.022-4.216-8.151-10.131.223-14.736"/><path fill="#e99c0e" d="M831.995 946.335c5.002 4.733 5.066 7.23 17.588 9.144-13.623-.165-14.067-4.27-17.588-9.144"/><path fill="#e10802" d="M865.575 100.785c-7.822 1.284-13.612-8.659-14.921-15.261-3.203-16.149-8.404-33.08 13.878-36.215 16.367-2.301 31.314-3.963 48.124-5.139 12.438-.87 40.803-11.776 48.045 4.78 4.73 13.713 10.068 33.504-7.045 40.288q.317 2.79.719 5.57c1.28 20.594 5.253 41.85 6.746 61.922a32.17 32.17 0 0 1-3.932 23.954c-7.58 12.256-22.86 18.378-36.179 21.45q-2.301.517-4.622.938c-14.32 3.204-32.24 6.563-46.675 7.733-1.404.371-7.82.84-9.471.91-11.805.494-22.272-2.328-30.99-10.754-5.902-5.603-9.3-13.401-9.413-21.6-.241-11.498 4.478-19.125 11.994-27.178 8.64-8.772 23.26-11.616 31.384-19.827 5.86-5.924 3.603-19.002 2.833-26.985-.203-1.146-.35-3.346-.475-4.586" style="stroke-width:.913206"/><path fill="#c8c9ce" d="M865.575 100.785c-7.822 1.284-13.612-8.659-14.921-15.261-3.203-16.149-8.404-33.08 13.878-36.215 16.367-2.301 31.314-3.963 48.124-5.139 12.438-.87 40.803-11.776 48.045 4.78 4.73 13.713 10.068 33.504-7.045 40.288a1637 1637 0 0 1-55.986 7.246c-8.436 1.002-24.306 2.405-32.095 4.301" style="stroke-width:.913206"/><path fill="#fefefe" d="M940.052 46.234c3.904-.402 7.892-1.07 11.224 1.58 3.514 2.795 4.194 8.457 4.806 12.654.699 4.79 2.694 17.178-.89 21.214-3.86 4.347-72.194 11.604-83.428 12.903-3.71.446-5.647 1.114-8.918-1.2-4.745-3.359-5.59-12.943-6.313-18.396-.266-2.79-1.945-14.31.902-16.086 8.894-5.547 28.028-6.417 37.845-7.552z" style="stroke-width:.913206"/><path fill="#a00" d="M869.713 210.805c-1.404.371-7.82.84-9.471.91-11.805.494-22.272-2.328-30.99-10.754-5.902-5.603-9.3-13.401-9.413-21.6-.241-11.498 4.478-19.125 11.994-27.178 4.256 4.06 9.706 8.574 13.602 12.746 11.485 12.294 19.542 29.045 23.343 45.5zM961.121 156.73a32.17 32.17 0 0 1-3.932 23.954c-7.58 12.256-22.86 18.378-36.179 21.45q-2.301.517-4.622.938c-2.125-12.204 4.887-26.999 13.46-35.31 7.701-7.467 18.54-11.004 29.06-10.855 1.253.017.973.185 2.213-.177M865.575 100.785c7.79-1.896 23.66-3.3 32.095-4.3a1637 1637 0 0 0 55.986-7.247q.318 2.79.719 5.57c-8.818 2.603-80.768 12.045-88.325 10.563-.203-1.146-.35-3.346-.475-4.586" style="stroke-width:.913206"/><path fill="#e10802" d="M92.669 860.661c1.712-5.508 3.689-11.722 6.062-16.953a58.52 58.52 0 0 1 32.567-30.642 56.82 56.82 0 0 1 43.612 1.59c13.247 6.113 21.179 15.651 26.153 29.232 2.155 6.431 3.951 12.997 4.197 19.828.708 19.721-6.391 48.432-13.101 67.059 5.865 7.689 6.724 11.982 5.634 21.836-.815 7.365-3.792 14.798-10.186 19.489-10.151 7.447-28.441 9.082-40.826 8.13-.693-.054-2.05-.502-2.66-.753l-.369.027c-15.779 2.963-46.583-5.698-60.703-13.292-5.158-2.105-13.425-7.863-16.596-12.618-7.855-11.777-6.75-33.032 5.716-41.333-1.484-3.111-4.102-6.769-6.022-10.223-8.398-15.11-23.434-55.183 8.127-53.806 7.835.342 13.705 6.513 18.395 12.429"/><path fill="#fefefe" d="M97.503 909.436a266.9 266.9 0 0 1 76.823 12.811c3.249 1.062 4.494 1.515 7.542 3.067 3.341 1.559 7.574 4.342 10.291 5.461 5.865 7.689 6.724 11.982 5.634 21.836-.815 7.365-3.792 14.798-10.186 19.489-10.151 7.447-28.441 9.082-40.826 8.13-.693-.054-2.05-.502-2.66-.753l-.369.027c-15.779 2.963-46.583-5.698-60.703-13.292-5.158-2.105-13.425-7.863-16.596-12.618-7.855-11.777-6.75-33.032 5.716-41.333l5.236-1.053a142.5 142.5 0 0 1 20.098-1.772"/><path fill="#c8c9ce" d="m72.169 912.261 5.236-1.053-.085.522c-1.673 9.651-7.328 21.213-.99 30.503 7.837 11.486 27.983 7.516 40.16 8.415 15.545 1.147 29.195 4.532 43.889 9.443 4.046 1.318 14.014 4.413 17.218 1.296 8.096-7.88 7.481-26.476 4.271-36.073 3.341 1.559 7.574 4.342 10.291 5.461 5.865 7.689 6.724 11.982 5.634 21.836-.815 7.365-3.792 14.798-10.186 19.489-10.151 7.447-28.441 9.082-40.826 8.13-.693-.054-2.05-.502-2.66-.753l-.369.027c-15.779 2.963-46.583-5.698-60.703-13.292-5.158-2.105-13.425-7.863-16.596-12.618-7.855-11.777-6.75-33.032 5.716-41.333"/><path fill="#2a2424" d="M87.966 966.717c-2.1-1.633-1.983-1.045-2.776-3.173 3.836-11.569 73.886-3.106 79.233 9.158-1.076 6.904-15.181 4.831-20.302 6.775l-.369.027c-15.779 2.963-46.583-5.698-60.703-13.292 2.317-.045 2.874.317 4.917.505"/><path fill="#c8c9ce" d="M83.05 966.212c2.316-.045 2.873.317 4.915.505 12.604 5.479 27.149 7.824 40.585 10.414 3.072.593 13.58 1.217 15.202 2.373-15.779 2.963-46.583-5.698-60.703-13.292"/><path fill="#a00" d="M72.169 912.261c-1.484-3.111-4.102-6.769-6.022-10.223-8.398-15.11-23.434-55.183 8.127-53.806 7.834.342 13.705 6.513 18.395 12.429-.871 4.687-2.261 39.995-.436 43.248 1.394 1.102 2.522 1.143 4.271 1.487 1.345 1.469.797.627 1.325 2.861l-.326 1.179c-6.733.115-13.449.707-20.098 1.772zM201.063 843.888c2.155 6.431 3.951 12.997 4.197 19.828.708 19.721-6.391 48.432-13.101 67.059-2.717-1.119-6.95-3.902-10.291-5.461-3.048-1.552-4.293-2.005-7.542-3.067 1.855-7.364 6.665-14.927 9.797-21.904 1.368-3.047 2.516-6.776 3.466-9.978a669 669 0 0 0 8.592-33.136c.904-3.951.76-7.562 1.978-11.245.535-1.616 1.367-1.557 2.904-2.096"/><defs><linearGradient id="i" x1="143.154" x2="142.741" y1="251.181" y2="275.555" gradientTransform="translate(3.159 -14.783)scale(.8938)" gradientUnits="userSpaceOnUse"><stop offset="0" stop-color="#442103"/><stop offset="1" stop-color="#733a0d"/></linearGradient></defs><defs><linearGradient id="d" x1="428.245" x2="307.891" y1="410.696" y2="465.568" gradientTransform="translate(10 -18)" gradientUnits="userSpaceOnUse"><stop offset="0" stop-color="#dc8300"/><stop offset="1" stop-color="#f8a601"/></linearGradient></defs><defs><linearGradient id="e" x1="373.712" x2="348.041" y1="329.469" y2="411.244" gradientTransform="translate(10 -18)" gradientUnits="userSpaceOnUse"><stop offset="0" stop-color="#8e0000"/><stop offset="1" stop-color="#fa0d03"/></linearGradient></defs><path fill="url(#d)" d="M340.549 346.307c-12.521-6.007-13.108-7.717-13.192-21.661-.111-18.447 10.378-33.473 29.848-22.124 7.653 4.41 11.939 9.822 17.723 16.368 8.361-6.117 13.097-5.357 21.735-.214 18.413-21.03 43.399-33.888 47.569 6.95 1.295 12.688-3.209 17.235-14.93 20.809 7.997 2.767 22.663 7.562 29.555 11.998-11.822 9.896-14.333 12.073-15.015 28.239-3.477-2.915-6.899-5.964-10.761-8.334 1.344 10.633 1.121 24.751 4.5 34.859 3.91 11.698 18.689 16.416 16.953 31.654-2.085 18.308-26.848 24.474-42.363 25.91-28.391 2.628-63.688 3.298-88.18-13.206-4.307-3.026-6.596-8.226-6.937-13.306-.872-13.006 9.382-20.838 16.02-30.397 6.8-13.259 5.354-24.682 7.049-38.643-2.736 1.518-11.135 8.004-13.951 10.101-2.386-20.744-3.46-15.123-16.522-27.893 6.42-3.483 13.49-5.898 20.434-8.083 2.52-.793 8.762-2.018 10.465-3.027" style="fill:url(#d)"/><path fill="#e10802" d="M340.549 346.307c-12.521-6.007-13.108-7.717-13.192-21.661-.111-18.447 10.378-33.473 29.848-22.124 7.653 4.41 11.939 9.822 17.723 16.368 8.361-6.117 13.097-5.357 21.735-.214 18.413-21.03 43.399-33.888 47.569 6.95 1.295 12.688-3.209 17.235-14.93 20.809 7.997 2.767 22.663 7.562 29.555 11.998-11.822 9.896-14.333 12.073-15.015 28.239-3.477-2.915-6.899-5.964-10.761-8.334-4.736-5.887-15.393-15.645-21.197-21.207-5.335-5.511-12.191-14.646-20.286-14.299-6.851.899-9.18.793-16.063-.191-11.219 11.338-25.705 22.185-35.412 32.568-2.736 1.518-11.135 8.004-13.951 10.101-2.386-20.744-3.46-15.123-16.522-27.893 6.42-3.483 13.49-5.898 20.434-8.083 2.52-.793 8.762-2.018 10.465-3.027"/><path fill="url(#e)" d="M369.558 329.943c.643-2.497 1.762-8.459 3.835-9.86 1.748 2.12 1.111 9.877 1.073 13.017 3.549 5.692 7.591 7.807 14.086 4.813 5.714-2.634 5.524-15.627 9.096-17.142 3.671 1.978 2.738 7.078 2.659 10.668 9.996-4.311 21.108-9.291 32.29-5.265 1.985.715 3.214 1.569 4.225 3.411.663 10.3-29.34 7.29-35.155 7.483 2.352 1.32 3.246 1.832 5.778 2.781 4.931 1.848 15.15 1.378 18.687 4.397 1.306 5.279-11.002 6.013-14.248 12.885-5.335-5.511-12.191-14.646-20.286-14.299-6.851.899-9.18.793-16.063-.191-11.219 11.338-25.705 22.185-35.412 32.568-2.736 1.518-11.135 8.004-13.951 10.101-2.386-20.744-3.46-15.123-16.522-27.893 6.42-3.483 13.49-5.898 20.434-8.083 2.52-.793 8.762-2.018 10.465-3.027 4.911-2.393 24.49-6.543 30.656-7.909-6.379-.92-35.758-3.841-38.369-6.635-.456-.488-.363-1.083-.432-1.712 1.624-2.865 5.507-4.307 8.581-5.061 10.762-2.64 19.173.091 28.573 4.953" style="fill:url(#e)"/><path fill="#feb700" d="M340.123 375.209c9.707-10.383 24.193-21.23 35.412-32.568 6.883.984 9.212 1.09 16.063.191 1.847 6.529 6.591 11.743 9.694 17.515 7.653 14.232 10.759 36.246 10.772 52.505-16.202-4.394-36.186-4.775-52.788-2.394-8.244 1.182-17.986 4.135-26.202 3.394 6.8-13.259 5.354-24.682 7.049-38.643"/><path fill="#fef0a3" d="M369.327 358.213c1.291-.266 1.237-.217 2.552.011 1.963 2.59-3.254 39.339-4.082 45.608l-8.673.396c-1.364.126-2.171.069-2.981-.925-.041-6.178 3.059-36.675 4.71-42.294 2.472-2.693 4.829-2.439 8.474-2.796"/><path fill="#854402" d="M365.143 416.528c16.163-1.47 33.824-1.891 49.521 2.686 6.226 8.309 8.338 11.922 9.565 22.553 5.285.903 17.999 2.095 18.81 8.613-3.183 8.895-39.772 15.726-47.659 13.358-7.777 2.665-12.438 4.893-19.037-.834-9.326 2.822-52.119-5.693-49.355-15.521 4.724-5.473 20.299-7.11 27.545-8.309-2.789-.569-4.756-.532-7.579-.612.068-6.526.282-9.514 1.889-15.81 5.411-5.097 8.848-6.159 16.3-6.124"/><path fill="#feb700" d="M365.143 416.528c16.163-1.47 33.824-1.891 49.521 2.686 6.226 8.309 8.338 11.922 9.565 22.553-24.89-4.196-36.252-4.296-61.618-3.272-2.557.21-5.549.533-8.078.579-2.789-.569-4.756-.532-7.579-.612.068-6.526.282-9.514 1.889-15.81 5.411-5.097 8.848-6.159 16.3-6.124"/><path fill="#fef0a3" d="M348.843 422.652c5.411-5.097 8.848-6.159 16.3-6.124-.811 7.194-1.545 14.829-2.532 21.967-2.557.21-5.549.533-8.078.579-2.789-.569-4.756-.532-7.579-.612.068-6.526.282-9.514 1.889-15.81"/><path fill="#feb700" d="M376.343 462.904c-15.386-21.342 1.94-23.791 19.621-23.497 10.887 7.28 9.69 17.093-.584 24.331-7.777 2.665-12.438 4.893-19.037-.834"/><path fill="#fef0a3" d="M377.559 443.435c9.098.522 13.703 4.358 6.746 12.427-9.469 2.345-12.858-4.789-6.746-12.427"/><path fill="#e10802" d="m290.741 597.838-.35-.659c-1.679-3.12-4.69-6.237-3.488-10 .674-2.112 2.39-3.388 4.397-4.323 12.151-5.664 32.958-3.04 45.169 1.37 38.383 13.863 25.714 49.022 55.964 53.279 5.26.74 11.12.425 15.995-1.722 13.675-6.026 11.454-23.475 28.47-27.083 3.815-.809 8.612-.584 12.314.66 4.894 1.643 8.974 5.74 11.138 10.172 1.995 4.084 2.725 9.226 1.005 13.516-1.188 2.965-3.494 5.144-6.527 6.39-2.137.878-4.373.95-6.666.912 1.842 3.85 3.387 6.77 3.837 11.047 1.487 14.13-10.235 19.875-22.924 20.444 1.66 3.892 4.574 7.767 7.14 11.143 5.344-.066 9.867.307 15.634-.51 6.71-.443 20.6-7.712 14.728-15.62-3.304-4.45-8.631-7.302-1.432-13.986 2.592-2.406 9.04-1.783 11.819.68 10.498 9.308 7.52 25.058-1.603 34.16-8.241 8.334-18.509 10.773-30.162 10.982-10.871.127-21.767.013-32.64-.005l-60.636-.032-38.697.006c-7.353 0-14.376.061-21.907-.263-6.132.454-10.445-9.155-5.41-12.583 6.156-4.19 19.873-2.58 26.74-2.046a141 141 0 0 0 7.628-12.337c-4.297.228-9.722.241-13.571-1.625-15.58-7.55-11.334-30.473-5.432-42.355-4.57-10.81-6.826-17.668-9.686-28.988zm37.248 85.885c18.995-.412 38.036-.405 57.035-.24 11.863.102 25.331-.32 37.02.244-1.239-2.501-3.865-8.773-6.235-10.574-.39-.296-2.615-.219-3.275-.2-2.83.411-20.131.367-23.73.262-16.721-.49-35.208.172-51.675-.637-1.46.04-2.93-.22-3.768.84-2.155 2.728-3.756 7.129-5.372 10.305" style="stroke-width:.894963"/><path fill="#854402" d="M436.215 682.984c5.344-.066 9.867.307 15.634-.51 6.71-.443 20.6-7.712 14.728-15.62-3.304-4.45-8.631-7.302-1.432-13.986 2.592-2.406 9.04-1.783 11.819.68 10.498 9.308 7.52 25.058-1.603 34.16-8.241 8.334-18.509 10.773-30.162 10.982-10.871.127-21.767.013-32.64-.005l-60.636-.032-38.697.006c-7.353 0-14.376.061-21.907-.263-6.132.454-10.445-9.155-5.41-12.583 6.156-4.19 19.873-2.58 26.74-2.046a141 141 0 0 0 7.628-12.337c5.072-1.368 11.623.604 16.852 1.148-1.46.04-2.93-.22-3.768.84-2.155 2.728-3.756 7.129-5.372 10.305 18.995-.412 38.036-.405 57.035-.24 11.863.102 25.331-.32 37.02.244-1.239-2.501-3.865-8.773-6.235-10.574-.39-.296-2.615-.219-3.275-.2 6.802-.177 8.632-1.716 16.541-1.112 1.66 3.892 4.574 7.767 7.14 11.143z" style="stroke-width:.894963"/><path fill="#feb700" d="m290.741 597.838-.35-.659c-1.679-3.12-4.69-6.237-3.488-10 .674-2.112 2.39-3.388 4.397-4.323 12.151-5.664 32.958-3.04 45.169 1.37 38.383 13.863 25.714 49.022 55.964 53.279 5.26.74 11.12.425 15.995-1.722 13.675-6.026 11.454-23.475 28.47-27.083 3.815-.809 8.612-.584 12.314.66 4.894 1.643 8.974 5.74 11.138 10.172 1.995 4.084 2.725 9.226 1.005 13.516-1.188 2.965-3.494 5.144-6.527 6.39-2.137.878-4.373.95-6.666.912-3.833-3.601-3.859-5.074-4.222-9.956-4.834 1.556-7.74 1.622-12.77.763-3.058 5.585-6.106 10.624-11.895 13.962-17.558 10.128-37.788 6.71-52.035-6.574-.477.132-1.284.427-1.808.448-2.784.114-13.043-22.594-15.288-26.145-2.279-3.603-5.037-7.02-8.59-9.55-10.555-7.509-37.3-6.76-49.966-4.836z" style="stroke-width:.894963"/><path fill="#a00" d="M290.741 597.838c4.087-4.284 12.997-5.568 18.762-5.788 11.844-.452 24.316.718 33.342 8.872 12.525 11.316 13.001 24.628 24.395 37.623-.477.132-1.284.427-1.808.448-2.784.114-13.043-22.594-15.288-26.145-2.279-3.603-5.037-7.02-8.59-9.55-10.555-7.509-37.3-6.76-49.966-4.836zM431.17 631.157c3.266-5.34 8.72-10.776 16.362-9.023.956.22 1.156 1.116 1.405 1.874-.49 3.35-2.237 4.15-4.997 6.386-4.834 1.556-7.74 1.622-12.77.763" style="stroke-width:.894963"/><defs><linearGradient id="j" x1="636.297" x2="628.27" y1="831.515" y2="810.783" gradientTransform="translate(8 50)" gradientUnits="userSpaceOnUse"><stop offset="0" stop-color="#fff4da"/><stop offset="1" stop-color="#fffffc"/></linearGradient></defs><defs><linearGradient id="f" x1="882.395" x2="868.951" y1="311.176" y2="369.22" gradientTransform="translate(18 -22)" gradientUnits="userSpaceOnUse"><stop offset="0" stop-color="#e80"/><stop offset="1" stop-color="#ffb701"/></linearGradient></defs><path fill="#c8c9ce" d="M890.709 285.402c6.478 4.446 22.751 30.289 24.371 38.812 1.01 5.317.159 10.537-2.948 15.02-1.887 2.725-4.489 5.111-7.324 6.826 6.842.036 11.985 1.029 18.531 2.831 12.623 3.474 14.735 9.422 14.51 21.575l-.643 29.418c-.065 3.732-.011 13.469-.494 16.888 12.01 2.885 25.625 10.12 24.573 24.654-.461 2.344-.974 4.652-2.165 6.702-2.678 4.611-14.48 18.936-18.401 21.131-20.715 11.595-52.932 11.836-75.905 7.356-6.581-1.558-15.553-3.81-20.915-8.069-2.416-1.919-5.49-7.109-7.677-9.446-4.069-4.349-10.246-9.484-12.158-15.228-4.508-17.675 7.95-22.869 21.867-27.899 1.729-16.263-4.12-42.521 1.453-58.406 2.707-7.716 22.106-10.021 28.83-11.866l.72-.203c-20.327-18.413-1.654-37.143 9.489-54.252 1.288-1.977 2.839-3.974 4.286-5.844"/><path fill="#fdf6e6" d="M853.945 366.77c19.481 3.318 23.168 4.478 43.081 3.323.976 1.21 2.286 1.058 3.841 2.12 12.474-.823 16.026-4.068 31.706-6.68-1.342 23.795-1.725 51.187-2.37 75.01-16.115 5.228-52.789 4.853-74.629-.682-2.006-22.399-.617-49.87-1.629-73.091"/><path fill="#d88103" d="M824.064 443.872c3.487-.699 3.99 1.21 7.577 3.255 31.497 17.955 75.852 16.828 109.4 5.374 2.422-.907 4.974-1.788 7.227-3.058 3.941-2.222 8.605-7.351 13.017-8.017-.461 2.344-.974 4.652-2.165 6.702-2.678 4.611-14.48 18.936-18.401 21.131-20.715 11.595-52.932 11.836-75.905 7.356-6.581-1.558-15.553-3.81-20.915-8.069-2.416-1.919-5.49-7.109-7.677-9.446-4.069-4.349-10.246-9.484-12.158-15.228"/><path fill="#feb700" d="M824.064 443.872c-4.508-17.675 7.95-22.869 21.867-27.899.656 3.044.52 6.657.546 9.807.026 6.126.184 12.901-.008 18.967 12.921 11.828 75.214 10.175 89.884.551-.63-5.158-.341-13.909-.31-19.321-.038-3.222.323-6.01.669-9.205 12.01 2.885 25.625 10.12 24.573 24.654-4.412.666-9.076 5.795-13.017 8.017-2.253 1.27-4.805 2.151-7.227 3.058-33.548 11.454-77.903 12.581-109.4-5.374-3.587-2.045-4.09-3.954-7.577-3.255"/><path fill="#854402" d="M936.043 425.977c13.183 3.375 19.481 9.695 3.785 17.669a63 63 0 0 1-3.475 1.652c-.63-5.158-.341-13.909-.31-19.321M846.477 425.78c.026 6.126.184 12.901-.008 18.967-14.309-7.52-14.263-11.404.008-18.967"/><path fill="url(#f)" d="M890.709 285.402c6.478 4.446 22.751 30.289 24.371 38.812 1.01 5.317.159 10.537-2.948 15.02-1.887 2.725-4.489 5.111-7.324 6.826-1.983.758-5.701 2.291-7.599 2.829l-1.182-.393c-.055-3.609.485-10.634-4.552-10.811-3.658 2.247-3.175 7.18-2.895 10.993a94 94 0 0 1-11.646-3.18c-20.327-18.413-1.654-37.143 9.489-54.252 1.288-1.977 2.839-3.974 4.286-5.844" style="fill:url(#f)"/><path fill="#fefefe" d="M888.58 348.678c-.28-3.813-.763-8.746 2.895-10.993 5.037.177 4.497 7.202 4.552 10.811l1.182.393c3.124 1.077 4.625 1.171 7.9 1.567 9.909.399 21.052 1.227 27.177 9.743l.366 5.388c-11.12 2.945-19.926 6.125-32.4 6.949-.94-1.238-2.25-1.233-3.226-2.443-19.913 1.155-23.6-.005-43.081-3.323-.379-1.976-.795-4.285.184-6.082 5.197-9.534 25.562-10.748 34.394-10.086z"/><path fill="#854402" d="M888.58 348.678c-.28-3.813-.763-8.746 2.895-10.993 5.037.177 4.497 7.202 4.552 10.811-.021 4.24-.157 8.867.254 13.054-9.037 6.056-7.901-5.772-7.758-10.948z"/><path fill="#fdf6e6" d="m896.027 348.496 1.182.393c3.124 1.077 4.625 1.171 7.9 1.567-2.022-.012-3.33-.278-4.95.853-2.134 3.343-.03 4.954-1.417 8.436-1.12 1.126-1.048 1.104-2.461 1.805-.411-4.187-.275-8.814-.254-13.054"/><path fill="#53abc8" d="M376.526 805.514q.945-.048 1.891-.034c11.203.097 7.695 18.345 7.07 25.935 4.535-4.673 9.429-9.316 15.276-12.23 1.608.727 3.53 1.572 4.815 2.805a4.97 4.97 0 0 1 1.554 3.701c-.132 6.365-14.547 17.142-19.812 22.131.237 6.206-.243 8.792-1.44 14.978 4.344-4.545 13.582-16.568 19.981-15.933 6.971.692 2.207 24.886 1.487 28.533 1.806-1.176 7.084-4.504 7.913-6.146 3.117-6.818 3.465-15.054 5.173-22.429.83-3.579 5.283-17.334 10.556-13.854 8.406 5.546 2.975 20.079-.412 27.304 4.831-4.083 32.514-24.792 31.487-6.239-.237 4.279-17.728 13.02-21.443 15.043 4.031 1.16 16.861 4.416 18.407 9.068 1.63 4.909-3.061 8.595-8.21 7.872-7.834-1.1-16.365-5.093-23.771-8.069-3.548 1.849-5.541 2.983-8.849 5.213 28.034 9.524 22.684 15.394-.923 25.607 3.652 1.978 5.368 2.744 9.261 4.205 9.894-2.408 15.701-6.686 27.328-8.001 14.62 8.414-5.282 15.329-12.485 17.456 8.31 4.911 30.155 13.056 12.638 22.59-6.49-2.999-15.377-8.177-21.773-11.662 1.176 3.282 6.191 15.782 3.566 18.216-14.147 13.117-15.251-19.557-19.402-26.017-1.486-2.312-6.137-6.196-8.265-8.137 1.23 4.884 4.361 21.269 1.787 24.985-4.354 6.288-18.89-6.009-22.942-9l.104 8.495c4.694 3.849 23.999 17.775 23.446 21.587-2.542 17.55-20.553-.846-23.339-3.756.505 5.401 1.549 14.514-.068 19.525-.947 2.937-2.203 3.668-4.825 4.888a56 56 0 0 1-1.582.007c-9.184-.141-6.807-18.395-6.648-24.805q-.377.488-.776.957c-3.369 4.032-8.901 10.609-14.515 11.082-3.729.315-7.398-3.972-7.246-7.653 2.987-6.055 17.154-16.631 22.994-21.787-.299-3.196-.444-6.293-.602-9.497-23.477 19.102-25.045 15.11-21.734-13.565a623 623 0 0 0-7.9 5.079c-.902 5.695-3.575 25.276-6.711 27.625-15.446 11.566-9.777-14.225-9.036-18.437-5.205 4.028-28.76 21.778-27.625 4.585.305-4.612 15.749-12.766 19.791-15.212-5.162-1.701-12.585-3.921-16.405-7.896-2.036-2.119-1.199-7.086 1.385-8.162 8.548-3.557 21.821 4.037 30.231 6.526 3.877-1.073 7.465-2.683 11.022-4.524-6.073-1.852-21.096-5.625-23.333-11.577-2.216-5.899 15.734-12.332 20.05-13.76-2.788-1.693-4.885-3.027-7.538-4.927-9.037 2.71-18.832 6.662-27.823 8.934-17.145-10.358 3.596-16.202 13.035-17.413-3.312-1.8-36.269-17.334-16.377-23.443 5.233-1.607 17.624 8.35 22.909 12.162-2.323-5.893-8.965-21.06 1.629-22.859 4.941-.342 8.586 8.923 9.624 12.516 4.062 14.058 4.796 19.332 15.756 29.06-6.233-30.555-11.494-45.345 19.49-16.663-.115-2.549-.313-8.897-1.173-11.249-2.598-7.103-25.584-19.341-20.889-27.79 7.107-6.15 15.839 4.447 20.72 9.284-.967-5.405-1.896-14.414-.696-19.81.675-3.031 1.718-3.838 4.192-5.418m26.437 95.22c1.831-.439 4.243-1.097 6.044-1.417 4.151-1.094 6.867-2.27 10.865-3.933-3.648-1.281-12.866-4.764-16.204-4.93-3.218 1.378-7.584 3.097-10.498 4.829 3.745 3.315 5.015 3.86 9.793 5.451m-37.212 10.228c-.689 2.796-3.147 13.749-1.928 15.839l.587-.221c3.876-3.447 9.909-7.998 10.394-13.504.147-1.672-.474-4.433-1.851-5.53-3.135 1.186-4.386 1.578-7.202 3.416m-20.108-14.86c3.35.972 7.071 2.544 10.358 3.841 3.466-.798 7.847-2.552 11.35-3.747a78 78 0 0 0-12.806-5.816c-3.535.983-7.465 2.484-11.235 3.578l-1.411.763.271.564zm19.245-29.936c.812 6.964 2.569 18.297 10.363 20.691-.936-8.389-2.269-16.17-10.363-20.691m34.199 62.716c-1.396-9.437-2.58-16.603-12.432-20.742-1.544 11.33 4.497 14.178 12.432 20.742m-1.588-62.827c-4.812 3.385-9.555 7.313-10.933 13.324-.374 1.63-.76 5.144.212 6.514 5.377-3.335 8.116-5.799 10.124-12.425.389-1.285 1.115-6.399.597-7.413"/><path fill="#fefefe" fill-opacity=".035" d="m345.643 896.102-3.473-.817-.271-.564 1.411-.763 1.985.742c.112.41.306 1.003.348 1.402"/><path fill="#feb700" d="M891.447 560.387c6.833 1.644 24.508 51.968 26.782 61.028 10.859.134 55.577.252 62.309 5.08.234 1.182.712 2.429-.126 3.402-11.517 13.372-30.233 28.187-43.179 39.46 2.955 10.759 15.422 54.348 13.685 62.991-5.684.045-24.061-12.5-30.138-16.136-8.766-5.244-19.427-11.073-27.703-16.94-13.725 8.505-27.238 16.134-41.494 23.71-4.275 2.272-13.483 8.288-17.327 9.129-3.634-4.306.887-14.395 2.373-19.635 4.093-14.439 9.066-28.837 12.828-43.361-5.348-2.327-42.124-34.645-48.033-39.871.037-.915.272-1.676.945-2.348 5.149-5.141 54.06-5.697 63.785-6.034 2.047-9.115 20.113-53.325 25.293-60.475"/><path fill="#d88103" d="M801.424 629.244c10.025-1.327 38.716 9.143 49.164 12.425 10.821 3.4 30.831 7.523 40.366 12.552.001 6.316-.546 42.024 2.123 45.051-13.725 8.505-27.238 16.134-41.494 23.71-4.275 2.272-13.483 8.288-17.327 9.129-3.634-4.306.887-14.395 2.373-19.635 4.093-14.439 9.066-28.837 12.828-43.361-5.348-2.327-42.124-34.645-48.033-39.871"/><path fill="#feb700" d="m849.457 669.115.893-.342c3.432-1.285 6.7-1.888 10.389-3.421 9.773-4.063 19.394-8.246 29.227-12.19-17.663 23.242-33.921 48.032-50.744 71.89-1.658 2.35-3.397 4.649-4.966 7.059-3.634-4.306.887-14.395 2.373-19.635 4.093-14.439 9.066-28.837 12.828-43.361"/><path fill="#d88103" d="M980.538 626.495c.234 1.182.712 2.429-.126 3.402-11.517 13.372-30.233 28.187-43.179 39.46 2.955 10.759 15.422 54.348 13.685 62.991-3.688-4.004-12.17-17.234-16.024-22.445-10.266-13.879-20.494-28.035-30.651-42.003-3.954-5.437-5.629-10.262-10.213-15.262 2.824-.778 5.748-1.773 8.542-2.692 25.748-8.467 52.458-14.229 77.966-23.451M891.447 560.387c6.833 1.644 24.508 51.968 26.782 61.028-7.931 9.485-16.421 17.662-24.539 27.663-1.911-30.179.021-59.796-2.243-88.691"/><defs><linearGradient id="g" x1="617.901" x2="532.775" y1="385.065" y2="418.408" gradientTransform="translate(8 -18)" gradientUnits="userSpaceOnUse"><stop offset="0" stop-color="#063802"/><stop offset="1" stop-color="#1c6801"/></linearGradient></defs><defs><linearGradient id="h" x1="645.915" x2="732.731" y1="387.343" y2="412.086" gradientTransform="translate(8 -18)" gradientUnits="userSpaceOnUse"><stop offset="0" stop-color="#073b02"/><stop offset="1" stop-color="#155e01"/></linearGradient></defs><path fill="url(#g)" d="M537.609 333.085c15.081.768 26.321 2.322 37.266-10.242 11.908 10.532 14.884 13.175 30.659 7.659a47.5 47.5 0 0 0 5.108 10.665c2.29 3.584 6.996 9.351 11.267 10.291 10.931-10.804 24.689-9.869 35.699.189 3.121 8.033 7.172 17.751-1.45 23.685l1.332 3.952c-17.444 10.469-10.819 18.896-9.321 35.203-1.528-2.117-3.063-4.198-4.489-6.385-1.825 2.32-3.542 4.705-5.81 6.591-2.513 1.634-5.122 3.435-7.81 4.73-4.954 2.399-3.842 4.321-4.55 9.496-.46 3.366-.89 5.147-1.902 8.352-16.315-6.468-21.576-5.404-32.759 8.262a129 129 0 0 0-1.968-1.656c-12.985-10.7-21.554-4.327-35.329-3.099l-.691.058c7.925-11.597 12.142-17.99 11.068-32.139 5.64-2.661 20.966-9.933 23.855-14.764l-.322-.622c-3.944-.435-10.249 2.347-14.116 3.821-1.036-18.019-7.437-21.222-24.581-21.154 3.022-19.995.619-25.613-11.156-42.893" style="fill:url(#g)"/><path fill="#e10802" d="M621.909 351.458c10.931-10.804 24.689-9.869 35.699.189 3.121 8.033 7.172 17.751-1.45 23.685l1.332 3.952c-17.444 10.469-10.819 18.896-9.321 35.203-1.528-2.117-3.063-4.198-4.489-6.385-1.825 2.32-3.542 4.705-5.81 6.591-2.513 1.634-5.122 3.435-7.81 4.73-15.281.425-31.421-.044-32.158-20.258-.477-13.082 8.367-21.756 21.304-21.667 1.416 1.139 2.132 1.298 3.806 1.928.749-2.027.875-2.267 2.078-4.077-1.23-.904-2.441-1.555-3.758-2.327-6.583-7.597-2.359-14.019.577-21.564"/><path fill="#e10802" d="M621.909 351.458c10.931-10.804 24.689-9.869 35.699.189 3.121 8.033 7.172 17.751-1.45 23.685l-.879.341c-12.487 4.913-17.408 9.866-30.189-.324-1.23-.904-2.441-1.555-3.758-2.327-6.583-7.597-2.359-14.019.577-21.564"/><path fill="#febeb8" d="M639.45 350.05c5.349 1.451 8.691 6.148 4.689 11.216-1.618 2.049-4.106 1.964-6.542 2.199-11.057-2.282-7.212-11.289 1.853-13.415"/><path fill="#a00" d="M625.09 375.349c12.781 10.19 17.702 5.237 30.189.324l.879-.341 1.332 3.952c-17.444 10.469-10.819 18.896-9.321 35.203-1.528-2.117-3.063-4.198-4.489-6.385-1.825 2.32-3.542 4.705-5.81 6.591-1.179-5.691 3.914-15.657.54-23.357-2.979-6.798-8.977-9.208-15.398-11.91.749-2.027.875-2.267 2.078-4.077"/><path fill="#febeb8" d="M614.041 382.92c3.121.065 6.018.64 7.855 3.458a5.9 5.9 0 0 1 .796 4.661c-.7 2.827-2.518 4.125-4.808 5.615-11.852-.206-11.494-7.028-3.843-13.734"/><path fill="#6b0b00" d="M621.332 373.022c1.317.772 2.528 1.423 3.758 2.327-1.203 1.81-1.329 2.05-2.078 4.077-1.674-.63-2.39-.789-3.806-1.928-.839-2.076-1.343-1.273-2.133-2.814a99 99 0 0 1 4.259-1.662"/><path fill="#083d02" d="m591.122 386.816.836.479c-.206 1.723-.703 1.75-2.048 3.375-.332-.139-.919-.551-1.248-.763.27-1.662.835-1.619 2.46-3.091"/><path fill="url(#h)" d="M670.653 332.583c17.674 1.097 19.156 2.154 33.018-10.043 5.264 5.809 9.538 9.697 18.058 9.887 6.52.145 16.162-.449 22.464-1.615-12.617 15.06-17.681 24.341-12.978 44.088-5.419-.078-13.939.303-17.796 4.435-4.031 4.319-3.891 9.636-5.913 14.573-3.805-1.062-8.668-2.524-12.612-1.977l-.819.739.024.484c10.816 6.203 17.854 12.51 29.12 18.239-3.9 11.869 1.543 18.768 8.415 28.15-14.494-4.557-23.948-3.418-36.002 5.672-3.439-4.78-4.509-6.569-9.671-9.582-8.278-2.667-11.064-1.45-18.823 2.124-.124-5.741-.972-9.882-3.682-14.933-1.506-.792-3.445-1.642-5.015-2.387-4.832-1.701-6.399-2.604-10.272-5.95-1.498-16.307-8.123-24.734 9.321-35.203l-1.332-3.952c8.622-5.934 4.571-15.652 1.45-23.685 6.158-6.226 8.661-11.42 13.045-19.064" style="fill:url(#h)"/><path fill="#e10802" d="M657.49 379.284c29.382-10.812 41.851 21.118 21.556 35.958-9.132 4.429-10.525 4.703-20.605 5.195-4.832-1.701-6.399-2.604-10.272-5.95-1.498-16.307-8.123-24.734 9.321-35.203"/><path fill="#febeb8" d="M666.257 380.881c4.885.947 8.636 4.625 6.682 9.908-1.154 3.12-3.284 3.793-6.147 5.031-12.089-3.159-8.357-9.392-.535-14.939"/><path fill="#083d02" d="M679.046 415.242c-.297 1.989-.372 2.121-1.723 3.612.307 4.815 13.539 8.957 8.638 16.779-8.278-2.667-11.064-1.45-18.823 2.124-.124-5.741-.972-9.882-3.682-14.933-1.506-.792-3.445-1.642-5.015-2.387 10.08-.492 11.473-.766 20.605-5.195"/><path fill="#165f01" d="M118.709 70.06c4.488-2.654 8.285-4.759 13.284-6.309 4.514 1.872 9.353 4.978 13.684 7.432a209 209 0 0 0 10.23 12.237c4.936 5.482 32.256 33.356 31.909 37.3-2.294 3.61-8.77 5.817-12.802 6.901.18 1.283 1.07 2.092 1.92 3.138 4.507 4.988 26.408 27.12 25.875 31.761-.116 1.008-1.178 1.92-1.993 2.419-3.042 1.86-7.372 2.38-10.856 2.88 3.283 3.604 29.199 28.63 22.4 32.156-17.322 8.982-44.07 8.16-63.263 9.191.686 2.433 3.143 10.97 2.722 13.114-2.058 10.483-18.564 11.109-26.212 9.826-16.526-2.77-16.47-8.761-13.848-22.955-18.756-1.5-45.398.113-62.198-8.648-8.334-4.346 18.653-28.38 22.482-32.375-4.159-.975-11.065-1.967-13.163-5.905.045-4.304 25.647-29.708 30.321-34.894-3.39-.942-13.293-3.272-13.912-6.58-.767-4.097 11.216-15.37 13.792-18.013a872 872 0 0 0 20.386-21.188c2.992-3.28 7.114-7.69 9.242-11.488" style="stroke-width:.893794"/><path fill="url(#i)" d="M111.76 209.151c11.734-.082 26.163.868 37.337.015.686 2.433 3.143 10.97 2.722 13.114-2.058 10.483-18.564 11.11-26.212 9.826-16.526-2.77-16.47-8.761-13.848-22.955" style="fill:url(#i);stroke-width:.893794"/><path fill="#e10802" d="M139.935 124.057c2.583-7.416 4.833-7.919 12.011-9.765 4.784 2.548 5.8 3.719 8.53 8.22-.45 3.438-.66 5.449-2.145 8.686-1.565.843-3.44 1.92-5.032 2.638-9.135 1.599-10.93-1.843-13.364-9.78" style="stroke-width:.893794"/><path fill="#febeb8" d="M149.436 115.653c7.339.146 8.643 3.207 4.21 9.108-3.032-.24-5.518-.365-6.883-3.436-.133-2.873.724-3.468 2.673-5.672" style="stroke-width:.893794"/><path fill="#083d02" d="M160.476 122.511q1.326.675 2.672 1.302c3.805 1.818 7.1 1.397 10.877 2.37.418.108.727.946.99 1.438.18 1.283 1.069 2.092 1.918 3.138-5.022 3.385-14.43 4.546-20.358 4.798-2.38-.614-3.278-.502-5.701-.479l2.063-.559.362-.683c1.591-.718 3.467-1.795 5.032-2.638 1.484-3.237 1.694-5.248 2.145-8.687" style="stroke-width:.893794"/><path fill="#e10802" d="M96.388 133.587c5.396-.014 10.026.836 12.499 6.402a11.68 11.68 0 0 1 .103 9.072c-1.82 4.439-4.838 6.189-8.979 7.834-8.817.017-16.707-6.793-13.257-16.271 1.533-4.212 5.783-5.575 9.634-7.037" style="stroke-width:.893794"/><path fill="#febeb8" d="M98.067 133.92c7.7.981 7.62 5.348 2.062 9.726-6.696-1.732-9.98-5.669-2.062-9.726" style="stroke-width:.893794"/><path fill="#feb700" d="M119.91 165.602c6.24-1.18 12.248 2.94 13.395 9.185s-3.006 12.232-9.257 13.346c-6.204 1.104-12.136-3.01-13.274-9.208s2.944-12.151 9.136-13.323" style="stroke-width:.893794"/><path fill="#fef0a3" d="M121.293 166.13c8.593.179 8.887 6.166 4.367 12.122-7.666.228-9.451-6.865-4.367-12.123" style="stroke-width:.893794"/><path fill="#feb700" d="M79.928 175.355a10.655 10.655 0 1 1 5.124 20.685 10.655 10.655 0 0 1-5.124-20.685" style="stroke-width:.893794"/><path fill="#fef0a3" d="M79.928 175.355c3.177-.787 6.54-.07 9.12 1.944.472 1.509 1.104 3.006.547 4.582-1.195 3.376-5.402 4.987-8.66 3.562a4.93 4.93 0 0 1-2.759-3.054c-.867-2.72.47-4.742 1.752-7.034" style="stroke-width:.893794"/><path fill="#feb700" d="M169.172 140.531c5.399-1.481 10.976 1.692 12.462 7.089s-1.684 10.977-7.081 12.465c-5.401 1.49-10.987-1.683-12.474-7.085-1.486-5.402 1.69-10.985 7.093-12.469" style="stroke-width:.893794"/><path fill="#fef0a3" d="M171.104 141.833c3.926.604 4.285 1.636 6.844 4.753l-2.987 4.664c-5.99.932-6.304-5.227-3.857-9.417" style="stroke-width:.893794"/><path fill="#feb700" d="M121.681 80.209a9.415 9.415 0 1 1 3.753 18.452 9.415 9.415 0 0 1-3.753-18.452" style="stroke-width:.893794"/><path fill="#fef0a3" d="M122.207 81.258c2.3.19 3.81.019 5.182 2.074.61 2.606-.573 4.044-1.902 6.294-5.381-.952-7.301-3.953-3.28-8.368" style="stroke-width:.893794"/><path fill="#e10802" d="M172.756 177.626c1.547.1 2.92.132 4.44.466 2.712.634 4.121 1.34 5.107 3.923 5.47 13.727-12.398 19.65-17.341 6.937-2.264-5.823 2.528-10.255 7.794-11.326" style="stroke-width:.893794"/><path fill="#febeb8" d="M172.756 177.626c1.547.1 2.92.132 4.44.466 8.165 11.41-14.647 10.375-4.44-.466" style="stroke-width:.893794"/><path fill="#e10802" d="M108.933 107.522c4.131.513 8.185 3.272 7.336 7.782-2.605 13.825-22.488.043-9.877-6.636z" style="stroke-width:.893794"/><path fill="#febeb8" d="M108.933 107.522c2.144 2.119 4.207 3.831 2.652 7.068-4.475 3.423-6.512-1.334-5.193-5.922z" style="stroke-width:.893794"/><path fill="#e10802" d="m149.218 91.91 4.196.319c6.997 6.789.69 12.98-5.392 10.558-5.325-2.12-7.009-8.321 1.196-10.877" style="stroke-width:.893794"/><path fill="#febeb8" d="m149.218 91.91 4.196.319-.332 1.381c-.532 2.272-.452 3.233-2.8 4.274-2.975-.702-1.696-3.888-1.064-5.974" style="stroke-width:.893794"/><path fill="#feb700" d="M132.05 146.295a6.072 6.072 0 1 1 3.63 11.59 6.073 6.073 0 0 1-3.63-11.59" style="stroke-width:.893794"/><path fill="#083d02" d="m186.173 168.67-.011.652c-2.878 1.744-10.604 2.472-14.208 2.977l.005-.632c2.112-2.306 11.004-2.703 14.214-2.997z" style="stroke-width:.893794"/><path fill="#feb700" d="M122.023 38.597c10.65-16.359 9.942-13.018 18.873.846 7.008.704 8.48-.635 13.641 4.042-1.62 4.077-5.331 7.47-7.487 10.33.962 6.925 2.584 11.5-1.373 17.368-4.331-2.454-9.17-5.56-13.684-7.432-4.999 1.55-8.796 3.655-13.284 6.309-3.126-6.347-2.895-9.711-1.987-16.705-7.298-10.296-8.959-12.728 5.3-14.758" style="stroke-width:.893794"/><path fill="#e10802" d="M558.895 867.028c-.608-25.253 53.548-27.893 71.693-29.184 6.23 1.04 8.184 6.413 10.872 11.514l1.409 1.14c2.102-1.96 2.954-2.82 4.433-5.303.781-2.525 1.18-5.373 3.68-6.507 18.623 2.467 54.484 6.182 54.575 31.191 29.513-6.934 43.306 22.893 27.868 45.064-11.17 16.04-22.737 21.974-42.079 21.724-3.747 6.306-18.076 26.41-23.759 30.514-16.417 11.858-50.09 11.278-67.551 1.272-4.894-2.804-7.436-8.336-11.066-12.432-1.934-2.174-4.177-3.638-6.164-5.508a60 60 0 0 1-2.146-2.177c-20.295-21.459-22.569-53.263-21.765-81.308m140.748 51.962c4.576-1.45 6.359-1.891 10.521-4.151 5.569-4.257 11.324-9.655 12.422-16.888 1.451-9.556-6.205-11.919-13.866-11.819-1.225.473-2.584.757-3.058 2.158-3.106 9.185-3.822 21.371-6.019 30.7"/><path fill="#fe2719" d="M558.895 867.028c-.608-25.253 53.548-27.893 71.693-29.184 6.23 1.04 8.184 6.413 10.872 11.514l1.409 1.14c2.102-1.96 2.954-2.82 4.433-5.303.781-2.525 1.18-5.373 3.68-6.507 18.623 2.467 54.484 6.182 54.575 31.191C697 877.944 691.714 883.031 679.86 886c-5.828.952-11.616 2.417-17.575 3.277a203.8 203.8 0 0 1-59.747-.059c-13.827-2.089-31.575-6.457-39.835-18.528-1.611-2.355-1.61-2.86-3.808-3.662"/><path fill="#fdf6e6" d="M611.92 844.042c8.002-2.071 16.893-3.865 23.607 2.431l-2.717 2.783c1.391 2.252 1.61 2.661 2.342 5.196-.072 2.939.192 3.817-1.147 6.383-2.686 2.243-4.6 3.648-7.489 5.636-6.664 2.086-9.872.524-16.165-1.795l-.549 3.286c-5.176-.48-7.236 2.456-11.163 2.116-6.881-.596-8.736-2.482-16.2-1.859-1.073-4.598-.216-5.718 1.703-10.252.854-2.699 2.717-3.163 2.735-6.076-1.54-1.477-1.124-1.028-3.44-1.656 6.806-2.388 21.18-4.962 28.483-6.193"/><path fill="#c60200" d="M611.92 844.042c8.002-2.071 16.893-3.865 23.607 2.431l-2.717 2.783c-6.494-5.963-9.667-5.958-17.774-4.065-5.066 2.638-6.997 4.715-9.119 9.963-8.905-7.419-13.503-3.485-21.775 2.813.854-2.699 2.717-3.163 2.735-6.076-1.54-1.477-1.124-1.028-3.44-1.656 6.806-2.388 21.18-4.962 28.483-6.193"/><path fill="#fad9b7" d="M610.351 864.676c-.362-3.116-2.663-5.851-4.458-8.487 3.099 2.31 5.538 3.939 8.817 5.999 4.143-.431 15.776-1.879 19.295-1.353-2.686 2.243-4.6 3.648-7.489 5.636-6.664 2.086-9.872.524-16.165-1.795"/><path fill="#6b0b00" d="M583.437 850.235c2.316.628 1.9.179 3.44 1.656-.018 2.913-1.881 3.377-2.735 6.076-1.919 4.534-2.776 5.654-1.703 10.252 7.464-.623 9.319 1.263 16.2 1.859 3.927.34 5.987-2.596 11.163-2.116l.549-3.286c6.293 2.319 9.501 3.881 16.165 1.795l.569.57c-1.199 2.843-2.834 5.943-1.529 9.012 2.411 5.665 10.502 6.086 15.728 6.027-3.302 2.661 1.075 1.193-2.661 2.881-4.178.295-11.954.282-15.978-.428-13.65-.3-34.37-4.297-46.144-10.896-2.396-.884-6.465-4.942-7.499-7.287-3.471-7.869 8.815-13.958 14.435-16.115"/><path fill="#fad9b7" d="M582.439 868.219c7.464-.623 9.319 1.263 16.2 1.859 3.927.34 5.987-2.596 11.163-2.116-6.812 10.716-20.09 10.655-27.363.257"/><path fill="#370100" d="M576.501 873.637c6.125.528 16.323 5.4 23.421 6.516 7.545 1.185 15.361 2.333 22.781 3.924l-.058.456c-13.65-.3-34.37-4.297-46.144-10.896"/><path fill="url(#j)" d="M635.527 846.473c1.786.952 4.062 2.278 5.933 2.885l1.409 1.14c2.284 2.513 3.524 3.602 6.129 5.791l-1.697 2.531-2.208.452c4.071.541 6.917 5.14 10.163 7.645.841 1.684 1.578 3.101 2.251 4.857-1.705 5.317-3.46 7.387-8.868 9.442-2.304.281-5.083.7-7.355.864-5.226.059-13.317-.362-15.728-6.027-1.305-3.069.33-6.169 1.529-9.012l-.569-.57c2.889-1.988 4.803-3.393 7.489-5.636 1.339-2.566 1.075-3.444 1.147-6.383-.732-2.535-.951-2.944-2.342-5.196z" style="fill:url(#j)"/><path fill="#6b0b00" d="M635.527 846.473c1.786.952 4.062 2.278 5.933 2.885l1.409 1.14c2.284 2.513 3.524 3.602 6.129 5.791l-1.697 2.531-2.208.452c-3.682-.414-5.709-.18-9.248.982-.291-1.978-.493-3.813-.693-5.802-.732-2.535-.951-2.944-2.342-5.196z"/><path fill="#e99c0e" d="M635.152 854.452c.2 1.989.402 3.824.693 5.802-2.863 3.469-4.956 4.69-8.76 6.787l-.569-.57c2.889-1.988 4.803-3.393 7.489-5.636 1.339-2.566 1.075-3.444 1.147-6.383"/><path fill="#fdf6e6" d="M665.059 848.644c5.12.373 6.664.266 11.171 2.978 3.872 5.209 4.761 7.864 2.999 14.273-7.173 8.01-11.53 8.129-21.722 5.879-.673-1.756-1.41-3.173-2.251-4.857-3.246-2.505-6.092-7.104-10.163-7.645l2.208-.452 1.697-2.531c5.801-4.6 9.03-5.76 16.061-7.645"/><path fill="#fad9b7" d="M647.301 858.82c2.317.716 5.727 2.156 7.659 3.665 6.209 2.162 9.361-.051 12.601 3.159 4.94 2.682 6.02-.775 11.668.251-7.173 8.01-11.53 8.129-21.722 5.879-.673-1.756-1.41-3.173-2.251-4.857-3.246-2.505-6.092-7.104-10.163-7.645z"/><path fill="#fabf91" d="M647.301 858.82c2.317.716 5.727 2.156 7.659 3.665 1.269 2.738 2.11 4.045 5.343 4.371 1.45.601 2.684.985 3.888 1.986l.003.753c-6.066-.231-4.512-1.071-8.938-2.678-3.246-2.505-6.092-7.104-10.163-7.645z"/><path fill="#6b0b00" d="M676.23 851.622c5.853-5.822 20.327 4.645 19.433 12.397-.721 6.248-6.599 9.521-11.649 11.751l-.818-.429c-8.803 3.581-25.44 10.496-34.557 5.875 5.408-2.055 7.163-4.125 8.868-9.442 10.192 2.25 14.549 2.131 21.722-5.879 1.762-6.409.873-9.064-2.999-14.273"/><path fill="#a00" d="M647.302 845.195c4.747-.461 16.284-.653 20.198 2.063l.248.796c-1.078.298-1.587.422-2.689.59-7.031 1.885-10.26 3.045-16.061 7.645-2.605-2.189-3.845-3.278-6.129-5.791 2.102-1.96 2.954-2.82 4.433-5.303"/><path fill="#370100" d="M648.639 881.216c9.117 4.621 25.754-2.294 34.557-5.875l.818.429c-11.072 5.806-33.06 10.157-45.391 9.191 3.736-1.688-.641-.22 2.661-2.881 2.272-.164 5.051-.583 7.355-.864"/><path fill="#a00" d="M705.557 869.879c29.513-6.934 43.306 22.893 27.868 45.064-11.17 16.04-22.737 21.974-42.079 21.724-3.747 6.306-18.076 26.41-23.759 30.514-16.417 11.858-50.09 11.278-67.551 1.272-4.894-2.804-7.436-8.336-11.066-12.432-1.934-2.174-4.177-3.638-6.164-5.508.4-.786.781-1.473 1.209-2.242 2.282-1.057 5.484.474 7.721 1.319 11.989 4.529 42.468 2.769 54.037-2.16 16.194-6.899 24.773-22.072 28.584-38.63 1.767-7.679 2.495-15.45 5.503-22.8 11.854-2.969 17.14-8.056 25.697-16.121m-5.914 49.111c4.576-1.45 6.359-1.891 10.521-4.151 5.569-4.257 11.324-9.655 12.422-16.888 1.451-9.556-6.205-11.919-13.866-11.819-1.225.473-2.584.757-3.058 2.158-3.106 9.185-3.822 21.371-6.019 30.7"/><path fill="#fe2719" d="M580.693 892.465c1.611.01 4.451.535 6.139.794 1.752 6.346 6.287 29.099 4.721 36.308-.133.615-1.086.802-1.871 1.137-9.352-7.315-12.471-17.791-12.505-29.408-.012-3.972.654-6.214 3.516-8.831"/><path fill="#c8c9ce" d="M623.316 822.265c2.027-7.826 4.785-8.472 7.194-15.409 1.188-3.42-1.46-7.789 1.381-11.643 2.972-1.319 6.192 3.188 7.064 5.622 3.246 9.053-2.607 18.252-5.648 26.441 1.048 3.602 2.883 6.992 4.559 10.359 1.769-3.238 3.045-5.728 5.324-8.632 2.871-3.658 6.994-7.07 9.466-10.839-.208-3.891-1.525-9.721.467-12.186.96-.291 1.814-.576 2.655.198 8.934 8.219 4.764 21.153-2.242 29.158-.98 1.119-1.622 2.472-2.554 3.354-2.5 1.134-2.899 3.982-3.68 6.507-1.479 2.483-2.331 3.343-4.433 5.303l-1.409-1.14c-2.688-5.101-4.642-10.474-10.872-11.514-3.565-5.86-5.821-8.928-7.272-15.579"/><path fill="#fefefe" d="M342.806 40.525c11.576-11.044 52.172-13.573 64.539-.413 2.734 2.911-.23 17.026-1.01 21.386l-.208 4.935c6.852 1.124 15.296 5.116 19.62 10.685 4.59 5.914-.266 11.551-6.316 13.33 3.864 12.038 3.73 24.084-2.628 35.368 5.93 5.513 6.374 9.912 6.828 17.931 1.653 1.231 2.028 1.604 3.9 2.355 1.523 2.774 2.218 4.06 4.628 6.317l1.61-.294c7.48 7.215 12.25 20.916 12.447 31.089a42.95 42.95 0 0 1-12.09 30.802c-29.654 30.326-116.427 22.157-116.952-30.834-.066-6.687 3.798-23.346 9.564-26.998 1.861-.926 2.857-2.272 4.284-3.813.78-.941 1.437-1.484 1.526-2.67 1.317-1.587 2.533-2.48 4.05-4.436-3.087-6.55-1.68-12.028 1.953-17.89-3.043-8.329-4.683-14.709-5.307-23.72-.201-2.895.972-8.944-.138-10.71-11.204-4.808-9.569-13.804-.214-19.584 4.137-2.557 7.758-3.871 12.43-5.108l-.652-3.876c-1.644-7.954-4.198-16.162-1.864-23.852" style="stroke-width:.890191"/><path fill="#fefefe" d="m413.525 125.565 3.278.251c5.93 5.513 6.374 9.912 6.828 17.931 1.653 1.231 2.028 1.604 3.9 2.355 1.524 2.774 2.218 4.06 4.628 6.317l1.61-.294c7.48 7.215 12.25 20.916 12.448 31.089a42.95 42.95 0 0 1-12.09 30.802c-29.655 30.326-116.428 22.157-116.953-30.834-.066-6.687 3.798-23.346 9.564-26.998 1.861-.926 2.857-2.272 4.284-3.813.78-.941 1.437-1.484 1.526-2.67 1.317-1.587 2.533-2.48 4.05-4.436 12.034 10.798 38.91 12.262 54.059 9.686 1.183-1.397 2.485-1.547 4.226-2.009q2.737-.846 5.451-1.758c5.357-7.95 2.356-10.89 2.144-19.653l-.01-.6c2.076-.9 4.194-2.024 6.222-3.048 1.48-.776 3.3-1.585 4.835-2.318z" style="stroke-width:.890191"/><path fill="#c60200" d="m413.525 125.565 3.278.251c5.93 5.513 6.374 9.912 6.828 17.931-1.412 1.332-2.815 2.638-4.178 4.022 3.33 8.16 8.36 20.87 7.074 30.136-.388 2.796-4.775 2.597-6.993 2.631.8 3.608 1.914 6.848.823 10.366-1.037 1.115-.408.76-2.009.99-1.226-.41-1.691-1.176-2.55-2.165l-.61.194c-.53 1.516-.831 2.832-1.866 4.038l-.943.16c-1.655-1.51-2.176-2.811-3.77-3.11-.873 1.026-.947 2.296-1.223 3.664-1.501.832-2.562 1.653-4.239 1.649-2.569-1.43-1.58-6.34-1.505-9.19-.78 2.943-3.018 9.893-6.741 9.71-1.632-1.35-1.999-4.34-2.15-6.402-.825-11.339 1.59-24.587-2.094-35.489 1.183-1.397 2.485-1.547 4.226-2.009q2.737-.846 5.451-1.758c5.357-7.95 2.356-10.89 2.144-19.653l-.01-.6c2.076-.9 4.194-2.024 6.222-3.048 1.48-.776 3.3-1.585 4.835-2.318z" style="stroke-width:.890191"/><path fill="#a00" d="M402.469 130.931c2.075-.9 4.193-2.024 6.221-3.048 8.054 6.236 4.099 11.55 10.495 19.924-4.56 1.796-19.636 7.523-24.302 5.135q2.737-.846 5.451-1.758c5.357-7.95 2.356-10.89 2.144-19.653z" style="stroke-width:.890191"/><path fill="#c8c9ce" d="M331.022 152.37c.696 1.034 1.446 1.595.978 2.921-1.282 3.625-2.796 7.24-4.046 10.87-8.715 25.312 4.17 46.731 29.27 54.58 20.226 6.325 42.391 4.594 61.514-4.846 8.715-4.385 15.207-11.248 18.12-20.642 3.81-12.279 1.37-24.091-3.65-35.602-1.026-2.354-2.934-5.416-1.05-7.232l1.612-.294c7.48 7.215 12.25 20.916 12.446 31.089a42.95 42.95 0 0 1-12.09 30.802c-29.654 30.326-116.427 22.157-116.952-30.834-.066-6.687 3.798-23.346 9.564-26.998 1.861-.926 2.857-2.272 4.284-3.813" style="stroke-width:.890191"/><path fill="#2a2424" d="M374.82 184.645a6.662 6.662 0 1 1 2.626 13.062 6.662 6.662 0 0 1-2.626-13.062M375.057 165.077a6.17 6.17 0 1 1 1.724 12.221 6.17 6.17 0 0 1-1.724-12.22M342.806 40.525c11.576-11.044 52.172-13.573 64.539-.413 2.734 2.911-.23 17.026-1.01 21.386l-.208 4.935c-4.461.065-9.943-.946-14.457-1.486a126 126 0 0 0-18.119-.784c-9.636.353-20.54 3.91-28.229 4.09l-.652-3.876c-1.644-7.954-4.198-16.162-1.864-23.852" style="stroke-width:.890191"/><path fill="#e10802" d="M344.67 64.377c9.486-7.616 31.167-7.466 42.74-6.914 3.303.157 16.614 1.798 18.925 4.035l-.208 4.935c-4.461.065-9.943-.946-14.457-1.486a126 126 0 0 0-18.119-.784c-9.636.353-20.54 3.91-28.229 4.09zM341.503 125.666c15.26 9.566 34.293 11.991 51.727 8.03a69 69 0 0 0 9.239-2.765l.009.6c.212 8.762 3.213 11.703-2.144 19.653q-2.715.912-5.451 1.758c-1.74.462-3.043.612-4.226 2.01-15.148 2.575-42.025 1.111-54.06-9.687-3.086-6.55-1.68-12.028 1.955-17.89.965-.893 1.768-1.164 2.951-1.71z" style="stroke-width:.890191"/><path fill="#2a2424" d="M345.322 68.253c7.689-.18 18.593-3.737 28.23-4.09 6.05-.173 12.105.089 18.118.784 4.514.54 9.996 1.551 14.457 1.486 6.852 1.124 15.296 5.116 19.62 10.685 4.59 5.914-.266 11.551-6.316 13.33l-2.881.588c-2.079-5.27-5.241-9.774-10.802-11.781-19.22-6.938-59.39-8.819-69.428 13.496-1.047.02-2.163.122-3.214.194-11.204-4.808-9.569-13.804-.214-19.584 4.137-2.557 7.758-3.871 12.43-5.108" style="stroke-width:.890191"/><path fill="#c8c9ce" d="m416.55 91.036 2.88-.588c3.865 12.038 3.73 24.084-2.627 35.368l-3.278-.25 2.24-.578c-1.867-2.415-.784-4.874.019-7.658 2.642-9.157 3.817-17.097.766-26.294M333.106 92.945c1.051-.072 2.167-.175 3.214-.194-.404 13.289 1.068 20.542 5.183 32.915-1.183.545-1.987.816-2.952 1.71-3.043-8.33-4.683-14.71-5.307-23.721-.201-2.895.972-8.944-.138-10.71" style="stroke-width:.890191"/><path fill="#d88103" d="m355.21 108.674.29-.27c4.71-4.44 7.218-9.673 15.148-8.621 18.633 2.47 10.462 18.275-5.076 14.613-1.385-.327-4.98-1.697-6.054-1.873-1.859-.97-3.021-2.251-4.308-3.85" style="stroke-width:.890191"/><path fill="#2a2424" d="m393.917 113.122.853 1.18c.71 5.842-8.69 10.247-13.41 11.211-6.698 1.37-12.02-.46-17.603-4.02-.912-1.435-1.017-1.115-1.024-2.55 2.546-1.908 10.328 3.953 13.984 3.883 6.65-.13 12.645-5.752 17.2-9.704M390.266 90.312a4.577 4.577 0 1 1 1.956 8.941 4.577 4.577 0 0 1-1.956-8.941M357.67 90.291a4.499 4.499 0 1 1 1.543 8.865 4.499 4.499 0 0 1-1.543-8.865" style="stroke-width:.890191"/><path fill="#854402" d="M427.53 146.102c8.418-4.945 20.93-10.819 23.23-21.026 1.061-4.718 1.939-16.43 7.357-17.539 4.154 3.034-.494 16.692-1.793 20.576 3.832-2.345 13.26-9.657 17.568-6.833.255 1.079.08 1.562-.478 2.491-4.938 8.219-31.043 21.69-39.644 28.354l-1.611.294c-2.41-2.256-3.104-3.543-4.628-6.317M307.247 131.365q-.414-1.431-.799-2.868c-.975-3.648-2.606-10.38-.66-13.732 5.234-1.234 7.431 15.37 8.529 18.73 2.4 7.346 11.58 12.946 18.231 16.207-.089 1.185-.747 1.728-1.526 2.669-1.427 1.541-2.423 2.887-4.284 3.813-8.37-4.327-28.795-19.69-34.775-28.285-.404-.715-.17-2.412.365-2.98 3.334-3.532 11.926 4.419 14.919 6.446" style="stroke-width:.890191"/><path fill="#fefefe" d="M67.054 609.924c1.267-2.731 3.156-8.584 4.29-11.659 3.827-10.368 8.754-18.16 16.48-26.112a76.84 76.84 0 0 1 54.746-23.302c21.339-.274 39.332 6.846 54.533 21.624-4.465 6.262-5.683 12.414-10.868 18.134l-.382 1.763c1.584 7.914 3.568 11.225 6.176 18.309 11.006 8.988 11.703 14.044 5.85 26.495 8.092 15.789 10.707 18.107 3.465 35.424 7.556 16.964 7.698 32.454-14.192 36.865-6.718 16.956-11.439 20.254-29.657 19.418-8.533 7.817-17.905 12.687-29.761 12.073-10.812-.56-17.056-5.425-24.573-12.408-16.63-.75-21.329-4.167-28.386-18.924-23.612-3.398-21.767-22.086-14.912-39.491-5.934-13.769-4.374-18.665 2.225-31.287-3.37-12.012-4.695-17.376 4.966-26.922"/><path fill="#e10802" d="M67.054 609.924c1.267-2.731 3.156-8.584 4.29-11.659 3.827-10.368 8.754-18.16 16.48-26.112a76.84 76.84 0 0 1 54.746-23.302c21.339-.274 39.332 6.846 54.533 21.624-4.465 6.262-5.683 12.414-10.868 18.134l-.382 1.763c1.584 7.914 3.568 11.225 6.176 18.309l-.973.365c8.525 19.774 2.167 24.513-17.167 19.308-21.317-8.695-50.206-8.64-72.912-4.523-6.303 1.143-12.71 4.136-18.85 5.674l-8.978 2.439c-9.854-6.748-6.686-12.035-4.032-22.091z"/><path fill="#fefefe" d="M69.117 609.853c11.046-9.83 35.813-14.444 50.145-15.201 24.653-1.301 50.474.944 71.794 14.394 8.525 19.774 2.167 24.513-17.167 19.308-21.317-8.695-50.206-8.64-72.912-4.523-6.303 1.143-12.71 4.136-18.85 5.674l-8.978 2.439c-9.854-6.748-6.686-12.035-4.032-22.091"/><path fill="#c8c9ce" d="m191.056 609.046.973-.365c11.006 8.988 11.703 14.044 5.85 26.495 8.092 15.789 10.707 18.107 3.465 35.424 7.556 16.964 7.698 32.454-14.192 36.865-6.718 16.956-11.439 20.254-29.657 19.418-8.533 7.817-17.905 12.687-29.761 12.073-10.812-.56-17.056-5.425-24.573-12.408-16.63-.75-21.329-4.167-28.386-18.924-23.612-3.398-21.767-22.086-14.912-39.491-5.934-13.769-4.374-18.665 2.225-31.287-3.37-12.012-4.695-17.376 4.966-26.922l2.063-.071c-2.654 10.056-5.822 15.343 4.032 22.091l8.978-2.439c-.427 2.411-.976 6.799-2.366 8.657-9.743 1.826-13.906 8.941-12.234 18.62.782 4.528 3.27 9.438 2.763 14.149-1.732 10.99-9.988 16.493 1.605 25.506q5.545.052 11.09.032c8.019 15.525 6.811 22.953 27.218 16.67 1.866 2.349 3.437 4.801 5.282 7.135 12.601 15.936 27.299 4.069 36.287-6.705 10.722 3.129 19.134 4.034 22.698-9.096a68 68 0 0 0 1.542-7.458c11.883-.162 15.924-.856 19.03-13.493-1.249-4.898-3.27-8.755-5.112-13.434 6.458-15.335 8.381-24.228-8.316-33.817-.032 3.613-.074 6.921-1.218 10.413-3.205-4.874.939-8.293-6.507-18.33 19.334 5.205 25.692.466 17.167-19.308"/><path fill="#fabf91" d="M82.127 629.505c6.14-1.538 12.547-4.531 18.85-5.674 22.706-4.117 51.595-4.172 72.912 4.523 7.446 10.037 3.302 13.456 6.507 18.33-.158 2.621-.681 4.124-1.371 6.631l-2.788 1.2c-9.559.42-12.649-5.383-21.691-5.488-2.105-.025-7.147 1.711-9.995 2.195l-.498.08c-9.007-7.906-26.25-11.27-32.858 1.062-8.502-7.123-19.2 1.118-28.554 3.369l-1.439-.295c-1.268-5.542-2.819-11.714-1.441-17.276 1.39-1.858 1.94-6.246 2.366-8.657"/><path fill="#2a2424" d="M149.856 633.884c8.005 1.314 8.473 7.942 2.322 12.832-8.047-1.345-8.556-7.913-2.322-12.832M101.315 633.939c8.863.467 9.213 6.257 4.146 12.142-8.039 2.012-7.885-6.822-4.146-12.142"/><path fill="#fefefe" d="M111.195 652.364c6.608-12.332 23.851-8.968 32.858-1.062l.498-.08c2.848-.484 7.89-2.22 9.995-2.195 9.042.105 12.132 5.908 21.691 5.488-7.364 13.215-17.721 19.099-32.715 19.167-2.399 5.623-6.735 5.485-12.298 6.32-4.876.731-19.486-.062-19.835-6.648-1.926-.306-4.232-.179-6.254-.492-9.644-1.491-19.042-7.697-22.494-17.129 9.354-2.251 20.052-10.492 28.554-3.369"/><path fill="#e10802" d="M111.195 652.364c6.608-12.332 23.851-8.968 32.858-1.062-4.664 13.256-24.702 9.815-32.858 1.062"/><path fill="#2a2424" d="M111.389 673.354c7.589-3.595 10.916-5.899 17.074-11.555 4.88 4.32 9.855 7.968 15.059 11.883-2.399 5.623-6.735 5.485-12.298 6.32-4.876.731-19.486-.062-19.835-6.648"/><path fill="#c8c9ce" d="M179.025 653.315c-3.817 16.582-12.237 24.506-29.398 26.417-6.445.717-13.037 2.326-19.661 2.149-9.579.111-18.944-1.264-28.293-3.087-12.563-2.449-16.701-12.426-20.47-23.356l1.438.295c3.452 9.432 12.85 15.638 22.494 17.129 2.022.313 4.328.186 6.254.492.349 6.586 14.959 7.379 19.835 6.648 5.563-.835 9.899-.697 12.298-6.32 14.994-.068 25.351-5.952 32.715-19.167zM197.103 570.475c15.661-7.693 30.204 1.715 28.599 19.649-1.084 12.115-15.758 16.938-25.557 11.948-4.944-2.211-10.103-7.976-14.292-11.7l.382-1.763c5.185-5.72 6.403-11.872 10.868-18.134"/><path fill="#fefefe" d="M201.482 574.582a45 45 0 0 1 3.212-.191c10.877-.16 13.628 4.009 13.265 14.074-2.615 3.382-4.337 4.271-8.002 6.137-6.44 1.321-11.373-3.649-15.98-7.409.527-3.443.999-5.495 1.895-8.871 2.265-2.104 2.801-2.404 5.61-3.74"/><path fill="#2a2424" fill-opacity=".012" d="M199.104 604.364c2.666.208 2.286-.261 3.72 1.192l-.158 1.125-.483-.88-1.368-.108c-.993.743-.595.602-1.729.917z"/><path fill="#e33534" d="M127.438 294.765c-11.747-4.739-22.743-4.01-34.462.613-13.52 5.334-26.607 22.407-27.696 36.977-1.182 5.928-1.416 11.304-.233 17.292.965 4.782 3.107 12.213 7.089 14.99 13.318 9.29 27.74.183 26.279-15.532-.182-3.382-1.021-7.339-1.273-11.209 3.092-9.059 8.275-15.41 18.564-11.772 12.18 4.307 16.124 22.506 19.083 33.497l1.13-.102c2.89-.422 22.098-15.348 24.437-17.728l.35-2.908c-4.994-15.13-6.5-23.56-18.264-34.877-4.578-4.322-9.346-6.709-15.004-9.24"/><path fill="#e33534" d="M65.28 332.355c-1.182 5.928-1.416 11.304-.233 17.292.965 4.782 3.107 12.213 7.089 14.99 13.318 9.29 27.657-.976 26.196-16.691l-2.802-.758c-6.938-3.08-13.575-5.449-20.406-8.76-1.978-1.12-7.566-3.364-8.683-4.84z"/><path fill="#fefefe" d="M95.933 357.761c-12.713-1.682-21.838-3.437-29.505-8.453 2.733 11.655 8.844 21.025 22.282 16.394 2.744-1.265 5.394-3.378 7.223-7.94"/><path fill="#ca2f2d" d="M65.28 332.355c-1.182 5.928-1.416 11.304-.233 17.292l1.41.437-.287-2.726-.056-.395c2.792-3.217 8.067-1.147 8.844-7.873-1.978-1.12-7.4-4.026-8.517-5.503z"/><path fill="#fefefe" d="M142.442 304.006c-4.578-4.322-9.346-6.709-15.004-9.24l-1.734 1.113c-3.783 10.282-7.353 18.49-8.523 29.431 3.958 2.075 6.805 4.588 9.018 8.274 6.33-8.714 12.347-17.507 15.627-28.414z"/><path fill="#f3716a" d="M142.442 304.006c-4.578-4.322-9.346-6.709-15.004-9.24l-1.734 1.113c7.025 3.24 10.504 5.097 15.915 9.746z"/><path fill="#fefefe" d="M152.4 320.6c-6.146 11.208-10.975 16.16-20.225 24.7 1.445 4.274 3.089 9.249 4.038 13.575 2.889-.422 20.399-16.285 22.738-18.665-2.562-8.983-2.177-8.817-6.55-19.61M94.846 337.268c-11.778-6.772-17.545-11.998-22.907-19.665-3.499 7.198-3.622 8.182-5.498 15.984 1.117 1.477 5.297 3.803 7.275 4.924 4.679 3.228 9.08 5.224 22.02 8.594l2.679 2c-.182-3.382-1.021-7.339-1.273-11.209z"/><path fill="#f3716a" d="m97.142 337.896-2.296-.628c-.025 4.267.49 6.505.932 9.962l2.513 1.916c-.182-3.382-.897-7.38-1.15-11.25"/><path fill="#fefefe" d="M106.7 293.047c-13.247 2.51-14.605 3.973-23.016 10.1 2.45 7.544 4.78 11.35 7.212 14.667 3.08 3.666 6.644 6.76 10 10.151l4.627-3.046c-1.196-13.1-2.44-18.322 1.178-31.872"/><path fill="#e33534" d="M165.2 354.911c-.363-2.9-3.538-12.87-4.493-16.028l-.351 2.908c-2.34 2.38-21.547 17.306-24.436 17.728l-1.131.102c1.054 3.783 3.565 11.831 4.223 15.202l12.954 45.358c.719 2.588 4.259 14.831 4.41 16.588a249 249 0 0 1 4.037 13.74c3.344 10.853 6.036 29.486 22.809 24.601a16.07 16.07 0 0 0 9.743-7.987c2.03-3.97 1.842-7.189.866-11.364-2.63-12.108-7.943-28.136-11.457-40.436-6.064-20.159-11.184-40.513-17.174-60.412"/><path fill="#fefefe" d="m182.374 415.323-.922 1.226c-.107 1.465.097 1.314-1.362 2.508-3.842 3.146-8.193 6.116-12.28 8.962 1.554 3.615 4.345 6.32 7.637 8.407-3.2 2.414-6.023 4.541-9.374 6.725-1.712 1.13-3.918 2.268-4.843 3.998.122.64.184 1.257.428 1.831l-1.245 1.528c3.344 10.854 6.036 29.487 22.809 24.602a16.07 16.07 0 0 0 9.743-7.987c2.03-3.97 1.842-7.189.866-11.364-2.63-12.108-7.943-28.136-11.457-40.436"/><path fill="#e33534" d="M184.486 446.267c-6.335 4.797-12.742 9.57-19.39 13.876-1.014-3.592-2.163-6.925-3.438-11.163l-1.245 1.528c3.344 10.854 6.036 29.487 22.809 24.602a16.07 16.07 0 0 0 9.743-7.987c2.03-3.97 1.842-7.189.866-11.364l-1.351.73-.522-1.625c-3.611-3.865-5.737-.16-7.472-8.597"/><path fill="#fefefe" d="M191.958 454.864c-6.214 5.185-12.433 10.032-21.956 15.361 3.272 7.466 26.306 4.067 22.478-13.736z"/><path fill="#ca2f2d" d="m182.374 415.323-1.419 1.516c-.107 1.465.594 1.024-.865 2.218-3.842 3.146-8.193 6.116-12.28 8.962 1.554 3.615 4.345 6.32 7.637 8.407 3.017-2.085 6.045-4.338 9.153-6.175 1.676 5.242 2.528 8.958 3.942 13.056l-4.056 2.96c1.735 8.437 3.86 4.732 7.472 8.597l.522 1.625 1.35-.73c-2.63-12.108-7.942-28.136-11.456-40.436"/><path fill="#fefefe" d="M165.2 354.911c-.363-2.9-3.538-12.87-4.493-16.028l-.351 2.908c-2.34 2.38-21.547 17.306-24.436 17.728l-1.131.102c1.054 3.783 3.565 11.831 4.223 15.202l1.233-.724c1.65 4.135 2.356 7.397 3.379 11.75 7.23-4.109 16.868-11.965 23.39-17.203-1.588-4.977-1.952-8.155-3.417-13.883z"/><path fill="#ca2f2d" d="M165.2 354.911c-.363-2.9-3.538-12.87-4.493-16.028l-1.58-.764c-7.667 8.234-19.791 18.46-23.207 20.756l-1.131.746c1.054 3.783 3.565 11.831 4.223 15.202l1.233-.724-.328-1.642c3.068-2.136 21.269-16.554 23.368-18.382l.378.728z"/><path fill="#fefefe" d="M177.477 405.51c-7.523 5.595-15.906 11.357-22.9 17.278 1.615 5.504 2.198 7.53 3.313 12.172 3.206-2.255 6.836-4.613 9.92-6.94 4.087-2.847 8.438-5.817 12.28-8.963 1.459-1.194.758-.836.865-2.3-1.057-3.524-2.36-7-3.478-11.247"/><path fill="#ca2f2d" d="M166.073 443.151c-1.723-3.707-5.357-7.39-9.697-6.382a249 249 0 0 1 4.037 13.74l1.245-1.529c-.244-.574-.306-1.192-.428-1.83.925-1.73 3.13-2.87 4.843-3.999"/><path fill="#fefefe" d="M170.739 380.802c-7.5 6.285-15.02 11.975-23.844 17.168 1.84 4.565 2.77 8.424 3.816 13.203 8.672-5.62 16.613-11.429 23.766-17.368-1.246-4.061-2.54-8.9-3.738-13.003"/><path fill="#975221" d="M639.365 542.326c6.295-1.178 16.764 2.006 22.347 5.396a39.94 39.94 0 0 1 18.245 25.117c3.182 13.483.099 21.592-6.878 32.808 8.714 1.155 17.13-1.508 25.809-1.442 5.66.042 11.608 1.73 15.573 5.962 4.126 4.405 6.023 11.666 5.803 17.587-1.05 28.214-33.03 16.475-39.217 23.438-1.004 1.13-1.04 2.765-.98 4.195.419 9.95 7.252 24.915 16.004 30.156 5 2.995 10.954 4.523 15.197 8.711 3.612 3.565 4.973 8.571 4.937 13.542-.057 7.834-5.117 13.776-10.45 18.954-6.584 6.396-13.654 10.238-23.082 10.011-21.373-.515-28.585-22.692-41.324-35.697-.144-.147-.291-.289-.437-.434-4.607 2.585-16.868 21.28-23.887 28.077-20.23 19.59-51.5.29-52.17-24.594-.362-13.539 17.213-16.025 25.5-23.132 6.657-5.707 9.788-17.358 10.727-25.958.507-11.662-25.524-2.02-33.565-13.235-3.845-4.6-7.437-10.214-6.748-16.7 3.153-29.687 31.579-18.946 48.56-18.335-20.67-28.873-5.296-62.395 30.036-64.427"/><path fill="#fefefe" d="M636.87 546.778c13.826-1.206 26.5 4.478 34.353 16.084 6.18 9.136 7.656 21.76 2.782 31.771-1.958 4.02-5.611 7.864-6.763 12.287-.218.677.097 1.844.744 2.294 7.82 5.441 21.604-.704 30.52-.22 5.086.275 8.569.744 11.847 4.267 3.615 3.886 4.98 9.198 4.647 14.295-1.848 23.19-25.443 10.744-36.98 18.673-1.951 1.34-2.256 6.261-2.107 8.752.315 9.534 6.299 28.818 15.677 33.198 17.158 8.014 29.266 16.158 11.587 33.952-5.007 5.04-13.218 9.913-20.912 9.307-19.008-1.497-27.454-22.243-38.852-34.247-6.33-2.356-12.565 7.602-15.945 12.09-8.13 10.797-17.916 24.834-33.644 21.978-10.347-1.878-25.854-15.623-23.97-27.179 2.892-9.916 12.087-12.169 20.79-17.327 9.149-2.588 18.97-33.393 13.47-39.27-8.07-8.623-43.246 2.941-37.361-25.77 5.174-25.243 34.8-4.44 47.503-12.649l.53-.349c-2.96-7.494-8.837-14.998-10.09-23.038-1.34-8.607 1.285-17.957 6.599-24.806 6.83-8.803 14.792-12.664 25.575-14.093"/><path fill="#975221" d="M636.499 550.231c3.238-.209 5.532-.213 8.772.236a33 33 0 0 1 22.02 12.812c5.367 7.193 7.762 17.776 4.943 26.744-1.026 4.44-9.661 13.523-9.336 17.593.799 10.016 19.819 6.513 24.63 5.883l2.583 4.84c-5.181 6.78-4.307 8.374 1.899 13.374-1.407 3.504-2.016 4.903-2.74 8.574-2.172.141-4.25.354-6.44.562-15.512 1.55-10.125 19.563-7.433 29.287 3.16 11.415 8.114 16.453 17.478 23.052l-3.21 7.341c-2.582.1-6.033-.066-7.94 1.6-2.79 6.878-5.25 7.23-11.434 9.505-1.367.503-2.905 6.853-3.443 8.764-2.46-3.212-5.294-6.445-7.832-9.71-4.432-5.704-8.223-11.738-13.605-16.54-11.203-5.912-24.886 19.194-32.165 27.052-.742-8.958-1.643-10.228-9.997-12.324-2.054-7.198-3.608-7.7-10.741-7.898-1.306-3.64-1.846-4.896-3.732-8.262a60 60 0 0 0 4.752-3.359c9.387-7.494 20.752-32.889 13.316-44.967-2.343-3.805-10.051-3.784-14.302-3.99-.774-3.034-1.905-5.939-2.97-8.887 10.089-7.666 1.942-9.877 3.393-15.607 4.898-4.905 12.619-.38 18.898-1.46 5.379-.926 8.738-6.43 5.206-11.109-4.266-5.652-7.144-9.103-8.546-16.165a30.12 30.12 0 0 1 4.71-23.15c5.757-8.38 13.65-11.933 23.266-13.79"/><path fill="#fefefe" d="M654.026 587.991c.843.472.977.693 1.708 1.35.676 5.661-8.49 8.43-12.895 8.865-6.323.628-10.751-.97-15.65-4.895-1.157-1.666-1.352-1.897-1.383-3.627 3.212-1.934 11.56 5.173 15.4 5.262 4.315.101 9.684-4.417 12.82-6.955"/><path fill="#449dcd" d="M639.61 645.393a5.876 5.876 0 1 1 2.477 11.488 5.876 5.876 0 0 1-2.476-11.488"/><path fill="#e33534" d="M639.527 667.87a5.753 5.753 0 1 1 2.24 11.285 5.753 5.753 0 0 1-2.24-11.285M638.753 622.343a5.72 5.72 0 1 1 3.688 10.829 5.72 5.72 0 0 1-3.688-10.829"/><path fill="#fefefe" d="M652.47 569.808a4.818 4.818 0 1 1 3.107 9.12 4.818 4.818 0 0 1-3.107-9.12M625.743 569.891a4.79 4.79 0 1 1 3.375 8.965 4.79 4.79 0 0 1-3.375-8.965"/><path fill="#975221" d="M696.286 695.006c21.143 6.205 9.502 23.575-3.81 30.464-3.538 1.832-6.038 2.21-9.896 2.84-5.15-.77-8.144-2.604-12.55-5.118q.696-2.274 1.447-4.53c3.127-9.278 8.715-1.376 12.484-13.843 9.01-.306 8.113-2.66 12.325-9.813M582.339 694.99c5.586.758 3.994 3.053 6.52 7.105 1.529 2.452 5.726 2.62 8.419 3.115 1.627 1.526.836 2.838 2.269 5.89 1.793 1.725 4.125 1.481 6.284 2.213 2.657.902 3.9 7.353 4.928 10.47-3.412 1.911-5.203 2.598-8.905 3.982-14.364 2.126-24.3-8.78-28.696-21.12 2.35-6.85 3.084-7.687 9.18-11.655M580.1 612.242c2.873-.104 6.116-.787 8.18 1.441.957 2.076.504 3.778.27 6.12.86 1.623 1.824 3.185 2.77 4.761-7.954 6.935-3.14 9.35-4.35 14.864-1.33.895-1.538.53-3.526.458-16.783-2.815-18.555-22.64-3.344-27.644M698 612.266c15.563-.97 20.305 23.067 2.057 27.246l-6.665.456c2.77-7.996 3.616-9.327-3.234-14.754 1.289-2.108 2.54-4.5 3.743-6.682l-1.69-5.1c1.998-.65 3.725-.844 5.79-1.166"/></svg>