<svg xmlns="http://www.w3.org/2000/svg" width="1024" height="1024"><path fill="#f2882a" d="M898.714 810.497c2.916 1.172 11.124 3.902 8.381 8.065-5.913 8.973-8.558 15.625 3.696 21.649a46 46 0 0 0 5.204 2.116c15.415.056 34.008 1.325 45.691 12.805 26.9 26.432 21.533 99.223-21.94 105.838l-6.986 1.739c-9.09 3.236-12.347 3.287-22.332 2.226l-2.255-.09c-10.363 4.612-14.498 2.65-25.435.286l-1.98.15c-11.716 2.299-15.509-2.305-23.826-2.803l-1.577-.888c-6.879-.441-14.12-3.615-19.489-7.975-26.421-21.462-27.79-69.398-7.354-95.2 6.152-7.767 15.447-13.105 25.354-14.027 2.328-.595 5.921-.601 8.418-.696a186 186 0 0 1 15.076-1.401c14.791-5.533 12.505-19.279 21.354-31.794"/><path fill="#f2882a" d="M915.995 842.327c15.415.056 34.008 1.325 45.691 12.805 26.9 26.432 21.533 99.223-21.94 105.838l-6.986 1.739c-9.09 3.236-12.347 3.287-22.332 2.226l-2.255-.09c5.653-9.942 11.5-12.43 14.478-25.982l2.906-1.96c12.718-8.868 16.334-15.411 21.52-29.473-5.679 3.53-9.418 5.522-15.456 8.34.134-8.19-.684-16.12-.533-23.826 3.024-.193 6.6-.656 9.663-.97-2.264-4.375-9.977-20.775-13.954-21.794-1.068-.761-9.173-17.271-17.797-24.206 2.095-1.115 4.723-1.884 6.995-2.647"/><path fill="#e16f1d" d="M926.994 842.686c35.056 14.18 38.695 61.938 27.41 93.244-2.777 7.703-9.818 17.183-14.85 23.564l.192 1.476-6.986 1.739c2.573-4.511 7.98-9.283 10.8-14.001 16.824-28.07 17.044-69.006-4.114-94.965-2.472-3.032-9.137-7.854-12.452-11.057M922.651 938.863l2.906-1.96c-.448 12.253-5.049 20.873-15.129 28.032l-2.255-.09c5.653-9.942 11.5-12.43 14.478-25.982"/><path fill="#1b1b1b" d="M845.613 907.498c5.857 3.406 9.808 5.509 15.966 8.306l4.316 1.214c3.617 3.059 2.628 5.448 2.291 9.889 4.041.917 8.177 1.812 12.196 2.787l.942-8.49c11.741.707 18.266.968 30.134-.044l1.591 8.32 11.728-2.616c-.108-2.776-.567-6.116.751-8.454l2.018-1.571c.87-.131 3.11-.807 4.075-1.068 6.038-2.82 9.777-4.81 15.455-8.341-5.185 14.062-8.8 20.605-21.519 29.473l-2.906 1.96c-2.979 13.553-8.825 16.04-14.478 25.982-10.363 4.612-14.498 2.65-25.435.286l-.472-.422c-.264-5.561-12.87-17.995-10.577-25.238l-6.684-3.98c-11.319-9.171-13.958-14.683-19.392-27.993"/><path fill="#f2882a" d="m889.76 935.448 12.951.334.768 8.947c6.717-1.642 12.804-3.144 19.172-5.866-2.979 13.553-8.825 16.04-14.478 25.982-10.363 4.612-14.498 2.65-25.435.286l-.472-.422c-.264-5.561-12.87-17.995-10.577-25.238 6.023 2.342 11.3 3.706 17.554 5.226zM853.866 844.388c2.328-.595 5.921-.601 8.418-.696-1.042 3.969-6.308 7.036-8.95 10.259-22.28 27.18-21.79 72.416-.22 99.94 1.72 2.197 4.464 5.759 3.818 8.587l-1.577-.888c-6.879-.441-14.12-3.615-19.489-7.975-26.421-21.462-27.79-69.398-7.354-95.2 6.152-7.767 15.447-13.105 25.354-14.027"/><path fill="#e16f1d" d="M853.866 844.388c2.328-.595 5.921-.601 8.418-.696-1.042 3.969-6.308 7.036-8.95 10.259-22.28 27.18-21.79 72.416-.22 99.94 1.72 2.197 4.464 5.759 3.818 8.587l-1.577-.888.223-1.128q-.885-.755-1.754-1.527c-26.38-23.49-27.682-76.171-6.958-103.481 3.601-4.745 9.112-6.597 12.483-10.386-1.012-.988-3.638-.64-5.483-.68"/><path fill="#78b646" d="M898.714 810.497c2.916 1.172 11.124 3.902 8.381 8.065-5.913 8.973-8.558 15.625 3.696 21.649a46 46 0 0 0 5.204 2.116c-2.272.763-4.9 1.532-6.995 2.647l-2.988.844c-8.28-2.747-11.37-2.087-19.616-.291l-9.036-3.236c14.791-5.533 12.505-19.279 21.354-31.794"/><path fill="#1b1b1b" d="M926.797 869.18c3.977 1.019 11.69 17.419 13.954 21.794-3.063.314-6.639.777-9.663.97-2.453.04-6.586-.01-8.862.327l-10.72 1.105 11.945-19.427zM865.285 867.41l16.295 25.862a907 907 0 0 0-14.728-1.083c-.47-.105-4.739-.39-5.46-.446-3.197-.29-6.539-.648-9.732-.764 4.28-7.374 9.698-16.156 13.625-23.568"/><path fill="#e16f1d" d="m865.005 935.492 6.684 3.979c-2.293 7.243 10.313 19.677 10.577 25.238l.472.422-1.98.15c-9.629-12.536-11.617-12.875-15.753-29.79M906.012 845.818l2.988-.844c8.624 6.935 16.73 23.445 17.797 24.206l-3.346 4.769c-4.933-13.453-6.44-18.552-17.439-28.131M922.226 892.27c2.276-.335 6.41-.285 8.862-.326-.15 7.707.667 15.636.533 23.827-.965.26-3.205.937-4.075 1.068-.137-6.281 1.504-17.77-1.072-23.077-.625-1.287-2.63-1.237-4.248-1.491M861.391 891.743c.722.056 4.991.34 5.461.446-2.278 5.08-1.583 19.116-.957 24.829l-4.316-1.214c.17-7.531-.114-16.441-.188-24.061"/><path fill="#1b1b1b" d="M895.865 892.897c3.35 1.559 7.678 10.167 7.463 14.26-1.65 1.55-1.777 1.063-4.524 1.159l-11.065.002c2.638-5.14 5.426-10.304 8.126-15.421"/><path fill="#e16f1d" d="m883.71 845.628.928.654c-6.97 7.283-10.719 14.995-14.846 24.034-7.96-4.956 9.36-21.657 13.918-24.688"/><path fill="#1b1b1b" d="M378.376 53.682a70 70 0 0 1 5.146-.228c35.577.007 47.216 26.876 47.21 56.585 6.175-3.69 25.466-12.36 25.834 2.445.286 11.5-15.407 24.197-24.104 31.896 1.521 14.79 5.478 24.298 10.691 38.056 1.275 3.366 1.81 8.087-.198 11.404-6.389 10.549-24.741-.039-32.455 1.74-7.098 1.636-12.533 7.428-21.337 9.833-17.207 1.455-17.2-5.38-31.365-9.618-4.98-1.49-15.852 3.803-22.649 2.758-7.794-1.197-12.198-3.44-11.274-12.181.981-6.374 4.825-12.28 6.86-18.437 2.49-7.54 4.207-15.24 5.646-23.052-6.604-6.186-29.996-24.67-23.6-35.972 5.553-9.816 17.814-2.634 25.13 1.246-1.059-27.975 8.785-51.106 40.465-56.475"/><path fill="#fefefe" d="M378.213 57.993c31.37-3.528 48.433 19.488 47.9 47.255-.05 2.64.18 7.219 2.248 8.992 6.373.252 23.064-14.421 23.901-.616.554 9.13-17.777 23.538-24.224 29.61.995 10.63 3.365 18.732 7.288 28.639 1.733 4.373 6.246 15.156 4.629 19.34-6.145 8.063-21.03-1.328-30.13.696-8.47 1.885-12.8 6.51-20.803 9.462-14.341 1.51-18.564-7.652-30.83-9.773-7.888-1.363-15.008 3.75-22.799 3.05-2.289-.206-5.378-.966-6.826-2.814-2.597-3.312 7.35-27.021 8.718-31.87 1.526-5.406 2.51-10.854 3.383-16.388-5.782-5.428-32.701-25.353-22.172-35.134 3.94-3.662 14.81 5.378 20.224 6 10.711-3.24-9.148-46.598 39.493-56.45"/><path fill="#1b1b1b" d="M382.495 107.012c13.284 1.29 11.232 17.498 3.204 25.02-13-2.796-11.06-17.418-3.204-25.02M369.854 83.686c14.253-.627 7.004 13.616.08 19.022-11.95 1.803-7.305-13.491-.08-19.022M393.767 83.586c11.407.581 15.534 10.652 9.01 19.445-10.567-.637-14.65-11.072-9.01-19.445M886.96 559.803c30.71-4.66 60.25 13.56 67.46 43.722 4.81 20.105 5.32 56.527-5.24 74.958-10.29 17.965-26.23 34.55-46.52 40.016-.31.05-.61.094-.92.133-14.31 1.837-27.36-2.426-38.58-11.296-9.28-7.716-25.23-25.547-28.1-37.378-11.74-48.422-6.83-103.178 51.9-110.155"/><path fill="#fefefe" d="m930.93 584.57 9.33-.71c5.8 7.551 6.87 11.998 10.11 20.807a334.6 334.6 0 0 0-101.13 21.908c-4.37 1.534-10.14 4.11-14.53 5.913.11-9.505 1.13-16.749 2.59-26.037 28.6-13.48 62.24-19.189 93.63-21.882M951.61 637.278l.94 1.311c.82 12.371-1.6 24.392-5.94 35.93-35.04 1.748-62.53-2.47-96.74-9.143-3.06-.717-10.83-1.855-12.05-4.66 4.08-1.98 45.43-5.62 54.64-7.378 23.38-4.467 36.67-7.975 59.15-16.06M838.57 667.097c35.25 9.544 54.91 8.946 89.55 12.454l-8.27 2.665c-25.07 5.84-41.18 6.88-66.78 8.001-6.31-7.308-10.38-14.48-14.5-23.12M873.42 693.903c6.8.19 17.74 4.413 24.77 6.191 8.46 2.14 14.77 3.16 23.47 4.097-5.91 4.3-10.01 6.21-16.65 8.98-21.21 3.853-34.2-3.174-48.06-18.295 5.23-.476 11.17-.675 16.47-.973M890.37 563.938c8.23-1.56 20.28 1.857 28.05 4.437-6.42 3.091-28.88 15.098-34.17 13.864-10.58-2.532-20.68-3.339-31.46-4.396 12.87-9.506 21.9-12.153 37.58-13.905"/><path fill="#fefefe" d="m941.61 609.448 9.3-.769c1.74 8.134 2.08 15.72 2.23 24.008a237 237 0 0 0-28.37-10.71c-8.52-2.773-15.77-3.89-24.54-5.28 11.33-3.686 29.27-5.855 41.38-7.249M834.82 637.813a530 530 0 0 0 33.49 8.116c6.28 1.267 12.49 1.986 18.71 3.366l.04.645-3.5.756a396 396 0 0 1-47.05 3.957c-.4-5.447-1.13-11.368-1.69-16.84M941.97 679.312l.31.16c.16 3.413-13.18 17.678-15.97 20.557-11.55-1.223-20.21-2.593-31.38-5.008l-7.05-2.287c22.17-3.045 33.19-5.912 54.09-13.422M849.37 581.55c11.51 2.151 22.39 1.752 34.58 5.346-7.08 1.63-13.7 3.472-20.68 5.431-8.74 2.684-15.98 5.414-24.5 8.688 3.3-7.878 5.71-12.486 10.6-19.465"/><path fill="#78b646" d="M917.44 625.227a8.547 8.547 0 0 1 9.72 6.92 8.544 8.544 0 0 1-14.88 7.108 8.547 8.547 0 0 1 5.16-14.028M867.63 625.18c4.53-.993 9.02 1.82 10.1 6.325a8.51 8.51 0 0 1-6.11 10.23 8.52 8.52 0 0 1-8.3-2.33 8.5 8.5 0 0 1-2.01-8.378 8.5 8.5 0 0 1 6.32-5.848"/><path fill="#fefefe" d="M924.85 571.275c4.2 1.507 8.5 5.606 11.83 8.607a305 305 0 0 0-30.82 2.97l-11.71 1.856c10.28-6.632 19.31-9.633 30.7-13.433"/><defs><linearGradient id="a" x1="1025.724" x2="1026.421" y1="385.524" y2="310.692" gradientTransform="translate(-391.196 249.635)" gradientUnits="userSpaceOnUse"><stop offset="0" stop-color="#1a2015"/><stop offset="1" stop-color="#1d1b1e"/></linearGradient></defs><path fill="#78b646" d="M584.793 637.865c-1.488-3.838-2.489-10.231-2.853-14.285-2.063-22.94-9.736-48.801 19.58-57.07 22.684-6.4 44.464-6.826 67.384-2.287 27.44 5.434 32.32 20.782 29.35 46.065-1.01 8.748-1.69 17.949-3.82 26.512 14.45 8.826 14.07 24.444-.25 34.313-1.4.962-5.79 2.287-7.63 2.935-.01 6.829 1.17 21.26-3.91 25.487-14.03 11.319-27.82 17.208-46.01 16.599-15.25-.511-18.17-1.861-31.02-9.21-18.133-10.373-12.74-14.434-13.76-33.123-12.848-3.291-21.366-13.926-17.656-27.426a11.54 11.54 0 0 1 5.57-7.08c1.597-.878 3.185-1.456 5.025-1.43"/><path fill="url(#a)" d="M580.793 635.865c-1.488-3.838-2.489-10.231-2.853-14.285-2.063-22.94-9.736-48.801 19.58-57.07 22.684-6.4 44.464-6.826 67.384-2.287 27.44 5.434 32.32 20.782 29.35 46.065-1.01 8.748-1.69 17.949-3.82 26.512l-1.35 1.964c-3.67-2.732.73-19.242-5.21-24.302-4.94-.544-5.03 4.529-8.79 5.585-3.35-3.48-.35-9.103-7.86-6.215a85 85 0 0 0-3.71 4.87l-.8-.11c-.91-1.921-1.81-5.606-2.88-5.72-6.91-.743-30.12-2.815-35.31-1.081-1.45 1.602-1.61 2.113-2.49 4.112-5.03 2.025-1.98-5.232-9.81-4.622-3.454 3.266-.62 4.598-3.554 6.434-4.729-1.501-.843-5.192-8.567-5.181-4.372 2.94-1.376 5.612-4.954 6.153-2.758-1.55-6.022-4.846-7.288-5.35-6.31 2.025-2.37 20.625-6.527 25.036z" style="fill:url(#a)" transform="translate(4 2)"/><path fill="#78b646" d="M639.014 584.826c3.85 2.423 8.68 8.036 11.86 11.493l11.39-10.858c2.53 3.827 5.87 8.195 8.6 11.965 3.99-3.016 7.55-5.477 11.71-8.248 2.29 4.222 8.86 18.46 4.44 21.932-6.32-.787-1.89-3.047-5.24-5.884-3.67.472-1.37 2.902-5.54 4.63-6.88-.066-3.53-4.047-8.5-6.667l-1.09.433-1.11 3.485c-2.92 1.81-23.71.016-28.87-.145-14.8.083-7.12-2.991-12.18-5.181-2.33.914-3.09 3.088-4.88 5.552-2.5 1.083-1.4.9-4.18.616-2.749-2.221-1.12-2.245-3.409-5.532l-1.655-.038c-2.112 1.96-.324 2.43-2.328 5.617-5.746 2.084-6.582-3.726-10.41-3.081-1.342 3.017-1.515 4.56-4.779 5.538-2.215-.563-1.5-.057-2.74-1.825-1.126-5.842 3.216-14.496 5.738-19.796l11.27 8.446c3.296-3.645 6.293-7.874 9.243-11.83l11.67 10.678z"/><path fill="#1b1b1b" d="M646.144 635.346c4.87-.308 36.8 1.497 35.49 8.67l-1.52 1.016c-1.83-.132-2.75-.212-4.51.305-8.82 11.813-16.76 9.16-24.58-2.705-2.05-3.11-3.64-3.53-4.88-7.286M622.944 635.71c3.78-.602 6.15-1.645 9.05 1.063-.34.97-11.89 15.315-14.23 15.95-4.06 1.103-6.485-.02-9.914-1.66-2.87-3.53-10.8-6.924-10.329-9.446 4.134-3.987 19.303-5.225 25.423-5.906"/><path fill="#17200d" d="M618.084 684.686c11.58 2.265 36.52-1.361 42.71 1.644.93 2.224.59 1.717-.2 4.544-8.34.284-36.5 1.849-42.08-1.745-1.38-2.155-1.04-1.331-.43-4.443M628.564 663.038c2.79.197 8.01 3.719 10.93 5.289 3.14-1.603 4.21-3.252 7.65-4.238 2.29.608 1.59.392 3.23 2.816-7.6 5.84-19.32 8.289-21.81-3.867"/><path fill="#1b1b1b" d="M374.174 567.645c21.234-3.186 47.865 4.93 61.898 19.343 21.31 21.888 18.264 47.376 7.92 73.25-.13 6.188 1.487 17.98-4.757 22.55-12.296 9.003-19.457-1.242-19.704 20.18a26 26 0 0 1-1.413 2.248c-4.714 6.81-15.445 7.226-23.662 8.762-9.933-.148-33.345-.387-42.403-5.844-3.24-1.952-4.063-13.67-4.531-17.848-8.157-3.873-19.883-4.413-23.266-14.313-1.675-3.36.475-14.544-.677-17.213-9.764-22.63-12.527-45.613 3.637-66.507 10.775-13.927 28.42-22.409 46.958-24.608"/><path fill="#fefefe" d="M377.573 571.752c12.929-2.46 33.769 3.267 44.642 10.461 12.146 8.036 21.24 19.148 24.287 33.477 3.515 16.537-2.484 27.758-6.75 43.137-1.322 4.77 2.719 14.631-3.092 20.068-4.695 4.827-15.842 2.841-19.567 8.263-3.951 5.75 2.379 17.621-8.42 19.45-6.336 1.073-5.106-7.78-8.074-10.27-4.48 2.76-1.007 5.144-2.723 10.744-3.244 4.696-10.331 4.266-11.56-3.012a56 56 0 0 0-.025-2.138c-.071-2.124-.246-4.15-1.834-5.654-2.968 2.951-2.466 14.015-10.348 14.663-6.733-2.25-2.987-11.542-5.72-14.628-3.338 1.843-4.02 8.163-7.33 10.678-9.678-.245-7.756-9.228-9.003-16.156-1.461-10.11-13.522-6.388-19.69-11.023-7.11-5.343-2.897-15.935-4.436-22.774-1.707-7.738-6.55-16.038-7.314-23.942-3.59-37.084 24.17-56.94 56.957-61.344"/><path fill="#1b1b1b" d="M403.089 627.303c9.563-.486 18.695.108 24.706 8.806a15.32 15.32 0 0 1 2.509 11.822c-1.22 5.938-5.482 9.678-10.204 12.88-22.347.953-39.012-23.64-17.011-33.508M354.218 627.327c12.779-.7 24.245 3.197 19.04 19.805-1.964 6.266-8.61 10.285-14.512 12.764-8.921 1.888-17.136.304-20.187-9.47a17.63 17.63 0 0 1 1.292-13.643c3.382-6.185 8.144-7.745 14.367-9.456M383.269 655.085c5.316 2.625 13.178 15.807 7.233 20.93-2.15.716-3.655-.057-5.781-.798l-.677-.569c-3.328 1.152-4.82 1.73-8.008-.365-3.683-5.853 3.488-14.485 7.233-19.198M127.369 42.376c5.67 2.17 3.95 9.227 3.81 14.71 10.47 11.837 17.6 14.511 32.4 17.918 17.48 4.026 16.97-11.065 24.58-9.674l.18 1.309c-1.6 3.523-5.93 7.725-8.67 10.844.74 17.815 6.22 30.544 22.19 40.139 3.77-.914 10.08-2.935 13.36-.565-2.34 3.412-8.34 3.809-12.55 4.596-12.33 12.974-14.08 28.657-8.46 45.07 2.8 1.587 10.01 5.24 10.17 8.735-3.92 1.04-9.64-2.815-13.22-4.794-18.77 4.04-26.76 12.923-34.6 29.329 2.1 5.26 3.67 8.935 4.14 14.608l-.87.805c-3.45-2.29-6.12-9.858-7.99-13.875-9.81-4.81-13.38-6-24.29-6.2-9.39.515-14.05 2.042-22.13 6.134-2.51 6.034-2.27 8.817-7.08 13.516l-1.02-.06c-1.3-4.49 1.88-10.66 3.67-14.948-8.05-18.82-15.63-23.856-34.82-28.977-3.95 2.196-9.77 5.782-14.25 5.91.61-3.364 8.61-8.478 11.87-11.032 3.14-14.043 5.27-35.314-10.85-43.98-3.28-1.76-8.24-1.108-11.51-4.043l.14-1.005c3.71-2.235 7.65-.472 12.2.584 17.36-4.36 23.16-22.361 24.29-38.241-2.31-4.276-7.1-8.562-7.4-13.633l1.11.055c3.75 2.122 6.08 5.377 8.85 8.683 19.52 2.551 32.38-2.365 46.07-16.592.02-4.872-.15-10.614.68-15.326m-35.54 43.856 3.32 2.839c15.01-.243 20.83-1.844 31.76-12.835.01-2.723.48-10.224-.76-12.05-13.68 11.563-21.89 15.023-40.16 15.333 1.88 2.245 3.8 4.636 5.84 6.713m15.96 108.58c8.84-2.406 16.44-4.946 25.77-3.841 6.53.957 10.42 2.536 16.65 4.549-5.02-14.778-9.07-17.121-25.08-16.283-12.48 2.297-13.41 3.528-17.34 15.576m59.2-109.711 4.96-5.561c-20.37-.904-25.16-3.511-40.9-15.377l.12 12.554c7.94 7.685 15.3 12.134 26.93 12.013q2.565-.047 5.13-.2zm-95.72 82.396c15.5 4.9 21.17 8.634 29.6 22.775l1.69 2.437c3.02-.37 4.23-7.913 5.09-10.771-5.17-9.396-13.01-21.071-25.26-20.76a430 430 0 0 1-11.12 6.319m78.74 14.59c1.35 3.952 2.61 7.906 4.34 11.705l3.65-6.004c8.48-11.712 14.42-15.593 28.17-20.553-2.87-1.674-9.49-5.906-12.54-6.062-9.63 3.569-17.5 7.558-22.09 17.437q-.795 1.724-1.53 3.478m36.08-62.315 9.05-1.433c-13.35-10.961-17.55-19.482-19.67-36.282-3.98 4.025-5.81 6.163-9.05 10.912 1.73 8.489 7.88 28.979 19.67 26.803m-2.06 5.177c-7.11 7.708-13.56 27.295-3 34.407 2.37 1.419 4.87 3.002 7.38 4.126-1.55-11.36-2.95-21.807 2.86-32.081.65-1.154 4-7.624 3.88-8.368-3.88.54-7.3.975-11.12 1.916m-114.98 38.733c2.35-1.44 5.14-3.051 7.35-4.618 10.88-8.274 5.19-25.738-3.01-33.918-4.21-1.137-7.32-1.876-11.64-2.67 9.18 14.117 10.67 24.775 7.3 41.206m4.18-43.294c11.62-3.611 15.64-16.032 17.55-26.703-2.55-5.124-4.28-7.408-8.54-11.258-2.8 17.524-5.24 23.86-19.04 35.757zm29.54-21.395c7.58 7.937 17.63 1.512 24.2-4.423 0-1.74.06-11.368-.19-12.538-10.03 9.357-15.08 10.39-28.54 11.659zm28.16-4.535c7.69 7.134 15.75 11.257 24.85 3.667l4.72-4.826c-13.86-.432-18.51-2.298-29.52-10.85zm-17.19 83.466c9.13-3.08 10.23-3.282 19.93-2.955l10.18 2.703-4.4-10.94c-6.1-2.161-8.24-2.568-14.67-1.932-8.45 1.04-8.45 5.947-11.04 13.124m-25.56-20.11c10.24 4.25 14.14 7.13 20.49 16.804l1.05 1.26c1.68-1.734 3.5-7.88 4.52-10.56-3.44-5.751-9.53-13.301-16.95-13.235zm-6.93-36.143c3.16.535 6.46 1.168 9.64 1.407 7.05-.303 10.88-10.942 11.72-16.92-2.35-3.163-4.73-6.717-7.72-9.228-3.7 15.77-5.26 13.402-13.64 24.74m32.41-3.628c-2.34-3.123-4.14-5.567-6.83-8.447-2.74 6.67-3.99 8.934-8.54 14.91l9.03 1.375c4.57.322 4.55-3.677 6.34-7.838m20.35 4.564c1.61-2.35 1.93-1.995 1.82-4.321-1.66-1.467-2.94-1.674-5.03-2.28-.06 2.41-.48 6.239.65 8.124 1.72-.408 1.14-.211 2.56-1.523m9.66-4.488c2.22 4.095 3 6.967 8.08 7.593l6.24-1.251.33-.61c-1.44-2.984-5.74-11.482-7.77-13.696zm-26.95 3.496c-.93 2.92-1.55 3.102-.79 5.499 2.07 1.042 3.46 1.003 5.73 1.183-.19-3.196-2.33-4.97-4.94-6.682m14.33-9.957c2.91 1.153 6.36 2.925 9.34 2.49 2.05-.946 2.52-1.584 4.04-3.16l1.65-2.481c-.65-3.027-11.42-5.911-15.11-8.04.01 3.594-.06 7.64.08 11.19m13.8 43.99c3.92-3.237 5.34-4.162 9.77-6.64l-9.88-5.875c-2.49 1.932-4.69 3.599-6.99 5.788.83 2.66 1.99 7.825 3.97 9.377 1.83-.355 1.73-.893 3.13-2.65m8.48-12.686 1.94.77c2.16-1.876 3.73-11.401 4.38-14.576-.6-.038-1.64-.147-2.2-.081l-8.9 1.468-1.6 8.514zm-45.6-1.79c4.11-3.997 2.54-4.937 1.52-10.41l-11.29-2.404c2 6.104 2.74 10.073 2.82 16.62zm12.28 7.744c-1.87-1.884-4.56-4.881-6.98-5.724l-9.09 5.478c4.1 2.836 7.35 5.35 10.63 9.245l.99 1.093c2.39-1.883 3.54-7.014 4.45-10.092m-40.41-23.67c6.74 10.737 6.98 15.84 6.62 28.093 2.42-1.201 5.23-2.51 7.51-3.892 6.57-7.828 3.66-18.467-6.09-22.35-2.17-.866-5.67-1.386-8.04-1.85m95.04.996c-3.99.84-5.87 1.15-9.64 2.86-4.35 7.603-6.75 16.362 1.84 22.237l3.47 1.19c1.19-1.314.79-12.084 1.64-14.704 1.22-3.764 4.49-7.738 4.97-11.407-1.17-.21-1.13-.305-2.28-.176m-5.12 31.44c-2.44-1.482-7.53-4.842-10.03-5.518-8.52 3.412-11.4 4.687-15.63 13.182l3.78 11.39c1-1.702 2.23-3.937 3.29-5.543 5.8-7.49 10.25-9.61 18.59-13.511m-36.33-6.887c-2.79-.238-5.82-.56-8.59-.641-1.4 3.535-2.87 7.094-4.08 10.699 5.04-.813 7.7-1.24 12.94-.701l2.01.404.92-.752c.14-2.784-1.9-6.434-3.2-9.01m6.78-29.022c-1.66 2.217-2.93 3.134-3.26 5.576 1.05.977 1.44.883 2.87 1.01 2.78-1.254 2.47-.583 3.48-2.818-.48-1.774-1.51-2.781-3.09-3.768m-10.9 16.48c-1.25 2.225-2.86 4.302-2.59 6.665 1.32 1.822.99 1.282 3.33 2.34 3.11-3.308 1.31-5.227-.74-9.004m-2.24-26.97c-.01-1.86.12-9.226-.23-10.59-6.57 4.614-8.84 4.985-16.86 5.762l4.64 5.732c4.85 3.924 7.42 1.743 12.45-.903m35.98-14.863c-2.9 3.192-5.41 5.848-7.91 9.389 1.36 5.73 5.24 18.26 12.66 17.392l9.42-1.738c-10.23-8.83-11.45-11.802-14.17-25.043M854.697 320.223c3.36-.407 6.69-.695 9.68 1.035 14.25 8.259 25.21 41.266 29.66 56.175 15.29-14.23 19.93-14.08 39.74-14.854 1.12-6.021 3.4-25.812 11.06-25.714 2.66 1.616 5.85 6.604 7.82 9.32 11.42 1.28 11.42 2.103 14.49 12.61 23.14 11.655-4.66 18.157-15.14 21.843 4.64 17.11-1.64 30.829-13.51 42.796-.25.215-.5.427-.76.634-11.41 9.219-21 11.766-35.34 10.15-.68 6.095-2.73 20.053-7.84 23.666a4.8 4.8 0 0 1-3.93.728c-3.36-.848-5.21-4.764-7.06-7.73-11.81-.973-11.67-2.078-14.26-13.23-11.13-5.27-13.52-8.31-2.98-15.72-16.15.762-33.47 1.102-46.24-9.75-6.59-18.702 17.09-83.285 34.61-91.96"/><path fill="#f2882a" d="M836.927 353.77c3.38-8.061 9.82-24.597 18.48-28.021a9.46 9.46 0 0 1 7.21.116c8.37 3.632 15.19 20.333 18.4 28.409 3.43 7.878 12.74 25.183 6.51 32.387-4.98 10.056-5.96 17.45-3.84 28.589-15.21 3.3-32.9 3.014-48.18.266-18.21-3.276-12.36-18.661-8.88-31.27 3.15-10.794 6.15-20.06 10.3-30.475"/><path fill="#f6c92a" d="M826.627 384.246c16.83 4.475 31.49 6.83 48.7 3.554 2.2-.418 10.79-1.914 12.2-1.14-4.98 10.057-5.96 17.452-3.84 28.59-15.21 3.3-32.9 3.014-48.18.266-18.21-3.276-12.36-18.661-8.88-31.27"/><path fill="#fefefe" d="M836.927 353.77c3.38-8.061 9.82-24.597 18.48-28.021a9.46 9.46 0 0 1 7.21.116c8.37 3.632 15.19 20.333 18.4 28.409-17.16.404-26.53 3.448-44.09-.503"/><path fill="#743f8f" d="M916.967 368.039c31.85-4.821 39.62 20.087 24.86 44.459-6.6 8.699-13.21 13.743-23.93 16.712-29.75 4.662-38.01-21.426-23.59-44.521 4.78-8.52 13.97-12.937 22.66-16.65"/><path fill="#f2882a" d="M894.307 384.689c5.16 9.31 21.45 36.24 23.59 44.52-29.75 4.663-38.01-21.425-23.59-44.52M916.967 368.039c31.85-4.821 39.62 20.087 24.86 44.459-7.6-16.97-16.9-28.614-24.86-44.46"/><path fill="#743f8f" d="M885.717 420.49c4.17 4.385 7.15 8.107 12.32 11.259-1.49 9.773-2.25 13.878-6 23.036-2.26-2.937-4.23-5.034-6.74-7.713-11.07-2.106-8.03-5.473-14.94-13.668-.9-1.061-4.82-3.298-6.21-4.098 7.65-4.602 13.14-6.106 21.57-8.816M943.417 342.312c7.53 5.975 3.97 7.718 16.83 9.518 1.06 3.49 2.34 6.595 3.69 9.967 2.95 1.745 6.17 2.753 6.16 6.404-1.42 2.023-3.94 2.575-6.35 3.447l-13.26 4.025c-4.32-4.48-7.28-7.13-12.19-10.87 1.13-8.755 2.44-14.101 5.12-22.491"/><path fill="#1b1b1b" d="m589.671 74.33 1.464.513c1.205 2.42 1.134 8.846 1.589 12.212 1.37 10.124 5.488 19.597 13.074 25.728 2.906 2.346 6.414 4.488 10 3.823l1.223-1.688c.953-11.631-.053-19.643 1.773-31.381 3.78 4.131 7.412 8.235 11.53 11.955 6.997-1.616 9.927-1.04 16.986-.328 3.696-4.184 7.615-8.212 11.453-12.241.298 2.528.545 5.334.835 7.832.711 6.114-2.363 23.175 2.451 26.526 3.384.03 9.67-5.16 12.24-7.571 10.044-9.418 10.223-22.256 11.119-35.574 32.671 12.333 45.504 50.976 41.784 86.517-2.173-1.484-7.046-3.883-9.525-5.2-14.465-4.606-20.573 2.72-27.593 15.478-13.99-9.554-21.05-8.652-25.5 9.403-16.427.9-18.561 4.464-26.034 20.224-5.901-14.387-10.709-21.601-25.586-19.43-3.859-18.665-11.357-19.624-25.213-10.135-12.475-17.999-18.228-22.074-37.346-10.79-3.156-19.85-.126-37.705 8.694-55.323 7.496-14.97 17.549-22.231 30.582-30.55m56.607 42.26c2.061-1.673 4.16-3.011 5.235-5.535-.118-2.526.259-1.646-1.37-3.31-2.265 1.644-4.707 2.917-5.722 5.516.54 2.375.114 1.487 1.857 3.328m-11.76-1.846c-3.06-4.308-4.53-5.5-9.25-7.226.728 2.924.886 4.49 2.928 6.49 2.288 1.323 3.788.945 6.322.736" style="stroke-width:1.12103"/><path fill="#010101" d="M121.366 589.13c-5.464-9.26-12.093-19.59-9.273-30.968 4.038-16.297 27.487-17.662 35.16-3.637 6.281 11.485-2.1 24.363-7.586 34.579 20.086.15 22.134-.56 26.66 18.86 1.733 4.289 4.816 7.69 6.472 12.053 2.637 6.949 3.851 12.905 6.992 19.853 3.74 8.272 10.75 14.452 9.347 23.535-.677 4.388-6.96 6.506-9.013 6.693-3.84-.893-7.415-3.972-9.292-7.284-2.725-4.809-.082-12.814-2.072-18.046-5.302-13.935-12.102-23.982-16.497-38.623.135 5.149.82 13.348-.83 18.284-.203.604-3.845 3.7-4.609 4.35 1.858 10.868 8.757 6.48 3.075 19.662 1.518 2.697 2.758 4.729 3.791 7.648-5.406 15.907 1.041 16.759.757 29.229l-.01.579c-.322 14.03-5.843 17.618-1.074 34.673 4.158 1.939 11.617 4.468 10.987 10.174-3.592 4.658-12.265 2.398-17.19 1.612-4.1-.867-8.545-2.476-9.897-6.822-1.882-6.048 2.834-14.458 2.657-19.97-.314-9.787-2.278-19.231-.43-29.202 1.42-7.664 1.318-20.356-9.859-19.111-15.224 1.382-6.793 20.47-6.917 29.655-.429 7.449-3.232 14.68-1.59 22.14.734 3.336 4.802 17.086 2.142 19.263-4.934 4.039-20.465 7.038-25.727 2.804-2.698-7.058 9.421-8.706 11.012-14.911 2.698-10.523-1.953-20.971-2.349-31.47-.134-10.417 5.92-15.143 1.734-26.71q-.184-.51-.382-1.014c1.032-3.755 1.638-6.203 3.296-9.782-2.957-7.058-3.306-9.456 2.573-14.876l1.411-4.385c-9.035-5.278-7.645-14.414-6.272-23.67-5.709 10.27-3.987 11.33-7.529 21.642-3.377 6.855-7.872 10.977-9.535 18.757-.997 4.663 1.39 14.008-.47 16.465-11.914 15.726-14.074 9.321-20.58-1.673 2.8-8.89 7.015-13.935 11.76-22.06 2.737-4.688 3.653-14.712 5.13-17.708 6.095-12.37 7.813-10.378 10.582-24.701 2.95-2.504 4.632-3.822 7.875-5.915 5.205-.09 10.37-.245 15.57.028M161.2 729.957c-3.26-6.598-14.826-7.568-21.329-7.674.721 2.646.508 3.644 3.103 5.132 4.923 2.825 12.683 3.528 18.226 2.542m-11.773-10.32c-1.447-7.441-1.948-11.18-1.452-18.841l-4.289-1.026c-.005 9.089-.112 11.05-3.193 19.654zm-37.514 2.835c-4.8 1.575-7.059 1.884-10.283 5.872l.09 1.346c1.947 1.193 4.118.75 6.287.24q.535-.126 1.068-.272c4.127-1.108 8.336-1.752 10.823-5.376-.949-2.991-5.27-2.01-7.985-1.81m5.235-15.737a78 78 0 0 0-3.844 1.885c-.178 3.483-1.263 5.77-1.109 9.865 1.893 1.577 5.338 1.317 7.61.855.126-.824-2.283-10.691-2.657-12.605m15.373-79.61-4.537.714c-.247 3.27-1.033 5.72 2.18 7.353l1.46-1.045c1.47-2.065 1.017-4.417.897-7.021"/><path fill="#d2d0d1" d="M114.835 627.965c2.366.33 6.867.559 8.314 2.186-3.57 1.725-6.373 1.07-9.725 2.199z"/><path fill="#fefefe" d="M130.4 548.067c14.746.19 17.236 9.412 14.158 25.229-6.776 3.666-2.834 8.458-7.616 13.985-5.865 2.477-8.16 2.297-14.028-.845-3.513-3.137-.572-11.514-6.547-12.377-3.974-9.202-3.281-27.21 14.033-25.992"/><path fill="#010101" d="M135.128 564.603a3.734 3.734 0 0 1 5.49 3.557 3.736 3.736 0 1 1-5.49-3.557M121.791 564.6a3.655 3.655 0 1 1 3.74 6.282 3.655 3.655 0 0 1-3.74-6.282M123.296 577.766c7.03 4.105 10.56 1.58 13.205 1.234l.64 1.64c-.724.555-1.68 1.226-2.553 1.528a14.3 14.3 0 0 1-10.434-.401c-1.472-1.818-1.099-.916-.858-4.001M130.552 571.35l2.618 3.438c-1.119 1.433-4.054.8-5.337.085 1.253-1.441 1.087-1.02 2.72-3.522"/><path fill="#fefefe" d="M112.26 603.675c3.258 2.603 10.97 7.773 14.454 3.587l-.284-1.164c-4.64-2.486-11.296-1.696-12.657-5.387l.946-1.472c4.772-.468 7.695 4.833 12.478 2.19 1.833-8.854-15.023-3.173-19.96-7.198l-.262-1.105c4.284-2.19 13.441.51 17.87 1.173 2.664.399 2.715-2.902 6.255-2.841.841 1.31 1.113 1.697 2.16 2.846 6.448.076 17.46-4.593 21.737-.325-4.367 4.342-18.227-1.573-21.724 5.95.82 1.825.268 1.268 2.056 2.107 4.12-.4 8.47-2.902 11.114-2.36l.473 1.312c-2.158 3.5-9.939 2.82-12.728 5.53 3.69 6.142 9.962-1.798 14.31-1.88 1.206 1.804 1.115 1.086.818 2.839-3.796 3.727-11.764 3.196-14.516 5.475 4.006 6.422 12.687-3.481 15.24-.295-.066 7.34-12.872 4.402-15.868 6.209 2.187 5.29 10.552 1.999 14.247.65.483 2.665.654 1.652-.459 3.888-4.267 2.695-10.597 1.153-15.032-.372-.957 1.474-.547 2.029-.407 4.094l-4.537.713c.26-2.601.606-2.205-.424-4.246-3.195-1.125-10.65 4.412-14.88-1.138 2.451-2.13 10.543-.914 14.316-3.04l.113-1.06c-7.907-2.257-10.217 3.675-17.436-5.862.45-2.992.065-6.1 1.25-8.532z"/><path fill="#1b1b1b" d="M109.673 612.493c.45-2.992.065-6.1 1.25-8.532l1.337-.286c-.698 8.169 7.183 6.638 13.305 9.673-5.06 4.712-11.98-2.588-15.892-.855"/><path fill="#fefefe" d="M117.018 634.17c4.338.294 9.502 3.069 13.472 4.963 3.866-2.002 9.96-5.52 14.025-3.777 11.184 7.78-1.435 14.02-6.968 20.276-4.402-1.35-4.105-4.41-13.246-.022-6.06-7.52-19.094-11.85-7.283-21.44"/><path fill="#010101" d="M118.398 640.057c2.201.64 3.65.862 5.301 2.5 1.074 2.977.694 2.319.121 5.8-2.206-.928-2.69-1.261-4.585-2.593-1.48-2.92-1.04-2.1-.837-5.707M138.98 640.176c2.501 1.258 2.367.743 3.725 2.837-.077 2.048-1.306 3.063-2.688 4.708-2.408-.453-2.548-.523-3.727-2.366.125-2.184 1.367-3.45 2.69-5.18"/><path fill="#fefefe" d="M141.765 655.362c3.262-.372 4.437-5.47 7.178-4.052.563 1.606-.466 11.197-.849 13.29-1.035 5.648 3.341 18.182 2.723 21.05-2.568-.097-5.822.025-8.045-1.087-1.309-2.914 1.418-8.33 1.37-11.141-.137-7.868-3.378-9.497-2.377-18.06M111.778 650.412c3.142.39 4.79 3.118 7.645 4.436 1.806 2.638-3.054 8.353-2.753 13.323.376 6.218 1.176 11.28 2.235 17.428-3.288.809-6.917-.247-10.324-.891 8.69-16.135.226-27.348 3.197-34.296M151.031 598.81c1.933-1.351 2.848-2.104 5.125-2.908 5.772 1.245 5.624 11.709 8.4 16.74 1.69 3.062 3.07 4.54 5.328 7.126l-.803 2 .977.448-7.36 4.222-.514-3.016c-2.582-13.257-2.652-14.396-11.153-24.611"/><path fill="#1b1b1b" d="m169.884 619.768-.803 2 .977.448-7.36 4.222-.514-3.016c3.295-.917 4.727-1.902 7.7-3.654"/><path fill="#fefefe" d="M101.363 594.742c2.341.927 6.016 3.196 8.316 4.526q-.61.483-1.198.996c-8.037 6.923-9.065 12.689-9.807 22.89-3.268-.676-5.583-1.82-8.603-3.153 8.36-8.66 9.375-13.825 11.292-25.26M89.55 622.329c2.482 1.142 5.793 2.546 8.14 3.804-7.054 7.11-9.97 21.833-11.214 22.64-2.293-1.402-2.615-1.592-5.29-2.144 2.66-9.706 6.852-7.63 8.364-24.3M162.697 626.438l7.361-4.222c4.327 6.942-.086 13.127 8.985 22.414-.387 2.1-.135 1.368-2.39 3.027-7.104.113-4.248-14.27-13.956-21.22M113.304 708.62c-.968-5.264-5.566-17.93-.548-20.462 2.071.23 3.202.134 4.812 1.417.353 1.784-.902 11.473-.42 17.16a78 78 0 0 0-3.844 1.885M79.658 647.838c1.887.695 3.55 1.369 5.522 1.803 1.386 2.897 1.442 2.184 1.142 4.938l-1.788 2.96-2.252.708-.903.408c-.583 2.375-1.43 7.013-2.789 8.753l-.205-1.02c-.616-3.124 1.868-5.321.53-9.036l-2.176-.8-.59-1.653c.027-2.578 1.997-4.865 3.51-7.061M143.686 699.77c-.284-2.592-1.509-9.483-.96-11.404 2.791-.946 6.93-.51 8.116 2.565-.745 2.489-2.51 7.617-2.867 9.865z"/><path d="m91.858 656.144 1.287-2.839c.41.885.653 2.596.712 3.619.13 2.268.92 2.74-.365 4.196-.75-.622-1.45-3.584-1.634-4.976M84.538 657.47l-1.61-.54c-.617 2.913-1.511 8.396-.168 8.875.924-1.994 1.512-6.956 1.778-8.334M82.41 656.353l-.585-1.136c-.619 2.914-2.179 6.304-.835 6.783.924-1.993 1.155-4.268 1.42-5.647M88.316 658.617l2.252-.707a75 75 0 0 1-.183 3.069c-.202 2.263-.18 4.374-1.66 5.63-.418.454-.427-6.588-.409-7.992" style="fill:#d2d0d1;fill-opacity:1" transform="translate(-6)"/><path fill="#fefefe" d="M179.938 647.409c-1.79.916-2.888 2.457-5.77.905-.423 2.84-.867 4.864.064 6.385l2.03 2.927 2.32.431.945.297c.864 2.288 2.262 6.79 3.82 8.355l.08-1.037c.237-3.176-2.492-5.059-1.61-8.907l2.064-1.056.388-1.712c-.336-2.556-2.567-4.59-4.331-6.588"/><path d="m180.78 656.399-1.618-2.664c-.3.927-.338 2.656-.273 3.678.142 2.267-.584 2.83.866 4.122.67-.708 1.01-3.732 1.025-5.136M188.375 657.207l1.532-.73c.963 2.818 2.509 8.154 1.233 8.792-1.156-1.87-2.336-6.725-2.765-8.062M190.285 655.742l.445-1.198c.964 2.818 2.92 5.997 1.643 6.634-1.156-1.869-1.659-4.1-2.088-5.436M184.56 658.664l-2.321-.432q.244 1.52.55 3.025c.472 2.223.703 4.321 2.324 5.391.47.4-.368-6.592-.554-7.984" style="fill:#d2d0d1;fill-opacity:1" transform="translate(-6)"/><path fill="#1b1b1b" d="M878.319 122.97C864.125 111.234 856.29 105.922 854 86.07c-.685-5.944 3.174-28.975 9.042-30.63 1.02 1.074 1.84 1.786 1.558 3.64-.743 4.888-2.587 10.88-3.909 15.693-2.641 9.62 1.3 24.195 7.727 31.529 2.34 2.67 8.28 7.285 11.3 9.58 2.037-3.052 3.409-5.013 5.748-7.87-.432-4.214-1.278-6.35 1.597-9.815l.948.113c2.612 5.26 3.692 8.942 10.662 7.19 4.555-1.15-1.691-7.858 4.264-8.577 2.724 2.888 2.339 6.396 1.757 10.108 1.935 2.796 4.34 6.043 5.908 9.016 17.913-13.67 14.259-13.955 21.088-34.232-1.56-5.237-7.102-20.545-4.35-24.93 6.069.495 9.328 23.68 8.699 29.055-2.583 22.014-9.15 24.008-24.056 36.786 15.508-3.362 23.455-4.324 34.858-17.25 4.903-5.56 4.903-22.46 10.915-22.896 1.343 1.635 1.38 2.746 1.165 4.895-2.142 21.934-17.791 36.47-39.114 40.152-1.888.452-3.597.486-4.762 1.695 1.86 1.016 2.48 1.095 4.5 1.532 20.862 3.694 40.268 18.464 42.269 41.886.112 1.256-.489 1.59-1.315 2.257l-1.823-.333c-4.555-3.347-5.316-13.999-8.237-18.155-9.488-13.517-25.465-17.809-39.828-21.5 25.184 19.618 20.89 14.109 29.617 44.122-2.18 6.887-5.457 21.249-10.088 25.744l-1.052-.053c-2.067-5.145 3.165-20.289 4.856-26.127-4.001-14.503-4.039-21.381-15.921-30.39 2.057 11.19.497 21.505-9.074 28.732-5.195 3.85-11.685 5.419-18.026 4.357-16.321-2.617-21.197-18.307-18.648-33.127-12.785 10.345-10.904 14.144-16.067 30.3 1.766 5.894 7.303 21.47 5.369 26.512l-1.065.305c-5.157-3.683-8.774-20.537-10.267-26.947 10.224-29.333 2.495-22.902 29.378-43.474-16.647 4.002-37.124 9.567-42.655 28.622-.89 3.064-3.914 13.28-8.255 11.13-1.23-3.663 4.19-17.998 6.21-21.467 8.332-14.316 22.11-18.574 36.826-22.693l2.95-1.055.182-.6-2.21-.902c-14.846-3.242-25.063-7.608-35.04-20.703-2.926-3.84-7.628-18.926-6.72-23.74l.857-.827c6.177 1.64 7.032 14.197 9.809 19.356 7.461 13.861 23.072 17.639 36.74 20.885" style="stroke-width:.948965"/><path fill="#1b1b1b" d="M112.346 408.243c.76-2.242 1.626-3.861 3.954-4.713 6.878-2.52 21.104-3.867 24.573 4.202 6.447-.263 17.28-2.874 23.509-4.888 1.347 3.764 3.019 9.193 5.182 12.383 8.129.468 34.42 7.164 38.859 15.375 3.247 6.005-10.749 12.51-15.189 13.617-34.513 7.919-74.875 10.235-110.123 4.538-56.62-9.152-47.17-23.711 1.404-33.774 1.847-3.037 3.553-8.19 4.839-11.651 7.909 1.874 14.963 3.525 22.992 4.91"/><path fill="#f2882a" d="M112.346 408.243c.76-2.242 1.626-3.861 3.954-4.713 6.878-2.52 21.104-3.867 24.573 4.202-.231 6.013-.161 11.158.003 17.18-4.463 7.662-22.901 7.549-28.446.349z"/><path fill="#743f8f" d="m118.5 408.444 15.959.333.395 15.323-16.355.027zM140.873 407.732c6.447-.263 17.28-2.874 23.509-4.888 1.347 3.764 3.019 9.193 5.182 12.383-.425 1.973-.334 3.16-2.423 4.269-7.387 3.919-17.981 3.774-26.265 5.417-.164-6.023-.234-11.168-.003-17.181M89.354 403.332c7.909 1.874 14.963 3.525 22.992 4.91l.084 17.019c-7.754-1.81-18.97-1.751-25.945-5.865-1.852-1.092-1.64-2.348-1.97-4.413 1.847-3.037 3.553-8.19 4.839-11.651"/><path fill="#1b1b1b" d="M156.808 309.598c8.105 4.14 27.992 22.308 34.997 29.038-10.379-1.69-23.155-4.777-33.616-7.015a384 384 0 0 0-11.722 19.255c5.64 17.614 11.796 34.52 17.915 51.968-6.229 2.014-17.062 4.625-23.509 4.888-3.469-8.07-17.695-6.722-24.573-4.202-2.328.852-3.194 2.47-3.954 4.713-8.03-1.386-15.083-3.037-22.992-4.911 6.993-21.848 16.547-46.647 24.368-68.548 6.403-5.042 18.067-10.877 25.243-15.088 5.221-3.064 12.645-7.656 17.843-10.098"/><path fill="#403f3f" d="M634.732 820.294c13.43-.917 29.21 5.19 38.4 14.893a50.85 50.85 0 0 1 12.29 23.072c2.32 9.94 1.22 68.387.89 81.086l-46.31.035q-25.92.135-51.835-.057c.31-13.46-.07-26.98.043-40.37.166-19.88-2.836-42.27 10.141-59.055 9.801-12.676 21.061-17.34 36.381-19.604"/><path fill="#d2d0d1" d="m632.312 846.875 10.41-.093.03 18.048 17.76-.093-.07 10.816-17.7-.042v37.26c-2.11.388-8.04.201-10.46.185l.05-37.42-17.33-.236-.02-10.477 17.42-.013z"/><path fill="#403f3f" d="M576.048 944.668c40.104-.905 81.874.632 122.864-.107.05 6.662.04 13.324-.04 19.986-39.65-1.319-83.06.536-123.015.314-.14-6.447.111-13.687.191-20.193"/><path fill="#1b1b1b" d="M377.991 335.01c7.659-14.69 18.034-13.016 25.861.405 10.793.884 38.997 2.593 42.875 15.42 1.065 3.523-1.392 6.964-3.187 9.873 1.164 2.769 2.882 6.485 4.253 9.144 13.09 25.38 7.359 52.525-14.779 71.056 1.554 3.523 6.808 14.168 4.895 16.83-6.601 9.185-14.65-6.2-19.892-6.771-3.832.495-9.042 2.666-12.639 3.647-19.307 5.264-35.753 2.894-53.796-4.667-3.8 4.424-9.585 11.048-16.062 10.134-6.406-4.267-.871-13.35 1.531-18.797-27.265-24.515-27.581-49.97-10.039-80.313-22.312-22.702 39.897-25.378 50.979-25.96"/><path fill="#78b646" d="M377.991 335.01c7.659-14.69 18.034-13.016 25.861.405-1.367 1.863-3.091 5.723-4.167 7.936 5.911.44 34.24 2.473 35.918 8.4-7.932 10.187-89.871 11.305-100.314.299-.888-6.911 38.908-8.838 45.295-9.477-.522-2.326-1.038-5.937-2.593-7.562"/><path fill="#403f3f" d="M332.166 375.352c.991.276 3.052.874 3.179 2.042.91 8.327-2.892 18.28-1.936 26.652 1.169 10.234 10.538 19.86 16.041 28.029 1.003 1.464.261 2.91-.209 4.5-20.205-12.99-29.63-39.786-17.075-61.223"/><path fill="#78b646" d="M357.148 310.218a9.399 9.399 0 1 1 5.22 18.057 9.399 9.399 0 0 1-5.22-18.057M413.993 313.183c10.775-1.087 13.966 8.608 5.255 15.018-10.783.817-15.005-10.193-5.255-15.018M382.197 290.197a7.1 7.1 0 0 1 7.764 5.96 7.098 7.098 0 1 1-7.764-5.96"/><path fill="#f2882a" d="M564.892 423.209c-2.557.576-4.699 1.319-6.85.042-1.99-8.014 3.192-9.053 9.633-12.503 15.396-8.245 29.253-16.018 46.69-18.816 5.863 6.025 10.351 10.916 15.807 17.333-4.12 13.784-15.186 46.067-26.398 55.146-3.54.334-2.192-2.097-8.679-2.727-3.398-3.706 2.276-11.782 4.196-16.101-3.38 4.088-6.645 8.265-10.57 11.83-3.209-2.24-11.085-8.204-12.104-11.765l8.848-11.508c-3.688 2.56-7.45 5.061-10.88 7.952-1.098.415-2.722.918-3.637-.003-3.299-3.319-6.347-7.555-7.525-12.135-.337-1.309 1.13-2.303 1.966-3.172 3.3-2.836 6.615-5.174 10.13-7.718a228 228 0 0 0-10.627 4.145"/><path fill="#7a502e" d="M633.928 380.644c6.886-7.092 14.393-15.455 21.808-21.819 8.043-6.902 18.336-11.708 25.817-19.537 7.308-7.15 13.74-14.802 20.365-22.561 4.248-4.974 13.007-15.922 20.281-10.44.588 1.166 1.856 4.089.846 5.197-10.146 11.135-28.214 33.06-40.904 40.807-19.983 12.2-25.509 18.545-41.37 35.54-.23-2.395-.276-2.898-1.122-5.242-2.268-1.824-2.467-1.36-5.72-1.945"/><path fill="#f2882a" d="M625.921 372.396c2.31 5.254 3.116 5.292 8.007 8.248 3.254.585 3.453.121 5.721 1.945.846 2.344.891 2.847 1.121 5.242 3.597 2.052 7.05 3.77 5.731 8.312-2.447 2.936-7.56 5.253-11.289 8.058-1.56 1.553-3.602 3.47-5.04 5.064-5.456-6.417-9.944-11.308-15.807-17.333l4.403-4.543c3.374-4.033 5.34-10.069 7.153-14.993"/><path fill="#7a502e" d="M618.768 387.389c3.015 2.621 14.04 13.701 16.444 16.812-1.56 1.553-3.602 3.47-5.04 5.064-5.456-6.417-9.944-11.308-15.807-17.333z"/><path fill="#d2d0d1" fill-opacity=".024" d="M574.584 442.092c3.43-2.891 7.193-5.392 10.881-7.952l-8.848 11.508c-1.155-1.547-1.404-1.768-2.033-3.556"/><path fill="#d2d0d1" fill-opacity=".012" d="M564.892 423.209a228 228 0 0 1 10.627-4.145c-3.515 2.544-6.83 4.882-10.13 7.718-.428-1.04-.456-2.445-.497-3.573"/><defs><linearGradient id="b" x1="873.85" x2="870.762" y1="654.232" y2="656.221" gradientTransform="translate(-430.772 273.99)" gradientUnits="userSpaceOnUse"><stop offset="0" stop-color="#dbd9db" stop-opacity="0"/><stop offset="1" stop-color="#d0cece" stop-opacity=".082"/></linearGradient></defs><path fill="#1b1b1b" d="M326.096 834.762c14.72-10.91 29.27-10.34 38.456 5.82 10.653 18.74 26.108 20.386 39.115 35.29 8.336 6.974 45.16 43.98 50.098 52.788.251.448.504.886.745 1.341l-11.06-2.392c-1.102-.39-3.15-.367-4.388-.418l6.28 5.547c4.022 3.87 17.478 14.115 17.954 18.598l-1.085.902c-8.379.57-13.136-5.808-17.667-6.27l.465 1.921-.619.71c-6.985-.653-24.502-16.7-30.556-22.153-4.965.257-11.709 1.584-16.769 2.441-.804 10.426-4.96 13.661-11.466 21.911 2.592.358 6.431.42 7.561 3.043-3.37 2.346-37.192 2.54-41.27.378l.175-1c4.761-2.884 8.253-2.473 13.781-2.58l11.732-13.536c-1.462-4.428-3.02-7.72-4.969-11.944-21.223-12.495-36.76-26.5-38.453-52.798-.634-9.84-.374-15.754-6.327-23.969-5.866-1.92-15.395-2.193-21.818-2.639 6.262-7.414 10.568-9.885 20.085-10.99m57.543 101.66c-2.998 3.103-9.59 8.957-9.992 12.857 1.288 2.687 2.748 2.112 5.602 1.97 4.623-4.186 7.523-8.81 10.893-14.02-1.46-3.12-2.955-7.006-5.714-9.074z"/><path fill="#403f3f" d="M353.168 874.437c10.365-30.167 35.586 1.025 50.5 1.435 8.335 6.974 45.158 43.98 50.097 52.788.251.448.504.886.745 1.341l-11.06-2.392c-1.102-.39-3.15-.367-4.388-.418-1.614-1.376-5.596-2.966-7.692-3.803-10.768-4.297-14.346-7.032-21.873-15.464 2.685 6.068 4.498 8.23 8.723 13.096-12.964-5.382-15.155-7.547-24.833-17.688 1.624 4.447 3.286 7.192 5.6 11.287-22.642-8.558-38.175-15.536-45.819-40.182M326.096 834.762c4.013 3.158 5.302 4.344 8.677 8.164l-6.944 5.466c-5.866-1.92-15.395-2.193-21.818-2.639 6.262-7.414 10.568-9.885 20.085-10.99"/><path fill="url(#b)" d="M437.062 927.191c1.237.051 3.286.028 4.387.418l2.478 1.946-.585 3.183z" style="fill:url(#b)" transform="translate(2)"/><path fill="#1b1b1b" d="M135.75 818.588c2.267 10.385 2.034 17.323 2.696 27.825.251 3.974 1.874 9.73 1.829 13.199l1.994 1.24c-1.959 1.168-2.047.809-2.994 2.675 2.75 2.514 8.39 1.139 10.215 3.896-3.69 1.604-7.519-1.974-11.302.368l-.058 1.156c2.181 2.768 4.838 2.675 7.602 5.3l-1.154.365c-3.927-.418-5.873-1.716-9.305-3.557-4.06 3.957-7.012 5.915-11.704 8.884 9.735 28.49 46.488 22.482 36.054 73.38 30.731-25.96-8.522-47.798 2.002-75.454a26.02 26.02 0 0 1 13.88-14.57c17.824-7.63 35.312 9.736 28.067 25.152a17.18 17.18 0 0 1-9.855 8.865c-8.78 3.142-19.07-3.43-15.518-10.288 4.522-2.76 10.967 2.71 16.374-1.793 1.151-2.454.618-5.494-.325-7.842-4.76-11.846-20.332-5.051-23.125 4.18-4.698 15.53 7.854 27.875 10.252 42.496 2.971 18.109-4.036 32.113-20.844 39.322a80.2 80.2 0 0 1-18.494 5.238c-14.525 2.35-31.603 1.379-46.455 1.189-3.583-.046-6.084-1.44-7.4-4.815.347-4.711 2.973-6.31 6.44-9.311 2.285-23.543-7.786-27.331-7.666-48.855.036-6.476 4.075-18.82 6.084-25.474-5.427-2.652-9.46-6.141-14.078-9.935-4.504 2.095-7.857 3.178-12.56 4.727 3.536-3.174 5.872-3.393 9.398-7.656l-.114-1.058c-4.013-.86-9.103.083-13.334.54 3.735-1.824 10.295-2.551 11.911-5.221-1.173-1.264-2.234-1.256-3.96-1.595l3.068-1.482c3.366-16.575 1.03-27.407 4.631-41.188 5.395 3.527 11.43 8.62 16.271 12.963 10.37-2.958 16.547-.56 26.801-.753 4.263-4.053 9.754-8.863 14.676-12.113"/><path fill="#f6c92a" d="M121.321 848.555c3.292-.454 4.444-1.127 6.73 1.418.232 1.958.382 2.936-1.003 4.843a11.1 11.1 0 0 1-7.859 4.483c-2.328.24-3.47-.851-5.234-2.231-.068-2.5.176-5.75 2.525-6.972 2.451 1.143 3.118 4.326 5.87 6.116.951-2.777-.042-5.06-1.029-7.657M86.322 848.153c2.463-.06 3.86-.44 5.526 1.38-.173 1.973-.46 2.8-.992 4.66.89 1.868.311 1.343 2.04 2.107 1.897-1.156 2.434-3.566 3.215-5.72l.925.043 3.072 3.478c-.347 10.145-19.07 3.85-13.786-5.948"/><path fill="#7d7c7c" d="M103.592 862.765c2.17.05 3.23-.033 5.312.744 1.396 1.968.952 1.654.97 4.5-1.962-.192-2.547-.427-4.418-1.083-1.8-1.987-1.276-1.324-1.864-4.161"/><path fill="#010101" d="M140.275 859.612c2.778-.897 3.869-1.428 6.756-.956l.813.786c-1.421 1.316-3.502 1.204-5.575 1.41zM70.302 861.16c-1.855-.231-3.408-.32-4.469-1.8 2.661-1.401 4.925-.643 7.538.319z"/><path fill="#d2d0d1" fill-opacity=".012" d="M923.545 134.855c-2.02-.437-2.64-.516-4.499-1.532 1.165-1.209 2.874-1.243 4.762-1.695l1.212 1.34c-.488 1.22-.404 1.177-1.475 1.887" style="stroke-width:.948965"/><path fill="#d2d0d1" fill-opacity=".02" d="m876.671 132 2.21.901-.18.6-2.951 1.055-2.499-1.01.244-.71z" style="stroke-width:.948965"/></svg>